G04 #@! TF.GenerationSoftware,KiCad,Pcbnew,10.0.4-10.0.4~ubuntu22.04.1*
G04 #@! TF.CreationDate,2026-09-21T21:24:37+05:30*
G04 #@! TF.ProjectId,quiet-orbit-qo-r1-usb-c-four-light-ambient-lamp-board,71756965-742d-46f7-9262-69742d716f2d,rev?*
G04 #@! TF.SameCoordinates,Original*
G04 #@! TF.FileFunction,Legend,Bot*
G04 #@! TF.FilePolarity,Positive*
%FSLAX46Y46*%
G04 Gerber Fmt 4.6, Leading zero omitted, Abs format (unit mm)*
G04 Created by KiCad (PCBNEW 10.0.4-10.0.4~ubuntu22.04.1) date 2026-09-21 21:24:37*
%MOMM*%
%LPD*%
G01*
G04 APERTURE LIST*
G04 Aperture macros list*
%AMRoundRect*
0 Rectangle with rounded corners*
0 $1 Rounding radius*
0 $2 $3 $4 $5 $6 $7 $8 $9 X,Y pos of 4 corners*
0 Add a 4 corners polygon primitive as box body*
4,1,4,$2,$3,$4,$5,$6,$7,$8,$9,$2,$3,0*
0 Add four circle primitives for the rounded corners*
1,1,$1+$1,$2,$3*
1,1,$1+$1,$4,$5*
1,1,$1+$1,$6,$7*
1,1,$1+$1,$8,$9*
0 Add four rect primitives between the rounded corners*
20,1,$1+$1,$2,$3,$4,$5,0*
20,1,$1+$1,$4,$5,$6,$7,0*
20,1,$1+$1,$6,$7,$8,$9,0*
20,1,$1+$1,$8,$9,$2,$3,0*%
G04 Aperture macros list end*
%ADD10C,0.000000*%
%ADD11C,3.200000*%
%ADD12C,0.650000*%
%ADD13O,1.000000X2.100000*%
%ADD14O,1.000000X1.800000*%
%ADD15RoundRect,0.250000X0.600000X0.600000X-0.600000X0.600000X-0.600000X-0.600000X0.600000X-0.600000X0*%
%ADD16C,1.700000*%
G04 APERTURE END LIST*
D10*
G36*
X120153910Y-119208264D02*
G01*
X119385191Y-119208264D01*
X119372989Y-116865501D01*
X119311980Y-116682473D01*
X119141153Y-116487243D01*
X118799500Y-116377426D01*
X118555463Y-116401830D01*
X118360232Y-116499445D01*
X118152800Y-116841098D01*
X118140599Y-119208264D01*
X117371880Y-119208264D01*
X117371880Y-116780088D01*
X117567110Y-116182196D01*
X117786744Y-115938158D01*
X118006378Y-115803937D01*
X118360232Y-115718524D01*
X118689683Y-115730726D01*
X119080144Y-115889351D01*
X119263172Y-116084581D01*
X119397393Y-116438435D01*
X119385191Y-114656960D01*
X120153910Y-114656960D01*
X120153910Y-119208264D01*
G37*
G36*
X122325845Y-115755130D02*
G01*
X122557681Y-115852745D01*
X122752911Y-116023571D01*
X122935940Y-116426234D01*
X122948141Y-115779534D01*
X123668053Y-115779534D01*
X123668053Y-119208264D01*
X122899334Y-119196062D01*
X122899334Y-116902107D01*
X122813921Y-116645867D01*
X122643094Y-116462839D01*
X122435662Y-116377426D01*
X122155019Y-116365224D01*
X121849972Y-116487243D01*
X121642540Y-116792290D01*
X121605934Y-117255962D01*
X120800610Y-117243760D01*
X120812811Y-116780088D01*
X120898225Y-116414032D01*
X121044647Y-116145590D01*
X121300887Y-115901552D01*
X121764559Y-115730726D01*
X122325845Y-115755130D01*
G37*
G36*
X141275374Y-115889351D02*
G01*
X141482806Y-116023571D01*
X141775651Y-116365224D01*
X141934276Y-116865501D01*
X141934276Y-118122296D01*
X141787853Y-118598169D01*
X141482806Y-118964226D01*
X140994731Y-119208264D01*
X140348031Y-119269273D01*
X139823349Y-119159456D01*
X139469495Y-118952024D01*
X139152246Y-118524958D01*
X139054631Y-118036882D01*
X139823349Y-118036882D01*
X139933166Y-118366333D01*
X140299223Y-118585967D01*
X140677481Y-118585967D01*
X140945923Y-118463948D01*
X141116749Y-118244315D01*
X141177759Y-117927066D01*
X141177759Y-117048530D01*
X141080144Y-116670271D01*
X140799500Y-116438435D01*
X140372434Y-116389628D01*
X140079589Y-116487243D01*
X139933166Y-116621464D01*
X139823349Y-116950915D01*
X139054631Y-116950915D01*
X139225457Y-116316417D01*
X139567110Y-115962562D01*
X140067387Y-115755130D01*
X140628674Y-115718524D01*
X141275374Y-115889351D01*
G37*
G36*
X137260953Y-115755130D02*
G01*
X137858846Y-116023571D01*
X138200499Y-116462839D01*
X138322518Y-117048530D01*
X138285912Y-118268718D01*
X138041874Y-118781198D01*
X137651414Y-119098447D01*
X137102329Y-119257071D01*
X136455629Y-119220465D01*
X135869938Y-118927620D01*
X135528286Y-118415141D01*
X135455074Y-118049084D01*
X135456063Y-118012479D01*
X136223793Y-118012479D01*
X136272601Y-118232113D01*
X136516638Y-118512756D01*
X136858291Y-118598169D01*
X137138935Y-118561564D01*
X137321963Y-118463948D01*
X137492789Y-118244315D01*
X137553799Y-117939267D01*
X137504991Y-116767886D01*
X137273155Y-116487243D01*
X136919301Y-116389628D01*
X136626455Y-116426234D01*
X136443427Y-116523849D01*
X136321408Y-116658069D01*
X136223793Y-116963117D01*
X136223793Y-118012479D01*
X135456063Y-118012479D01*
X135484425Y-116963117D01*
X135491680Y-116694675D01*
X135674708Y-116279811D01*
X136052967Y-115925956D01*
X136577648Y-115742928D01*
X137260953Y-115755130D01*
G37*
G36*
X107293122Y-116426234D02*
G01*
X107366333Y-116157792D01*
X107549362Y-115925956D01*
X107830005Y-115767332D01*
X108074043Y-115718524D01*
X108403494Y-115730726D01*
X108757348Y-115852745D01*
X109013588Y-116060177D01*
X109208818Y-116365224D01*
X109330837Y-116889905D01*
X109306433Y-118293122D01*
X109099001Y-118817803D01*
X108684137Y-119171658D01*
X108305879Y-119269273D01*
X107768996Y-119196062D01*
X107463948Y-118976428D01*
X107256516Y-118561564D01*
X107256516Y-119208264D01*
X106512201Y-119208264D01*
X106512201Y-118036882D01*
X107280920Y-118036882D01*
X107329728Y-118244315D01*
X107512756Y-118488352D01*
X107878813Y-118610371D01*
X108122850Y-118585967D01*
X108342484Y-118476150D01*
X108501109Y-118268718D01*
X108562118Y-118012479D01*
X108525513Y-116780088D01*
X108293677Y-116475041D01*
X107952024Y-116377426D01*
X107512756Y-116499445D01*
X107366333Y-116670271D01*
X107280920Y-116950915D01*
X107280920Y-118036882D01*
X106512201Y-118036882D01*
X106512201Y-116950915D01*
X106512201Y-114656960D01*
X107280920Y-114656960D01*
X107293122Y-116426234D01*
G37*
G36*
X129768996Y-115791735D02*
G01*
X130074043Y-116011369D01*
X130281475Y-116426234D01*
X130281475Y-115779534D01*
X131025790Y-115779534D01*
X131025790Y-120330837D01*
X130257071Y-120330837D01*
X130244869Y-118561564D01*
X130171658Y-118830005D01*
X129988630Y-119061841D01*
X129768996Y-119196062D01*
X129451747Y-119269273D01*
X129134498Y-119257071D01*
X128780643Y-119135052D01*
X128524403Y-118927620D01*
X128341375Y-118646977D01*
X128207154Y-118085690D01*
X128226634Y-116975318D01*
X128975873Y-116975318D01*
X129012479Y-118207709D01*
X129244315Y-118512756D01*
X129585967Y-118610371D01*
X129817803Y-118585967D01*
X130037437Y-118476150D01*
X130171658Y-118317526D01*
X130257071Y-118036882D01*
X130220465Y-116780088D01*
X129988630Y-116475041D01*
X129659179Y-116377426D01*
X129415141Y-116401830D01*
X129195507Y-116511647D01*
X129036882Y-116719079D01*
X128975873Y-116975318D01*
X128226634Y-116975318D01*
X128231558Y-116694675D01*
X128463394Y-116133388D01*
X128878258Y-115803937D01*
X129232113Y-115718524D01*
X129768996Y-115791735D01*
G37*
G36*
X133392956Y-115791735D02*
G01*
X133685801Y-115999168D01*
X133905435Y-116426234D01*
X133905435Y-115779534D01*
X134649750Y-115779534D01*
X134649750Y-120330837D01*
X133881031Y-120330837D01*
X133868829Y-118561564D01*
X133759012Y-118891014D01*
X133612590Y-119061841D01*
X133392956Y-119196062D01*
X133075707Y-119269273D01*
X132758458Y-119257071D01*
X132404603Y-119135052D01*
X132136161Y-118915418D01*
X131965335Y-118646977D01*
X131831114Y-118085690D01*
X131850637Y-116963117D01*
X132599833Y-116963117D01*
X132636439Y-118207709D01*
X132868275Y-118512756D01*
X133209927Y-118610371D01*
X133441763Y-118585967D01*
X133673599Y-118463948D01*
X133820022Y-118268718D01*
X133881031Y-118024681D01*
X133844425Y-116780088D01*
X133612590Y-116475041D01*
X133283139Y-116377426D01*
X133039101Y-116401830D01*
X132819467Y-116511647D01*
X132660843Y-116719079D01*
X132599833Y-116963117D01*
X131850637Y-116963117D01*
X131855518Y-116682473D01*
X132087354Y-116133388D01*
X132502218Y-115803937D01*
X132856073Y-115718524D01*
X133392956Y-115791735D01*
G37*
G36*
X115639212Y-115779534D02*
G01*
X115956461Y-115913754D01*
X116395729Y-116340820D01*
X116578757Y-116950915D01*
X116578757Y-118036882D01*
X116395729Y-118646977D01*
X116102884Y-118976428D01*
X115639212Y-119208264D01*
X115004714Y-119269273D01*
X114492235Y-119159456D01*
X114162784Y-118976428D01*
X113894342Y-118695784D01*
X113735718Y-118305324D01*
X114504437Y-118317526D01*
X114650859Y-118537160D01*
X114858291Y-118634775D01*
X115431780Y-118622573D01*
X115590404Y-118537160D01*
X115773433Y-118293122D01*
X115822240Y-117670826D01*
X113711314Y-117670826D01*
X113711314Y-117182750D01*
X114467831Y-117182750D01*
X115834442Y-117182750D01*
X115810038Y-116804492D01*
X115700221Y-116560454D01*
X115529395Y-116401830D01*
X115273155Y-116316417D01*
X114894897Y-116340820D01*
X114699667Y-116438435D01*
X114553244Y-116609262D01*
X114467831Y-116865501D01*
X114467831Y-117182750D01*
X113711314Y-117182750D01*
X113711314Y-116975318D01*
X113736023Y-116865501D01*
X113821131Y-116487243D01*
X114187188Y-116011369D01*
X114650859Y-115779534D01*
X115273155Y-115718524D01*
X115639212Y-115779534D01*
G37*
G36*
X126352468Y-115742928D02*
G01*
X126681919Y-115840543D01*
X126986966Y-116023571D01*
X127340820Y-116487243D01*
X127450637Y-116987520D01*
X127426234Y-118219911D01*
X127182196Y-118768996D01*
X126803937Y-119086245D01*
X126267054Y-119257071D01*
X125608153Y-119232667D01*
X125303105Y-119135052D01*
X124985856Y-118939822D01*
X124741819Y-118659179D01*
X124607598Y-118305324D01*
X125376317Y-118317526D01*
X125425124Y-118439545D01*
X125620354Y-118598169D01*
X125864392Y-118659179D01*
X126254853Y-118634775D01*
X126462285Y-118537160D01*
X126645313Y-118293122D01*
X126706322Y-117695230D01*
X124583194Y-117670826D01*
X124601729Y-117182750D01*
X125339711Y-117182750D01*
X126706322Y-117182750D01*
X126645313Y-116694675D01*
X126572102Y-116560454D01*
X126328064Y-116365224D01*
X126132834Y-116316417D01*
X125693566Y-116365224D01*
X125461730Y-116548252D01*
X125388519Y-116682473D01*
X125339711Y-117182750D01*
X124601729Y-117182750D01*
X124619800Y-116706877D01*
X124815030Y-116267609D01*
X125181087Y-115925956D01*
X125754575Y-115730726D01*
X126352468Y-115742928D01*
G37*
G36*
X111893233Y-115755130D02*
G01*
X112430116Y-115986966D01*
X112759567Y-116353022D01*
X112881586Y-116767886D01*
X112125069Y-116755684D01*
X112051858Y-116572656D01*
X111820022Y-116401830D01*
X111307542Y-116365224D01*
X111075707Y-116475041D01*
X110929284Y-116658069D01*
X110904880Y-117182750D01*
X112100665Y-117207154D01*
X112686356Y-117438990D01*
X112905990Y-117683028D01*
X113040210Y-118110094D01*
X113003605Y-118561564D01*
X112844980Y-118878813D01*
X112600942Y-119098447D01*
X112320299Y-119220465D01*
X111661397Y-119257071D01*
X111331946Y-119159456D01*
X111112312Y-119013033D01*
X110880476Y-118610371D01*
X110868275Y-119208264D01*
X110123960Y-119208264D01*
X110123960Y-117670826D01*
X110892678Y-117670826D01*
X110904880Y-118232113D01*
X111014697Y-118439545D01*
X111258735Y-118622573D01*
X111563782Y-118695784D01*
X111868829Y-118671381D01*
X112076261Y-118573765D01*
X112234886Y-118378535D01*
X112271491Y-118085690D01*
X112198280Y-117878258D01*
X112027454Y-117719633D01*
X111844425Y-117658624D01*
X110892678Y-117670826D01*
X110123960Y-117670826D01*
X110123960Y-116743483D01*
X110319190Y-116206600D01*
X110685246Y-115889351D01*
X111209927Y-115730726D01*
X111893233Y-115755130D01*
G37*
G36*
X148010815Y-115779534D02*
G01*
X148364669Y-115877149D01*
X148852745Y-116182196D01*
X149218801Y-116633666D01*
X149414032Y-117182750D01*
X150500000Y-117194952D01*
X150500000Y-117792845D01*
X149414032Y-117805047D01*
X149292013Y-118207709D01*
X148999168Y-118659179D01*
X148584303Y-119000831D01*
X147998613Y-119220465D01*
X147998613Y-120306433D01*
X147388519Y-120306433D01*
X147376317Y-119208264D01*
X146998058Y-119098447D01*
X146522185Y-118793399D01*
X146143926Y-118305324D01*
X145960898Y-117792845D01*
X144887132Y-117792845D01*
X144887132Y-117353577D01*
X146558790Y-117353577D01*
X146595396Y-117805047D01*
X146815030Y-118219911D01*
X147132279Y-118488352D01*
X147608153Y-118634775D01*
X148035219Y-118585967D01*
X148413477Y-118378535D01*
X148706322Y-118024681D01*
X148828341Y-117646422D01*
X148791735Y-117170549D01*
X148584303Y-116780088D01*
X148279256Y-116511647D01*
X147778979Y-116353022D01*
X147351913Y-116401830D01*
X146973655Y-116609262D01*
X146717415Y-116902107D01*
X146558790Y-117353577D01*
X144887132Y-117353577D01*
X144887132Y-117194952D01*
X145960898Y-117194952D01*
X146107321Y-116755684D01*
X146400166Y-116316417D01*
X146802828Y-115986966D01*
X147388519Y-115767332D01*
X147388519Y-114681364D01*
X147998613Y-114681364D01*
X148010815Y-115779534D01*
G37*
%LPC*%
D11*
X104000000Y-153000000D03*
D12*
X131390000Y-106280000D03*
X125610000Y-106280000D03*
D13*
X132820000Y-106780000D03*
D14*
X132820000Y-102600000D03*
D13*
X124180000Y-106780000D03*
D14*
X124180000Y-102600000D03*
D11*
X104000000Y-104000000D03*
X153000000Y-104000000D03*
D15*
X129770000Y-147850000D03*
D16*
X127230000Y-147850000D03*
X129770000Y-145310000D03*
X127230000Y-145310000D03*
X129770000Y-142770000D03*
X127230000Y-142770000D03*
D11*
X153000000Y-153000000D03*
%LPD*%
M02*
