G04 #@! TF.GenerationSoftware,KiCad,Pcbnew,10.0.4-10.0.4~ubuntu22.04.1*
G04 #@! TF.CreationDate,2026-09-21T21:24:43+05:30*
G04 #@! TF.ProjectId,quiet-orbit-qo-r1-usb-c-four-light-ambient-lamp-board,71756965-742d-46f7-9262-69742d716f2d,rev?*
G04 #@! TF.SameCoordinates,Original*
G04 #@! TF.FileFunction,Copper,L1,Top*
G04 #@! TF.FilePolarity,Positive*
%FSLAX46Y46*%
G04 Gerber Fmt 4.6, Leading zero omitted, Abs format (unit mm)*
G04 Created by KiCad (PCBNEW 10.0.4-10.0.4~ubuntu22.04.1) date 2026-09-21 21:24:43*
%MOMM*%
%LPD*%
G01*
G04 APERTURE LIST*
G04 Aperture macros list*
%AMRoundRect*
0 Rectangle with rounded corners*
0 $1 Rounding radius*
0 $2 $3 $4 $5 $6 $7 $8 $9 X,Y pos of 4 corners*
0 Add a 4 corners polygon primitive as box body*
4,1,4,$2,$3,$4,$5,$6,$7,$8,$9,$2,$3,0*
0 Add four circle primitives for the rounded corners*
1,1,$1+$1,$2,$3*
1,1,$1+$1,$4,$5*
1,1,$1+$1,$6,$7*
1,1,$1+$1,$8,$9*
0 Add four rect primitives between the rounded corners*
20,1,$1+$1,$2,$3,$4,$5,0*
20,1,$1+$1,$4,$5,$6,$7,0*
20,1,$1+$1,$6,$7,$8,$9,0*
20,1,$1+$1,$8,$9,$2,$3,0*%
G04 Aperture macros list end*
G04 #@! TA.AperFunction,SMDPad,CuDef*
%ADD10RoundRect,0.225000X0.225000X0.375000X-0.225000X0.375000X-0.225000X-0.375000X0.225000X-0.375000X0*%
G04 #@! TD*
G04 #@! TA.AperFunction,SMDPad,CuDef*
%ADD11RoundRect,0.225000X-0.250000X0.225000X-0.250000X-0.225000X0.250000X-0.225000X0.250000X0.225000X0*%
G04 #@! TD*
G04 #@! TA.AperFunction,SMDPad,CuDef*
%ADD12RoundRect,0.200000X-0.200000X-0.275000X0.200000X-0.275000X0.200000X0.275000X-0.200000X0.275000X0*%
G04 #@! TD*
G04 #@! TA.AperFunction,SMDPad,CuDef*
%ADD13RoundRect,0.150000X0.150000X0.425000X-0.150000X0.425000X-0.150000X-0.425000X0.150000X-0.425000X0*%
G04 #@! TD*
G04 #@! TA.AperFunction,SMDPad,CuDef*
%ADD14RoundRect,0.075000X0.075000X0.500000X-0.075000X0.500000X-0.075000X-0.500000X0.075000X-0.500000X0*%
G04 #@! TD*
G04 #@! TA.AperFunction,ComponentPad*
%ADD15O,1.000000X2.100000*%
G04 #@! TD*
G04 #@! TA.AperFunction,ComponentPad*
%ADD16O,1.000000X1.800000*%
G04 #@! TD*
G04 #@! TA.AperFunction,SMDPad,CuDef*
%ADD17RoundRect,0.200000X-0.275000X0.200000X-0.275000X-0.200000X0.275000X-0.200000X0.275000X0.200000X0*%
G04 #@! TD*
G04 #@! TA.AperFunction,SMDPad,CuDef*
%ADD18RoundRect,0.200000X0.200000X0.275000X-0.200000X0.275000X-0.200000X-0.275000X0.200000X-0.275000X0*%
G04 #@! TD*
G04 #@! TA.AperFunction,SMDPad,CuDef*
%ADD19RoundRect,0.250000X0.625000X-0.375000X0.625000X0.375000X-0.625000X0.375000X-0.625000X-0.375000X0*%
G04 #@! TD*
G04 #@! TA.AperFunction,SMDPad,CuDef*
%ADD20C,1.500000*%
G04 #@! TD*
G04 #@! TA.AperFunction,SMDPad,CuDef*
%ADD21RoundRect,0.225000X-0.225000X-0.250000X0.225000X-0.250000X0.225000X0.250000X-0.225000X0.250000X0*%
G04 #@! TD*
G04 #@! TA.AperFunction,SMDPad,CuDef*
%ADD22RoundRect,0.218750X-0.218750X-0.256250X0.218750X-0.256250X0.218750X0.256250X-0.218750X0.256250X0*%
G04 #@! TD*
G04 #@! TA.AperFunction,ComponentPad*
%ADD23RoundRect,0.250000X0.600000X0.600000X-0.600000X0.600000X-0.600000X-0.600000X0.600000X-0.600000X0*%
G04 #@! TD*
G04 #@! TA.AperFunction,ComponentPad*
%ADD24C,1.700000*%
G04 #@! TD*
G04 #@! TA.AperFunction,SMDPad,CuDef*
%ADD25RoundRect,0.250000X-0.625000X0.375000X-0.625000X-0.375000X0.625000X-0.375000X0.625000X0.375000X0*%
G04 #@! TD*
G04 #@! TA.AperFunction,SMDPad,CuDef*
%ADD26RoundRect,0.150000X-0.825000X-0.150000X0.825000X-0.150000X0.825000X0.150000X-0.825000X0.150000X0*%
G04 #@! TD*
G04 #@! TA.AperFunction,SMDPad,CuDef*
%ADD27RoundRect,0.250000X-0.250000X-0.475000X0.250000X-0.475000X0.250000X0.475000X-0.250000X0.475000X0*%
G04 #@! TD*
G04 #@! TA.AperFunction,ViaPad*
%ADD28C,0.650000*%
G04 #@! TD*
G04 #@! TA.AperFunction,Conductor*
%ADD29C,0.500000*%
G04 #@! TD*
G04 #@! TA.AperFunction,Conductor*
%ADD30C,0.300000*%
G04 #@! TD*
G04 #@! TA.AperFunction,Conductor*
%ADD31C,0.250000*%
G04 #@! TD*
G04 APERTURE END LIST*
D10*
X142550000Y-109400000D03*
X139250000Y-109400000D03*
D11*
X132700000Y-109425000D03*
X132700000Y-110975000D03*
D12*
X144275000Y-149900000D03*
X145925000Y-149900000D03*
D13*
X131700000Y-107355000D03*
X130900000Y-107355000D03*
D14*
X129750000Y-107355000D03*
X128750000Y-107355000D03*
X128250000Y-107355000D03*
X127250000Y-107355000D03*
D13*
X126100000Y-107355000D03*
X125300000Y-107355000D03*
X125300000Y-107355000D03*
X126100000Y-107355000D03*
D14*
X126750000Y-107355000D03*
X127750000Y-107355000D03*
X129250000Y-107355000D03*
X130250000Y-107355000D03*
D13*
X130900000Y-107355000D03*
X131700000Y-107355000D03*
D15*
X132820000Y-106780000D03*
D16*
X132820000Y-102600000D03*
D15*
X124180000Y-106780000D03*
D16*
X124180000Y-102600000D03*
D17*
X126750000Y-110975000D03*
X126750000Y-112625000D03*
D18*
X112725000Y-107100000D03*
X111075000Y-107100000D03*
D19*
X108500000Y-109900000D03*
X108500000Y-107100000D03*
X148500000Y-109900000D03*
X148500000Y-107100000D03*
D17*
X129750000Y-110975000D03*
X129750000Y-112625000D03*
D12*
X144275000Y-107100000D03*
X145925000Y-107100000D03*
D20*
X115500000Y-123500000D03*
D21*
X127725000Y-123000000D03*
X129275000Y-123000000D03*
D18*
X112725000Y-149900000D03*
X111075000Y-149900000D03*
D22*
X135112500Y-109400000D03*
X136687500Y-109400000D03*
D23*
X129770000Y-147850000D03*
D24*
X127230000Y-147850000D03*
X129770000Y-145310000D03*
X127230000Y-145310000D03*
X129770000Y-142770000D03*
X127230000Y-142770000D03*
D17*
X123100000Y-125175000D03*
X123100000Y-126825000D03*
D20*
X115500000Y-128500000D03*
D25*
X148500000Y-147100000D03*
X148500000Y-149900000D03*
D26*
X126025000Y-124690000D03*
X126025000Y-125960000D03*
X126025000Y-127230000D03*
X126025000Y-128500000D03*
X126025000Y-129770000D03*
X126025000Y-131040000D03*
X126025000Y-132310000D03*
X130975000Y-132310000D03*
X130975000Y-131040000D03*
X130975000Y-129770000D03*
X130975000Y-128500000D03*
X130975000Y-127230000D03*
X130975000Y-125960000D03*
X130975000Y-124690000D03*
D25*
X108500000Y-147100000D03*
X108500000Y-149900000D03*
D20*
X115500000Y-133500000D03*
X120500000Y-105000000D03*
D27*
X140750000Y-112400000D03*
X142650000Y-112400000D03*
D28*
X127953400Y-124398900D03*
X155000000Y-115000000D03*
X115000000Y-155000000D03*
X155000000Y-135000000D03*
X155000000Y-145000000D03*
X145000000Y-155000000D03*
X125000000Y-155000000D03*
X135000000Y-155000000D03*
X155000000Y-125000000D03*
X129312200Y-130811900D03*
X127687800Y-128349600D03*
D29*
X121425000Y-123500000D02*
X123100000Y-125175000D01*
X144275000Y-107675000D02*
X144275000Y-107100000D01*
X140750000Y-111200000D02*
X142550000Y-109400000D01*
X127120500Y-123594500D02*
X126025000Y-124690000D01*
X123100000Y-125175000D02*
X125540000Y-125175000D01*
X127953400Y-124398900D02*
X127924800Y-124398900D01*
X142550000Y-109400000D02*
X144275000Y-107675000D01*
X125180000Y-149900000D02*
X112725000Y-149900000D01*
X115500000Y-123500000D02*
X121425000Y-123500000D01*
X133154300Y-117424900D02*
X123049900Y-117424900D01*
X140750000Y-112400000D02*
X140750000Y-111200000D01*
X127725000Y-122854200D02*
X127725000Y-123000000D01*
X140750000Y-112400000D02*
X138179200Y-112400000D01*
X127715000Y-123000000D02*
X127725000Y-123000000D01*
X133154300Y-117424900D02*
X127725000Y-122854200D01*
X127924800Y-124398900D02*
X127120500Y-123594500D01*
X125540000Y-125175000D02*
X126025000Y-124690000D01*
X127230000Y-147850000D02*
X125180000Y-149900000D01*
X123049900Y-117424900D02*
X112725000Y-107100000D01*
X127120500Y-123594500D02*
X127715000Y-123000000D01*
X129280000Y-149900000D02*
X127230000Y-147850000D01*
X138179200Y-112400000D02*
X133154300Y-117424900D01*
X144275000Y-149900000D02*
X129280000Y-149900000D01*
X139250000Y-109400000D02*
X136687500Y-109400000D01*
X123220700Y-107816300D02*
X123807600Y-108403200D01*
X133818800Y-105821700D02*
X133202500Y-105205400D01*
X133818800Y-109400000D02*
X133818800Y-105821700D01*
X123220700Y-105205400D02*
X123220700Y-107816300D01*
X120500000Y-105000000D02*
X123015300Y-105000000D01*
X123807600Y-108403200D02*
X125717900Y-108403200D01*
X125717900Y-108403200D02*
X126100000Y-108021100D01*
X132725000Y-109400000D02*
X132904300Y-109400000D01*
X132700000Y-109425000D02*
X132725000Y-109400000D01*
X132317400Y-109400000D02*
X130900000Y-107982600D01*
X130900000Y-107982600D02*
X130900000Y-107355000D01*
X132904300Y-109400000D02*
X132317400Y-109400000D01*
X126100000Y-108021100D02*
X126100000Y-107355000D01*
X133202500Y-105205400D02*
X123220700Y-105205400D01*
X133818800Y-109400000D02*
X135112500Y-109400000D01*
X132904300Y-109400000D02*
X133818800Y-109400000D01*
X123015300Y-105000000D02*
X123220700Y-105205400D01*
D30*
X131700000Y-107355000D02*
X132820000Y-106780000D01*
X125300000Y-107355000D02*
X124180000Y-106780000D01*
X131700000Y-107355000D02*
X132820000Y-106780000D01*
X125300000Y-107355000D02*
X124180000Y-106780000D01*
D31*
X148500000Y-149900000D02*
X145925000Y-149900000D01*
X129750000Y-107355000D02*
X129750000Y-110975000D01*
X126750000Y-107355000D02*
X126750000Y-110975000D01*
X108500000Y-107100000D02*
X111075000Y-107100000D01*
X108500000Y-118037400D02*
X120232600Y-129770000D01*
X108500000Y-109900000D02*
X108500000Y-118037400D01*
X120232600Y-129770000D02*
X126025000Y-129770000D01*
X134427100Y-123972900D02*
X130030100Y-123972900D01*
X126482700Y-131040000D02*
X126025000Y-131040000D01*
X128500000Y-125503000D02*
X128500000Y-129022700D01*
X130030100Y-123972900D02*
X128500000Y-125503000D01*
X128500000Y-129022700D02*
X126482700Y-131040000D01*
X148500000Y-109900000D02*
X134427100Y-123972900D01*
X148500000Y-107100000D02*
X145925000Y-107100000D01*
X108500000Y-149900000D02*
X111075000Y-149900000D01*
X108500000Y-147100000D02*
X108955000Y-146645000D01*
X129770000Y-147850000D02*
X131482600Y-146137400D01*
X128565000Y-146645000D02*
X129770000Y-147850000D01*
X131482600Y-146137400D02*
X131482600Y-132817600D01*
X108955000Y-146645000D02*
X128565000Y-146645000D01*
X131482600Y-132817600D02*
X130975000Y-132310000D01*
X130975000Y-131040000D02*
X130746900Y-130811900D01*
X130746900Y-130811900D02*
X129312200Y-130811900D01*
X130975800Y-143230800D02*
X130166600Y-144040000D01*
X148500000Y-147100000D02*
X133075000Y-131675000D01*
X133075000Y-131675000D02*
X126660000Y-131675000D01*
X126025000Y-132310000D02*
X130975800Y-137260800D01*
X130975800Y-137260800D02*
X130975800Y-143230800D01*
X128500000Y-144040000D02*
X127230000Y-145310000D01*
X126660000Y-131675000D02*
X126025000Y-132310000D01*
X130166600Y-144040000D02*
X128500000Y-144040000D01*
X126025000Y-128500000D02*
X124775000Y-128500000D01*
X124775000Y-128500000D02*
X123100000Y-126825000D01*
X129770000Y-142770000D02*
X115500000Y-128500000D01*
X127687800Y-128349600D02*
X126175400Y-128349600D01*
X126175400Y-128349600D02*
X126025000Y-128500000D01*
G04 #@! TA.AperFunction,Conductor*
G36*
X132035323Y-106596562D02*
G01*
X132046352Y-106606352D01*
X132070000Y-106630000D01*
X132520000Y-106630000D01*
X132520000Y-106930000D01*
X132070000Y-106930000D01*
X132070000Y-107403873D01*
X132098820Y-107548759D01*
X132098822Y-107548767D01*
X132155357Y-107685254D01*
X132155362Y-107685264D01*
X132237436Y-107808096D01*
X132237439Y-107808100D01*
X132341899Y-107912560D01*
X132341903Y-107912563D01*
X132464735Y-107994637D01*
X132464745Y-107994642D01*
X132601230Y-108051176D01*
X132601240Y-108051179D01*
X132669999Y-108064856D01*
X132670000Y-108064856D01*
X132670000Y-107589808D01*
X132704204Y-107609556D01*
X132780504Y-107630000D01*
X132859496Y-107630000D01*
X132935796Y-107609556D01*
X132970000Y-107589808D01*
X132970000Y-108064856D01*
X133038759Y-108051179D01*
X133038769Y-108051176D01*
X133096847Y-108027120D01*
X133166316Y-108019651D01*
X133228795Y-108050926D01*
X133264448Y-108111015D01*
X133268300Y-108141681D01*
X133268300Y-108578443D01*
X133248615Y-108645482D01*
X133195811Y-108691237D01*
X133126653Y-108701181D01*
X133098811Y-108693798D01*
X133089825Y-108690254D01*
X133075590Y-108684641D01*
X132991144Y-108674500D01*
X132421787Y-108674500D01*
X132354748Y-108654815D01*
X132334106Y-108638181D01*
X131536819Y-107840894D01*
X131503334Y-107779571D01*
X131500500Y-107753213D01*
X131500500Y-106941341D01*
X131520185Y-106874302D01*
X131572989Y-106828547D01*
X131592397Y-106821569D01*
X131612135Y-106816281D01*
X131743365Y-106740515D01*
X131850515Y-106633365D01*
X131851284Y-106632032D01*
X131852224Y-106631135D01*
X131855463Y-106626916D01*
X131856120Y-106627420D01*
X131901851Y-106583817D01*
X131970458Y-106570594D01*
X132035323Y-106596562D01*
G37*
G04 #@! TD.AperFunction*
G04 #@! TA.AperFunction,Conductor*
G36*
X125084661Y-106577851D02*
G01*
X125140594Y-106619722D01*
X125148710Y-106632023D01*
X125149482Y-106633361D01*
X125149484Y-106633363D01*
X125149485Y-106633365D01*
X125256635Y-106740515D01*
X125387865Y-106816281D01*
X125407593Y-106821567D01*
X125467252Y-106857929D01*
X125497783Y-106920775D01*
X125499500Y-106941341D01*
X125499500Y-107728700D01*
X125479815Y-107795739D01*
X125427011Y-107841494D01*
X125375500Y-107852700D01*
X124960864Y-107852700D01*
X124893825Y-107833015D01*
X124848070Y-107780211D01*
X124838126Y-107711053D01*
X124846303Y-107681247D01*
X124901177Y-107548767D01*
X124901179Y-107548759D01*
X124929999Y-107403873D01*
X124930000Y-107403871D01*
X124930000Y-106930000D01*
X124480000Y-106930000D01*
X124480000Y-106630000D01*
X124929998Y-106630000D01*
X124953646Y-106606352D01*
X125014969Y-106572867D01*
X125084661Y-106577851D01*
G37*
G04 #@! TD.AperFunction*
G04 #@! TA.AperFunction,Conductor*
G36*
X153003033Y-100400649D02*
G01*
X153346731Y-100417533D01*
X153358840Y-100418726D01*
X153696201Y-100468769D01*
X153708135Y-100471143D01*
X153831570Y-100502061D01*
X154038989Y-100554017D01*
X154050606Y-100557542D01*
X154371731Y-100672442D01*
X154382960Y-100677092D01*
X154691292Y-100822922D01*
X154702019Y-100828656D01*
X154994546Y-101003991D01*
X154994550Y-101003993D01*
X155004665Y-101010751D01*
X155278609Y-101213921D01*
X155288007Y-101221634D01*
X155540724Y-101450684D01*
X155549315Y-101459275D01*
X155692667Y-101617439D01*
X155778361Y-101711987D01*
X155786077Y-101721389D01*
X155786458Y-101721903D01*
X155989246Y-101995332D01*
X155996006Y-102005449D01*
X156171341Y-102297977D01*
X156177078Y-102308709D01*
X156322904Y-102617032D01*
X156327560Y-102628275D01*
X156442452Y-102949376D01*
X156445985Y-102961021D01*
X156528856Y-103291864D01*
X156531230Y-103303798D01*
X156581273Y-103641159D01*
X156582466Y-103653270D01*
X156599351Y-103996966D01*
X156599500Y-104003050D01*
X156599500Y-152996947D01*
X156599351Y-153003032D01*
X156582465Y-153346732D01*
X156581272Y-153358841D01*
X156531231Y-153696199D01*
X156528857Y-153708135D01*
X156445986Y-154038975D01*
X156442453Y-154050620D01*
X156327558Y-154371728D01*
X156322901Y-154382970D01*
X156177077Y-154691286D01*
X156171342Y-154702017D01*
X155996008Y-154994547D01*
X155989247Y-155004666D01*
X155786076Y-155278610D01*
X155778356Y-155288016D01*
X155549322Y-155540717D01*
X155540717Y-155549322D01*
X155288016Y-155778356D01*
X155278610Y-155786076D01*
X155004666Y-155989247D01*
X154994547Y-155996008D01*
X154702017Y-156171342D01*
X154691286Y-156177077D01*
X154382970Y-156322901D01*
X154371728Y-156327558D01*
X154050620Y-156442453D01*
X154038975Y-156445986D01*
X153708135Y-156528857D01*
X153696199Y-156531231D01*
X153358841Y-156581272D01*
X153346732Y-156582465D01*
X153003033Y-156599351D01*
X152996948Y-156599500D01*
X104003051Y-156599500D01*
X103996967Y-156599351D01*
X103653270Y-156582466D01*
X103641159Y-156581273D01*
X103303798Y-156531230D01*
X103291864Y-156528856D01*
X102961021Y-156445985D01*
X102949380Y-156442453D01*
X102788825Y-156385006D01*
X102628275Y-156327560D01*
X102617032Y-156322904D01*
X102308709Y-156177078D01*
X102297977Y-156171341D01*
X102005449Y-155996006D01*
X101995332Y-155989246D01*
X101721394Y-155786081D01*
X101711987Y-155778361D01*
X101459275Y-155549315D01*
X101450684Y-155540724D01*
X101221634Y-155288007D01*
X101213918Y-155278605D01*
X101010753Y-155004667D01*
X101003993Y-154994550D01*
X100861042Y-154756052D01*
X100828655Y-154702017D01*
X100822921Y-154691290D01*
X100752280Y-154541932D01*
X100677092Y-154382960D01*
X100672439Y-154371724D01*
X100619131Y-154222738D01*
X100557542Y-154050606D01*
X100554017Y-154038989D01*
X100471143Y-153708135D01*
X100468769Y-153696201D01*
X100418726Y-153358840D01*
X100417533Y-153346729D01*
X100400649Y-153003033D01*
X100400500Y-152996949D01*
X100400500Y-152878711D01*
X102149500Y-152878711D01*
X102149500Y-153121288D01*
X102181161Y-153361785D01*
X102243947Y-153596104D01*
X102290352Y-153708135D01*
X102336776Y-153820212D01*
X102458064Y-154030289D01*
X102458066Y-154030292D01*
X102458067Y-154030293D01*
X102605733Y-154222736D01*
X102605739Y-154222743D01*
X102777256Y-154394260D01*
X102777262Y-154394265D01*
X102969711Y-154541936D01*
X103179788Y-154663224D01*
X103403900Y-154756054D01*
X103638211Y-154818838D01*
X103818586Y-154842584D01*
X103878711Y-154850500D01*
X103878712Y-154850500D01*
X104121289Y-154850500D01*
X104169388Y-154844167D01*
X104361789Y-154818838D01*
X104596100Y-154756054D01*
X104820212Y-154663224D01*
X105030289Y-154541936D01*
X105222738Y-154394265D01*
X105394265Y-154222738D01*
X105541936Y-154030289D01*
X105663224Y-153820212D01*
X105756054Y-153596100D01*
X105818838Y-153361789D01*
X105850500Y-153121288D01*
X105850500Y-152878712D01*
X105850500Y-152878711D01*
X151149500Y-152878711D01*
X151149500Y-153121288D01*
X151181161Y-153361785D01*
X151243947Y-153596104D01*
X151290352Y-153708135D01*
X151336776Y-153820212D01*
X151458064Y-154030289D01*
X151458066Y-154030292D01*
X151458067Y-154030293D01*
X151605733Y-154222736D01*
X151605739Y-154222743D01*
X151777256Y-154394260D01*
X151777262Y-154394265D01*
X151969711Y-154541936D01*
X152179788Y-154663224D01*
X152403900Y-154756054D01*
X152638211Y-154818838D01*
X152818586Y-154842584D01*
X152878711Y-154850500D01*
X152878712Y-154850500D01*
X153121289Y-154850500D01*
X153169388Y-154844167D01*
X153361789Y-154818838D01*
X153596100Y-154756054D01*
X153820212Y-154663224D01*
X154030289Y-154541936D01*
X154222738Y-154394265D01*
X154394265Y-154222738D01*
X154541936Y-154030289D01*
X154663224Y-153820212D01*
X154756054Y-153596100D01*
X154818838Y-153361789D01*
X154850500Y-153121288D01*
X154850500Y-152878712D01*
X154818838Y-152638211D01*
X154756054Y-152403900D01*
X154663224Y-152179788D01*
X154541936Y-151969711D01*
X154394265Y-151777262D01*
X154394260Y-151777256D01*
X154222743Y-151605739D01*
X154222736Y-151605733D01*
X154030293Y-151458067D01*
X154030292Y-151458066D01*
X154030289Y-151458064D01*
X153820212Y-151336776D01*
X153820205Y-151336773D01*
X153596104Y-151243947D01*
X153361785Y-151181161D01*
X153121289Y-151149500D01*
X153121288Y-151149500D01*
X152878712Y-151149500D01*
X152878711Y-151149500D01*
X152638214Y-151181161D01*
X152403895Y-151243947D01*
X152179794Y-151336773D01*
X152179785Y-151336777D01*
X151969706Y-151458067D01*
X151777263Y-151605733D01*
X151777256Y-151605739D01*
X151605739Y-151777256D01*
X151605733Y-151777263D01*
X151458067Y-151969706D01*
X151336777Y-152179785D01*
X151336773Y-152179794D01*
X151243947Y-152403895D01*
X151181161Y-152638214D01*
X151149500Y-152878711D01*
X105850500Y-152878711D01*
X105818838Y-152638211D01*
X105756054Y-152403900D01*
X105663224Y-152179788D01*
X105541936Y-151969711D01*
X105394265Y-151777262D01*
X105394260Y-151777256D01*
X105222743Y-151605739D01*
X105222736Y-151605733D01*
X105030293Y-151458067D01*
X105030292Y-151458066D01*
X105030289Y-151458064D01*
X104820212Y-151336776D01*
X104820205Y-151336773D01*
X104596104Y-151243947D01*
X104361785Y-151181161D01*
X104121289Y-151149500D01*
X104121288Y-151149500D01*
X103878712Y-151149500D01*
X103878711Y-151149500D01*
X103638214Y-151181161D01*
X103403895Y-151243947D01*
X103179794Y-151336773D01*
X103179785Y-151336777D01*
X102969706Y-151458067D01*
X102777263Y-151605733D01*
X102777256Y-151605739D01*
X102605739Y-151777256D01*
X102605733Y-151777263D01*
X102458067Y-151969706D01*
X102336777Y-152179785D01*
X102336773Y-152179794D01*
X102243947Y-152403895D01*
X102181161Y-152638214D01*
X102149500Y-152878711D01*
X100400500Y-152878711D01*
X100400500Y-149481898D01*
X107324500Y-149481898D01*
X107324500Y-150318102D01*
X107328359Y-150350234D01*
X107335122Y-150406561D01*
X107390639Y-150547343D01*
X107482077Y-150667922D01*
X107602656Y-150759360D01*
X107602657Y-150759360D01*
X107602658Y-150759361D01*
X107743436Y-150814877D01*
X107831898Y-150825500D01*
X107831903Y-150825500D01*
X109168097Y-150825500D01*
X109168102Y-150825500D01*
X109256564Y-150814877D01*
X109397342Y-150759361D01*
X109517922Y-150667922D01*
X109609361Y-150547342D01*
X109619610Y-150521351D01*
X109665885Y-150404010D01*
X109708791Y-150348866D01*
X109774698Y-150325673D01*
X109781239Y-150325500D01*
X110310859Y-150325500D01*
X110377898Y-150345185D01*
X110423653Y-150397989D01*
X110427030Y-150406140D01*
X110431204Y-150417331D01*
X110431205Y-150417332D01*
X110431206Y-150417335D01*
X110517452Y-150532544D01*
X110517455Y-150532547D01*
X110632664Y-150618793D01*
X110632671Y-150618797D01*
X110677618Y-150635561D01*
X110767517Y-150669091D01*
X110827127Y-150675500D01*
X111322872Y-150675499D01*
X111382483Y-150669091D01*
X111517331Y-150618796D01*
X111632546Y-150532546D01*
X111718796Y-150417331D01*
X111769091Y-150282483D01*
X111775500Y-150222873D01*
X111775499Y-149577128D01*
X111769091Y-149517517D01*
X111752982Y-149474327D01*
X111718797Y-149382671D01*
X111718793Y-149382664D01*
X111632547Y-149267455D01*
X111632544Y-149267452D01*
X111517335Y-149181206D01*
X111517328Y-149181202D01*
X111382486Y-149130910D01*
X111382485Y-149130909D01*
X111382483Y-149130909D01*
X111322873Y-149124500D01*
X111322863Y-149124500D01*
X110827129Y-149124500D01*
X110827123Y-149124501D01*
X110767516Y-149130908D01*
X110632671Y-149181202D01*
X110632664Y-149181206D01*
X110517455Y-149267452D01*
X110517452Y-149267455D01*
X110431206Y-149382664D01*
X110431204Y-149382668D01*
X110431204Y-149382669D01*
X110427039Y-149393834D01*
X110385171Y-149449766D01*
X110319707Y-149474184D01*
X110310859Y-149474500D01*
X109781239Y-149474500D01*
X109714200Y-149454815D01*
X109668445Y-149402011D01*
X109665885Y-149395990D01*
X109609362Y-149252660D01*
X109609361Y-149252658D01*
X109517922Y-149132077D01*
X109397343Y-149040639D01*
X109256561Y-148985122D01*
X109210926Y-148979642D01*
X109168102Y-148974500D01*
X107831898Y-148974500D01*
X107792853Y-148979188D01*
X107743438Y-148985122D01*
X107602656Y-149040639D01*
X107482077Y-149132077D01*
X107390639Y-149252656D01*
X107335122Y-149393438D01*
X107334816Y-149395990D01*
X107324500Y-149481898D01*
X100400500Y-149481898D01*
X100400500Y-109481898D01*
X107324500Y-109481898D01*
X107324500Y-110318102D01*
X107326074Y-110331206D01*
X107335122Y-110406561D01*
X107335122Y-110406563D01*
X107335123Y-110406564D01*
X107339418Y-110417455D01*
X107390639Y-110547343D01*
X107482077Y-110667922D01*
X107602656Y-110759360D01*
X107602657Y-110759360D01*
X107602658Y-110759361D01*
X107743436Y-110814877D01*
X107831898Y-110825500D01*
X107950500Y-110825500D01*
X108017539Y-110845185D01*
X108063294Y-110897989D01*
X108074500Y-110949500D01*
X108074500Y-117981382D01*
X108074500Y-118093418D01*
X108103497Y-118201637D01*
X108159515Y-118298663D01*
X119892115Y-130031263D01*
X119971337Y-130110485D01*
X120068363Y-130166503D01*
X120176582Y-130195500D01*
X124780823Y-130195500D01*
X124847862Y-130215185D01*
X124857413Y-130221981D01*
X124870619Y-130232353D01*
X124877850Y-130242150D01*
X124964814Y-130306332D01*
X124966277Y-130307481D01*
X124985522Y-130334470D01*
X125005571Y-130360877D01*
X125005721Y-130362799D01*
X125006841Y-130364369D01*
X125008439Y-130397474D01*
X125011030Y-130430534D01*
X125010117Y-130432233D01*
X125010210Y-130434158D01*
X124993649Y-130462883D01*
X124977962Y-130492083D01*
X124975672Y-130494066D01*
X124975314Y-130494689D01*
X124974424Y-130495148D01*
X124963321Y-130504769D01*
X124948637Y-130515607D01*
X124877850Y-130567850D01*
X124797207Y-130677117D01*
X124797206Y-130677119D01*
X124752353Y-130805298D01*
X124752353Y-130805300D01*
X124749500Y-130835730D01*
X124749500Y-131244269D01*
X124752353Y-131274699D01*
X124752353Y-131274701D01*
X124797206Y-131402880D01*
X124797207Y-131402882D01*
X124877850Y-131512150D01*
X124963321Y-131575230D01*
X125005571Y-131630877D01*
X125011030Y-131700534D01*
X124977962Y-131762083D01*
X124963321Y-131774770D01*
X124877850Y-131837850D01*
X124797207Y-131947117D01*
X124797206Y-131947119D01*
X124752353Y-132075298D01*
X124752353Y-132075300D01*
X124749500Y-132105730D01*
X124749500Y-132514269D01*
X124752353Y-132544699D01*
X124752353Y-132544701D01*
X124797206Y-132672880D01*
X124797207Y-132672882D01*
X124877850Y-132782150D01*
X124987118Y-132862793D01*
X125020992Y-132874646D01*
X125115299Y-132907646D01*
X125145730Y-132910500D01*
X125145734Y-132910500D01*
X125972390Y-132910500D01*
X126039429Y-132930185D01*
X126060071Y-132946819D01*
X130513981Y-137400729D01*
X130547466Y-137462052D01*
X130550300Y-137488410D01*
X130550300Y-141673996D01*
X130530615Y-141741035D01*
X130477811Y-141786790D01*
X130408653Y-141796734D01*
X130370005Y-141784481D01*
X130211639Y-141703788D01*
X130211636Y-141703787D01*
X130039410Y-141647829D01*
X129860551Y-141619500D01*
X129860546Y-141619500D01*
X129679454Y-141619500D01*
X129679449Y-141619500D01*
X129500589Y-141647829D01*
X129383402Y-141685905D01*
X129313560Y-141687900D01*
X129257403Y-141655655D01*
X116538853Y-128937105D01*
X116505368Y-128875782D01*
X116509878Y-128812711D01*
X116508361Y-128812251D01*
X116510125Y-128806430D01*
X116510130Y-128806420D01*
X116550500Y-128603465D01*
X116550500Y-128396535D01*
X116510130Y-128193580D01*
X116430941Y-128002402D01*
X116315977Y-127830345D01*
X116315975Y-127830342D01*
X116169657Y-127684024D01*
X116019942Y-127583989D01*
X115997598Y-127569059D01*
X115892435Y-127525499D01*
X115806420Y-127489870D01*
X115806412Y-127489868D01*
X115603469Y-127449500D01*
X115603465Y-127449500D01*
X115396535Y-127449500D01*
X115396530Y-127449500D01*
X115193587Y-127489868D01*
X115193579Y-127489870D01*
X115002403Y-127569058D01*
X114830342Y-127684024D01*
X114684024Y-127830342D01*
X114569058Y-128002403D01*
X114489870Y-128193579D01*
X114489868Y-128193587D01*
X114449500Y-128396530D01*
X114449500Y-128603469D01*
X114489868Y-128806412D01*
X114489870Y-128806420D01*
X114569058Y-128997596D01*
X114684024Y-129169657D01*
X114830342Y-129315975D01*
X114830345Y-129315977D01*
X115002402Y-129430941D01*
X115193580Y-129510130D01*
X115396530Y-129550499D01*
X115396534Y-129550500D01*
X115396535Y-129550500D01*
X115603466Y-129550500D01*
X115603467Y-129550499D01*
X115806420Y-129510130D01*
X115806430Y-129510125D01*
X115812251Y-129508361D01*
X115812987Y-129510789D01*
X115871436Y-129504503D01*
X115933916Y-129535776D01*
X115937105Y-129538853D01*
X128655655Y-142257403D01*
X128689140Y-142318726D01*
X128685905Y-142383402D01*
X128647829Y-142500589D01*
X128619500Y-142679448D01*
X128619500Y-142860551D01*
X128647829Y-143039410D01*
X128703787Y-143211636D01*
X128703788Y-143211639D01*
X128786006Y-143372997D01*
X128818422Y-143417615D01*
X128841902Y-143483422D01*
X128826076Y-143551475D01*
X128775970Y-143600170D01*
X128718104Y-143614500D01*
X128443979Y-143614500D01*
X128396199Y-143627302D01*
X128396200Y-143627303D01*
X128335761Y-143643497D01*
X128335760Y-143643498D01*
X128238740Y-143699513D01*
X128238734Y-143699517D01*
X128159513Y-143778739D01*
X127742596Y-144195655D01*
X127681273Y-144229140D01*
X127616597Y-144225905D01*
X127499410Y-144187829D01*
X127320551Y-144159500D01*
X127320546Y-144159500D01*
X127139454Y-144159500D01*
X127139449Y-144159500D01*
X126960589Y-144187829D01*
X126788363Y-144243787D01*
X126788360Y-144243788D01*
X126627002Y-144326006D01*
X126480505Y-144432441D01*
X126480500Y-144432445D01*
X126352445Y-144560500D01*
X126352441Y-144560505D01*
X126246006Y-144707002D01*
X126163788Y-144868360D01*
X126163787Y-144868363D01*
X126107829Y-145040589D01*
X126079500Y-145219448D01*
X126079500Y-145400551D01*
X126107829Y-145579410D01*
X126163787Y-145751636D01*
X126163788Y-145751639D01*
X126246006Y-145912997D01*
X126325647Y-146022615D01*
X126349127Y-146088421D01*
X126333301Y-146156475D01*
X126283195Y-146205170D01*
X126225329Y-146219500D01*
X109367305Y-146219500D01*
X109321816Y-146210855D01*
X109256564Y-146185123D01*
X109256563Y-146185122D01*
X109256561Y-146185122D01*
X109210926Y-146179642D01*
X109168102Y-146174500D01*
X107831898Y-146174500D01*
X107792853Y-146179188D01*
X107743438Y-146185122D01*
X107602656Y-146240639D01*
X107482077Y-146332077D01*
X107390639Y-146452656D01*
X107335122Y-146593438D01*
X107334001Y-146602778D01*
X107324500Y-146681898D01*
X107324500Y-147518102D01*
X107330126Y-147564954D01*
X107335122Y-147606561D01*
X107390639Y-147747343D01*
X107482077Y-147867922D01*
X107602656Y-147959360D01*
X107602657Y-147959360D01*
X107602658Y-147959361D01*
X107743436Y-148014877D01*
X107831898Y-148025500D01*
X107831903Y-148025500D01*
X109168097Y-148025500D01*
X109168102Y-148025500D01*
X109256564Y-148014877D01*
X109397342Y-147959361D01*
X109517922Y-147867922D01*
X109609361Y-147747342D01*
X109664877Y-147606564D01*
X109675500Y-147518102D01*
X109675500Y-147194500D01*
X109695185Y-147127461D01*
X109747989Y-147081706D01*
X109799500Y-147070500D01*
X126133589Y-147070500D01*
X126200628Y-147090185D01*
X126246383Y-147142989D01*
X126256327Y-147212147D01*
X126244073Y-147250796D01*
X126163790Y-147408355D01*
X126163787Y-147408363D01*
X126107829Y-147580589D01*
X126079500Y-147759448D01*
X126079500Y-147940551D01*
X126108095Y-148121091D01*
X126099141Y-148190384D01*
X126073303Y-148228170D01*
X124988294Y-149313181D01*
X124926971Y-149346666D01*
X124900613Y-149349500D01*
X113406035Y-149349500D01*
X113338996Y-149329815D01*
X113306768Y-149299810D01*
X113282550Y-149267458D01*
X113282547Y-149267455D01*
X113282546Y-149267454D01*
X113262781Y-149252658D01*
X113167335Y-149181206D01*
X113167328Y-149181202D01*
X113032486Y-149130910D01*
X113032485Y-149130909D01*
X113032483Y-149130909D01*
X112972873Y-149124500D01*
X112972863Y-149124500D01*
X112477129Y-149124500D01*
X112477123Y-149124501D01*
X112417516Y-149130908D01*
X112282671Y-149181202D01*
X112282664Y-149181206D01*
X112167455Y-149267452D01*
X112167452Y-149267455D01*
X112081206Y-149382664D01*
X112081202Y-149382671D01*
X112030910Y-149517513D01*
X112030909Y-149517517D01*
X112024500Y-149577127D01*
X112024500Y-149577134D01*
X112024500Y-149577135D01*
X112024500Y-150222870D01*
X112024501Y-150222876D01*
X112030908Y-150282483D01*
X112081202Y-150417328D01*
X112081206Y-150417335D01*
X112167452Y-150532544D01*
X112167455Y-150532547D01*
X112282664Y-150618793D01*
X112282671Y-150618797D01*
X112327618Y-150635561D01*
X112417517Y-150669091D01*
X112477127Y-150675500D01*
X112972872Y-150675499D01*
X113032483Y-150669091D01*
X113167331Y-150618796D01*
X113282546Y-150532546D01*
X113306768Y-150500190D01*
X113362701Y-150458318D01*
X113406035Y-150450500D01*
X125252472Y-150450500D01*
X125252474Y-150450500D01*
X125252475Y-150450500D01*
X125392485Y-150412984D01*
X125398544Y-150409485D01*
X125403606Y-150406564D01*
X125503542Y-150348866D01*
X125518015Y-150340510D01*
X126851829Y-149006694D01*
X126913150Y-148973211D01*
X126958906Y-148971904D01*
X126960590Y-148972170D01*
X126960591Y-148972171D01*
X126975296Y-148974500D01*
X127139449Y-149000500D01*
X127139454Y-149000500D01*
X127320550Y-149000500D01*
X127417639Y-148985122D01*
X127499409Y-148972171D01*
X127499412Y-148972169D01*
X127501091Y-148971904D01*
X127570385Y-148980858D01*
X127608171Y-149006696D01*
X128941985Y-150340510D01*
X128941986Y-150340511D01*
X128941988Y-150340512D01*
X129056394Y-150406564D01*
X129065686Y-150411928D01*
X129067515Y-150412984D01*
X129207525Y-150450500D01*
X129207526Y-150450500D01*
X129352474Y-150450500D01*
X143593965Y-150450500D01*
X143661004Y-150470185D01*
X143693232Y-150500190D01*
X143717449Y-150532541D01*
X143717452Y-150532544D01*
X143717454Y-150532546D01*
X143717457Y-150532548D01*
X143832664Y-150618793D01*
X143832671Y-150618797D01*
X143877618Y-150635561D01*
X143967517Y-150669091D01*
X144027127Y-150675500D01*
X144522872Y-150675499D01*
X144582483Y-150669091D01*
X144717331Y-150618796D01*
X144832546Y-150532546D01*
X144918796Y-150417331D01*
X144969091Y-150282483D01*
X144975500Y-150222873D01*
X144975499Y-149577128D01*
X144975499Y-149577127D01*
X145224500Y-149577127D01*
X145224500Y-149577134D01*
X145224500Y-149577135D01*
X145224500Y-150222870D01*
X145224501Y-150222876D01*
X145230908Y-150282483D01*
X145281202Y-150417328D01*
X145281206Y-150417335D01*
X145367452Y-150532544D01*
X145367455Y-150532547D01*
X145482664Y-150618793D01*
X145482671Y-150618797D01*
X145527618Y-150635561D01*
X145617517Y-150669091D01*
X145677127Y-150675500D01*
X146172872Y-150675499D01*
X146232483Y-150669091D01*
X146367331Y-150618796D01*
X146482546Y-150532546D01*
X146568796Y-150417331D01*
X146572960Y-150406165D01*
X146614829Y-150350234D01*
X146680293Y-150325816D01*
X146689141Y-150325500D01*
X147218761Y-150325500D01*
X147285800Y-150345185D01*
X147331555Y-150397989D01*
X147334115Y-150404010D01*
X147390637Y-150547339D01*
X147390638Y-150547341D01*
X147482077Y-150667922D01*
X147602656Y-150759360D01*
X147602657Y-150759360D01*
X147602658Y-150759361D01*
X147743436Y-150814877D01*
X147831898Y-150825500D01*
X147831903Y-150825500D01*
X149168097Y-150825500D01*
X149168102Y-150825500D01*
X149256564Y-150814877D01*
X149397342Y-150759361D01*
X149517922Y-150667922D01*
X149609361Y-150547342D01*
X149664877Y-150406564D01*
X149675500Y-150318102D01*
X149675500Y-149481898D01*
X149664877Y-149393436D01*
X149609361Y-149252658D01*
X149609360Y-149252657D01*
X149609360Y-149252656D01*
X149517922Y-149132077D01*
X149397343Y-149040639D01*
X149256561Y-148985122D01*
X149210926Y-148979642D01*
X149168102Y-148974500D01*
X147831898Y-148974500D01*
X147792853Y-148979188D01*
X147743438Y-148985122D01*
X147602656Y-149040639D01*
X147482077Y-149132077D01*
X147390638Y-149252658D01*
X147390637Y-149252660D01*
X147334115Y-149395990D01*
X147291209Y-149451134D01*
X147225302Y-149474327D01*
X147218761Y-149474500D01*
X146689141Y-149474500D01*
X146622102Y-149454815D01*
X146576347Y-149402011D01*
X146572969Y-149393859D01*
X146568796Y-149382669D01*
X146568793Y-149382665D01*
X146568793Y-149382664D01*
X146482547Y-149267455D01*
X146482544Y-149267452D01*
X146367335Y-149181206D01*
X146367328Y-149181202D01*
X146232486Y-149130910D01*
X146232485Y-149130909D01*
X146232483Y-149130909D01*
X146172873Y-149124500D01*
X146172863Y-149124500D01*
X145677129Y-149124500D01*
X145677123Y-149124501D01*
X145617516Y-149130908D01*
X145482671Y-149181202D01*
X145482664Y-149181206D01*
X145367455Y-149267452D01*
X145367452Y-149267455D01*
X145281206Y-149382664D01*
X145281202Y-149382671D01*
X145230910Y-149517513D01*
X145230909Y-149517517D01*
X145224500Y-149577127D01*
X144975499Y-149577127D01*
X144969091Y-149517517D01*
X144952982Y-149474327D01*
X144918797Y-149382671D01*
X144918793Y-149382664D01*
X144832547Y-149267455D01*
X144832544Y-149267452D01*
X144717335Y-149181206D01*
X144717328Y-149181202D01*
X144582486Y-149130910D01*
X144582485Y-149130909D01*
X144582483Y-149130909D01*
X144522873Y-149124500D01*
X144522863Y-149124500D01*
X144027129Y-149124500D01*
X144027123Y-149124501D01*
X143967516Y-149130908D01*
X143832671Y-149181202D01*
X143832664Y-149181206D01*
X143717457Y-149267451D01*
X143717449Y-149267458D01*
X143693232Y-149299810D01*
X143637299Y-149341682D01*
X143593965Y-149349500D01*
X129559387Y-149349500D01*
X129529946Y-149340855D01*
X129499960Y-149334332D01*
X129494944Y-149330577D01*
X129492348Y-149329815D01*
X129471706Y-149313181D01*
X129370706Y-149212181D01*
X129337221Y-149150858D01*
X129342205Y-149081166D01*
X129384077Y-149025233D01*
X129449541Y-149000816D01*
X129458387Y-149000500D01*
X130413097Y-149000500D01*
X130413102Y-149000500D01*
X130501564Y-148989877D01*
X130642342Y-148934361D01*
X130762922Y-148842922D01*
X130854361Y-148722342D01*
X130909877Y-148581564D01*
X130920500Y-148493102D01*
X130920500Y-147352609D01*
X130940185Y-147285571D01*
X130956819Y-147264929D01*
X131151248Y-147070500D01*
X131823085Y-146398663D01*
X131879103Y-146301637D01*
X131908100Y-146193419D01*
X131908100Y-146081382D01*
X131908100Y-132987440D01*
X131927785Y-132920401D01*
X131980589Y-132874646D01*
X131991131Y-132870403D01*
X132012882Y-132862793D01*
X132122150Y-132782150D01*
X132202793Y-132672882D01*
X132225219Y-132608790D01*
X132247646Y-132544701D01*
X132247646Y-132544699D01*
X132250500Y-132514269D01*
X132250500Y-132224500D01*
X132270185Y-132157461D01*
X132322989Y-132111706D01*
X132374500Y-132100500D01*
X132847390Y-132100500D01*
X132914429Y-132120185D01*
X132935071Y-132136819D01*
X147298566Y-146500314D01*
X147332051Y-146561637D01*
X147334001Y-146602778D01*
X147324500Y-146681898D01*
X147324500Y-147518102D01*
X147330126Y-147564954D01*
X147335122Y-147606561D01*
X147390639Y-147747343D01*
X147482077Y-147867922D01*
X147602656Y-147959360D01*
X147602657Y-147959360D01*
X147602658Y-147959361D01*
X147743436Y-148014877D01*
X147831898Y-148025500D01*
X147831903Y-148025500D01*
X149168097Y-148025500D01*
X149168102Y-148025500D01*
X149256564Y-148014877D01*
X149397342Y-147959361D01*
X149517922Y-147867922D01*
X149609361Y-147747342D01*
X149664877Y-147606564D01*
X149675500Y-147518102D01*
X149675500Y-146681898D01*
X149664877Y-146593436D01*
X149609361Y-146452658D01*
X149609360Y-146452657D01*
X149609360Y-146452656D01*
X149517922Y-146332077D01*
X149397343Y-146240639D01*
X149256561Y-146185122D01*
X149210926Y-146179642D01*
X149168102Y-146174500D01*
X149168097Y-146174500D01*
X148227610Y-146174500D01*
X148160571Y-146154815D01*
X148139929Y-146138181D01*
X133336265Y-131334517D01*
X133336263Y-131334515D01*
X133239237Y-131278497D01*
X133131018Y-131249500D01*
X133131017Y-131249500D01*
X132374500Y-131249500D01*
X132307461Y-131229815D01*
X132261706Y-131177011D01*
X132250500Y-131125500D01*
X132250500Y-130835730D01*
X132247646Y-130805300D01*
X132247646Y-130805298D01*
X132202793Y-130677119D01*
X132202792Y-130677117D01*
X132122150Y-130567850D01*
X132036677Y-130504768D01*
X131994428Y-130449123D01*
X131988969Y-130379467D01*
X132022036Y-130317917D01*
X132036670Y-130305236D01*
X132122150Y-130242150D01*
X132202793Y-130132882D01*
X132238351Y-130031263D01*
X132247646Y-130004701D01*
X132247646Y-130004699D01*
X132250500Y-129974269D01*
X132250500Y-129565730D01*
X132247646Y-129535300D01*
X132247646Y-129535298D01*
X132202793Y-129407119D01*
X132202792Y-129407117D01*
X132202791Y-129407116D01*
X132122150Y-129297850D01*
X132036677Y-129234768D01*
X131994428Y-129179123D01*
X131988969Y-129109467D01*
X132022036Y-129047917D01*
X132036670Y-129035236D01*
X132122150Y-128972150D01*
X132202793Y-128862882D01*
X132225219Y-128798790D01*
X132247646Y-128734701D01*
X132247646Y-128734699D01*
X132250500Y-128704269D01*
X132250500Y-128295730D01*
X132247646Y-128265300D01*
X132247646Y-128265298D01*
X132202793Y-128137119D01*
X132202792Y-128137117D01*
X132122150Y-128027850D01*
X132087670Y-128002403D01*
X132036677Y-127964768D01*
X131994428Y-127909123D01*
X131988969Y-127839467D01*
X132022036Y-127777917D01*
X132036670Y-127765236D01*
X132122150Y-127702150D01*
X132202793Y-127592882D01*
X132226371Y-127525499D01*
X132247646Y-127464701D01*
X132247646Y-127464699D01*
X132250500Y-127434269D01*
X132250500Y-127025730D01*
X132247646Y-126995300D01*
X132247646Y-126995298D01*
X132202793Y-126867119D01*
X132202792Y-126867117D01*
X132122150Y-126757850D01*
X132036677Y-126694768D01*
X131994428Y-126639123D01*
X131988969Y-126569467D01*
X132022036Y-126507917D01*
X132036670Y-126495236D01*
X132122150Y-126432150D01*
X132202793Y-126322882D01*
X132225219Y-126258790D01*
X132247646Y-126194701D01*
X132247646Y-126194699D01*
X132250500Y-126164269D01*
X132250500Y-125755730D01*
X132247646Y-125725300D01*
X132247646Y-125725298D01*
X132202793Y-125597119D01*
X132202792Y-125597117D01*
X132122150Y-125487850D01*
X132012882Y-125407207D01*
X132012880Y-125407206D01*
X131884700Y-125362353D01*
X131854270Y-125359500D01*
X131854266Y-125359500D01*
X130095734Y-125359500D01*
X130095730Y-125359500D01*
X130065300Y-125362353D01*
X130065298Y-125362353D01*
X129937119Y-125407206D01*
X129937117Y-125407207D01*
X129827850Y-125487850D01*
X129747207Y-125597117D01*
X129747206Y-125597119D01*
X129702353Y-125725298D01*
X129702353Y-125725300D01*
X129699500Y-125755730D01*
X129699500Y-126164269D01*
X129702353Y-126194699D01*
X129702353Y-126194701D01*
X129747206Y-126322880D01*
X129747207Y-126322882D01*
X129827850Y-126432150D01*
X129913321Y-126495230D01*
X129955571Y-126550877D01*
X129961030Y-126620534D01*
X129927962Y-126682083D01*
X129913321Y-126694769D01*
X129827850Y-126757850D01*
X129747207Y-126867117D01*
X129747206Y-126867119D01*
X129702353Y-126995298D01*
X129702353Y-126995300D01*
X129699500Y-127025730D01*
X129699500Y-127434269D01*
X129702353Y-127464699D01*
X129702353Y-127464701D01*
X129744095Y-127583989D01*
X129747207Y-127592882D01*
X129827850Y-127702150D01*
X129913321Y-127765230D01*
X129955571Y-127820877D01*
X129961030Y-127890534D01*
X129927962Y-127952083D01*
X129913321Y-127964769D01*
X129862331Y-128002402D01*
X129827850Y-128027850D01*
X129747207Y-128137117D01*
X129747206Y-128137119D01*
X129702353Y-128265298D01*
X129702353Y-128265300D01*
X129699500Y-128295730D01*
X129699500Y-128704269D01*
X129702353Y-128734699D01*
X129702353Y-128734701D01*
X129747206Y-128862880D01*
X129747207Y-128862882D01*
X129827850Y-128972150D01*
X129913321Y-129035230D01*
X129955571Y-129090877D01*
X129961030Y-129160534D01*
X129927962Y-129222083D01*
X129913321Y-129234769D01*
X129846672Y-129283959D01*
X129827850Y-129297850D01*
X129747207Y-129407117D01*
X129747206Y-129407119D01*
X129702353Y-129535298D01*
X129702353Y-129535300D01*
X129699500Y-129565730D01*
X129699500Y-129974269D01*
X129702353Y-130004699D01*
X129702353Y-130004701D01*
X129730230Y-130084365D01*
X129733793Y-130154144D01*
X129699064Y-130214771D01*
X129637071Y-130246999D01*
X129567495Y-130240594D01*
X129565736Y-130239881D01*
X129522521Y-130221981D01*
X129494652Y-130210437D01*
X129494648Y-130210436D01*
X129494644Y-130210435D01*
X129373810Y-130186400D01*
X129373806Y-130186400D01*
X129250594Y-130186400D01*
X129250589Y-130186400D01*
X129129755Y-130210435D01*
X129129745Y-130210438D01*
X129015916Y-130257587D01*
X129015907Y-130257592D01*
X128913467Y-130326041D01*
X128913463Y-130326044D01*
X128826344Y-130413163D01*
X128826341Y-130413167D01*
X128757892Y-130515607D01*
X128757887Y-130515616D01*
X128710738Y-130629445D01*
X128710735Y-130629455D01*
X128686700Y-130750289D01*
X128686700Y-130873510D01*
X128710735Y-130994344D01*
X128710738Y-130994354D01*
X128745405Y-131078047D01*
X128752874Y-131147516D01*
X128721599Y-131209996D01*
X128661510Y-131245648D01*
X128630844Y-131249500D01*
X127424500Y-131249500D01*
X127357461Y-131229815D01*
X127311706Y-131177011D01*
X127300500Y-131125500D01*
X127300500Y-130875309D01*
X127320185Y-130808270D01*
X127336819Y-130787628D01*
X128040082Y-130084365D01*
X128840485Y-129283963D01*
X128896503Y-129186937D01*
X128925500Y-129078718D01*
X128925500Y-128966682D01*
X128925500Y-125730610D01*
X128945185Y-125663571D01*
X128961819Y-125642929D01*
X130170029Y-124434719D01*
X130231352Y-124401234D01*
X130257710Y-124398400D01*
X134483116Y-124398400D01*
X134483118Y-124398400D01*
X134591337Y-124369403D01*
X134688363Y-124313385D01*
X148139929Y-110861819D01*
X148201252Y-110828334D01*
X148227610Y-110825500D01*
X149168097Y-110825500D01*
X149168102Y-110825500D01*
X149256564Y-110814877D01*
X149397342Y-110759361D01*
X149517922Y-110667922D01*
X149609361Y-110547342D01*
X149664877Y-110406564D01*
X149675500Y-110318102D01*
X149675500Y-109481898D01*
X149664877Y-109393436D01*
X149609361Y-109252658D01*
X149609360Y-109252657D01*
X149609360Y-109252656D01*
X149517922Y-109132077D01*
X149397343Y-109040639D01*
X149256561Y-108985122D01*
X149210926Y-108979642D01*
X149168102Y-108974500D01*
X147831898Y-108974500D01*
X147792853Y-108979188D01*
X147743438Y-108985122D01*
X147602656Y-109040639D01*
X147482077Y-109132077D01*
X147390639Y-109252656D01*
X147335122Y-109393438D01*
X147330969Y-109428025D01*
X147324500Y-109481898D01*
X147324500Y-110318102D01*
X147326074Y-110331206D01*
X147334001Y-110397219D01*
X147322449Y-110466128D01*
X147298566Y-110499684D01*
X134287171Y-123511081D01*
X134225848Y-123544566D01*
X134199490Y-123547400D01*
X130086118Y-123547400D01*
X129974081Y-123547400D01*
X129865863Y-123576397D01*
X129865861Y-123576398D01*
X129865860Y-123576398D01*
X129768840Y-123632413D01*
X129768834Y-123632417D01*
X128778098Y-124623153D01*
X128716775Y-124656638D01*
X128647083Y-124651654D01*
X128591150Y-124609782D01*
X128566733Y-124544318D01*
X128568799Y-124511285D01*
X128578900Y-124460506D01*
X128578900Y-124337294D01*
X128554863Y-124216448D01*
X128507711Y-124102614D01*
X128507710Y-124102613D01*
X128507707Y-124102607D01*
X128439258Y-124000167D01*
X128439255Y-124000163D01*
X128352136Y-123913044D01*
X128352132Y-123913041D01*
X128280631Y-123865265D01*
X128235826Y-123811652D01*
X128227119Y-123742327D01*
X128257274Y-123679300D01*
X128274597Y-123663359D01*
X128325078Y-123625078D01*
X128361994Y-123576397D01*
X128412364Y-123509975D01*
X128465359Y-123375590D01*
X128475500Y-123291144D01*
X128475500Y-122933587D01*
X128495185Y-122866548D01*
X128511819Y-122845906D01*
X138370906Y-112986819D01*
X138432229Y-112953334D01*
X138458587Y-112950500D01*
X139853620Y-112950500D01*
X139920659Y-112970185D01*
X139966414Y-113022989D01*
X139968974Y-113029010D01*
X140015637Y-113147339D01*
X140015638Y-113147341D01*
X140107077Y-113267922D01*
X140227656Y-113359360D01*
X140227657Y-113359360D01*
X140227658Y-113359361D01*
X140368436Y-113414877D01*
X140456898Y-113425500D01*
X140456903Y-113425500D01*
X141043097Y-113425500D01*
X141043102Y-113425500D01*
X141131564Y-113414877D01*
X141272342Y-113359361D01*
X141392922Y-113267922D01*
X141484361Y-113147342D01*
X141539877Y-113006564D01*
X141550500Y-112918102D01*
X141550500Y-111881898D01*
X141539877Y-111793436D01*
X141484361Y-111652658D01*
X141484360Y-111652657D01*
X141484360Y-111652656D01*
X141392925Y-111532082D01*
X141392922Y-111532078D01*
X141392917Y-111532074D01*
X141386928Y-111526085D01*
X141388226Y-111524786D01*
X141352973Y-111477084D01*
X141348417Y-111407363D01*
X141381736Y-111346788D01*
X142391706Y-110336819D01*
X142453029Y-110303334D01*
X142479387Y-110300500D01*
X142816138Y-110300500D01*
X142816144Y-110300500D01*
X142900590Y-110290359D01*
X143034975Y-110237364D01*
X143150078Y-110150078D01*
X143237364Y-110034975D01*
X143290359Y-109900590D01*
X143300500Y-109816144D01*
X143300500Y-109479387D01*
X143320185Y-109412348D01*
X143336819Y-109391706D01*
X143990889Y-108737636D01*
X144715510Y-108013015D01*
X144787984Y-107887485D01*
X144792913Y-107869091D01*
X144793227Y-107867920D01*
X144810200Y-107804575D01*
X144821617Y-107761965D01*
X144842121Y-107719754D01*
X144918796Y-107617331D01*
X144969091Y-107482483D01*
X144975500Y-107422873D01*
X144975499Y-106777128D01*
X144975499Y-106777127D01*
X145224500Y-106777127D01*
X145224500Y-106777134D01*
X145224500Y-106777135D01*
X145224500Y-107422870D01*
X145224501Y-107422876D01*
X145230908Y-107482483D01*
X145281202Y-107617328D01*
X145281206Y-107617335D01*
X145367452Y-107732544D01*
X145367455Y-107732547D01*
X145482664Y-107818793D01*
X145482671Y-107818797D01*
X145520792Y-107833015D01*
X145617517Y-107869091D01*
X145677127Y-107875500D01*
X146172872Y-107875499D01*
X146232483Y-107869091D01*
X146367331Y-107818796D01*
X146482546Y-107732546D01*
X146568796Y-107617331D01*
X146572960Y-107606165D01*
X146614829Y-107550234D01*
X146680293Y-107525816D01*
X146689141Y-107525500D01*
X147218761Y-107525500D01*
X147285800Y-107545185D01*
X147331555Y-107597989D01*
X147334115Y-107604010D01*
X147390637Y-107747339D01*
X147390638Y-107747341D01*
X147482077Y-107867922D01*
X147602656Y-107959360D01*
X147602657Y-107959360D01*
X147602658Y-107959361D01*
X147743436Y-108014877D01*
X147831898Y-108025500D01*
X147831903Y-108025500D01*
X149168097Y-108025500D01*
X149168102Y-108025500D01*
X149256564Y-108014877D01*
X149397342Y-107959361D01*
X149517922Y-107867922D01*
X149609361Y-107747342D01*
X149664877Y-107606564D01*
X149675500Y-107518102D01*
X149675500Y-106681898D01*
X149664877Y-106593436D01*
X149609361Y-106452658D01*
X149609360Y-106452657D01*
X149609360Y-106452656D01*
X149517922Y-106332077D01*
X149397343Y-106240639D01*
X149256561Y-106185122D01*
X149210926Y-106179642D01*
X149168102Y-106174500D01*
X147831898Y-106174500D01*
X147792853Y-106179188D01*
X147743438Y-106185122D01*
X147602656Y-106240639D01*
X147482077Y-106332077D01*
X147390638Y-106452658D01*
X147390637Y-106452660D01*
X147334115Y-106595990D01*
X147291209Y-106651134D01*
X147225302Y-106674327D01*
X147218761Y-106674500D01*
X146689141Y-106674500D01*
X146622102Y-106654815D01*
X146576347Y-106602011D01*
X146572969Y-106593859D01*
X146568796Y-106582669D01*
X146568793Y-106582665D01*
X146568793Y-106582664D01*
X146482547Y-106467455D01*
X146482544Y-106467452D01*
X146367335Y-106381206D01*
X146367328Y-106381202D01*
X146232486Y-106330910D01*
X146232485Y-106330909D01*
X146232483Y-106330909D01*
X146172873Y-106324500D01*
X146172863Y-106324500D01*
X145677129Y-106324500D01*
X145677123Y-106324501D01*
X145617516Y-106330908D01*
X145482671Y-106381202D01*
X145482664Y-106381206D01*
X145367455Y-106467452D01*
X145367452Y-106467455D01*
X145281206Y-106582664D01*
X145281202Y-106582671D01*
X145230910Y-106717513D01*
X145230909Y-106717517D01*
X145224500Y-106777127D01*
X144975499Y-106777127D01*
X144969091Y-106717517D01*
X144957694Y-106686961D01*
X144918797Y-106582671D01*
X144918793Y-106582664D01*
X144832547Y-106467455D01*
X144832544Y-106467452D01*
X144717335Y-106381206D01*
X144717328Y-106381202D01*
X144582486Y-106330910D01*
X144582485Y-106330909D01*
X144582483Y-106330909D01*
X144522873Y-106324500D01*
X144522863Y-106324500D01*
X144027129Y-106324500D01*
X144027123Y-106324501D01*
X143967516Y-106330908D01*
X143832671Y-106381202D01*
X143832664Y-106381206D01*
X143717455Y-106467452D01*
X143717452Y-106467455D01*
X143631206Y-106582664D01*
X143631202Y-106582671D01*
X143580910Y-106717513D01*
X143580909Y-106717517D01*
X143574500Y-106777127D01*
X143574500Y-106777134D01*
X143574500Y-106777135D01*
X143574500Y-107422870D01*
X143574501Y-107422876D01*
X143580909Y-107482484D01*
X143582423Y-107486544D01*
X143582663Y-107489911D01*
X143582692Y-107490031D01*
X143582672Y-107490035D01*
X143587404Y-107556236D01*
X143553920Y-107617553D01*
X142708294Y-108463181D01*
X142646971Y-108496666D01*
X142620613Y-108499500D01*
X142283856Y-108499500D01*
X142245841Y-108504065D01*
X142199411Y-108509640D01*
X142065023Y-108562636D01*
X141949921Y-108649921D01*
X141862636Y-108765023D01*
X141809640Y-108899411D01*
X141805825Y-108931188D01*
X141799500Y-108983856D01*
X141799500Y-108983862D01*
X141799500Y-109320613D01*
X141779815Y-109387652D01*
X141763181Y-109408294D01*
X140309491Y-110861983D01*
X140309489Y-110861986D01*
X140237016Y-110987514D01*
X140237016Y-110987515D01*
X140199500Y-111127525D01*
X140199500Y-111127527D01*
X140199500Y-111400402D01*
X140179815Y-111467441D01*
X140150427Y-111499204D01*
X140107080Y-111532075D01*
X140107074Y-111532082D01*
X140015638Y-111652658D01*
X140015637Y-111652660D01*
X139968974Y-111770990D01*
X139926069Y-111826134D01*
X139860161Y-111849327D01*
X139853620Y-111849500D01*
X138106725Y-111849500D01*
X138001717Y-111877637D01*
X137966714Y-111887016D01*
X137841186Y-111959489D01*
X137841183Y-111959491D01*
X132962594Y-116838081D01*
X132901271Y-116871566D01*
X132874913Y-116874400D01*
X123329286Y-116874400D01*
X123262247Y-116854715D01*
X123241605Y-116838081D01*
X113461818Y-107058293D01*
X113428333Y-106996970D01*
X113425499Y-106970612D01*
X113425499Y-106777129D01*
X113425498Y-106777123D01*
X113419091Y-106717516D01*
X113368797Y-106582671D01*
X113368793Y-106582664D01*
X113282547Y-106467455D01*
X113282544Y-106467452D01*
X113167335Y-106381206D01*
X113167328Y-106381202D01*
X113032486Y-106330910D01*
X113032485Y-106330909D01*
X113032483Y-106330909D01*
X112972873Y-106324500D01*
X112972863Y-106324500D01*
X112477129Y-106324500D01*
X112477123Y-106324501D01*
X112417516Y-106330908D01*
X112282671Y-106381202D01*
X112282664Y-106381206D01*
X112167455Y-106467452D01*
X112167452Y-106467455D01*
X112081206Y-106582664D01*
X112081202Y-106582671D01*
X112030910Y-106717513D01*
X112030909Y-106717517D01*
X112024500Y-106777127D01*
X112024500Y-106777134D01*
X112024500Y-106777135D01*
X112024500Y-107422870D01*
X112024501Y-107422876D01*
X112030908Y-107482483D01*
X112081202Y-107617328D01*
X112081206Y-107617335D01*
X112167452Y-107732544D01*
X112167455Y-107732547D01*
X112282664Y-107818793D01*
X112282671Y-107818797D01*
X112320792Y-107833015D01*
X112417517Y-107869091D01*
X112477127Y-107875500D01*
X112670611Y-107875499D01*
X112737651Y-107895183D01*
X112758293Y-107911818D01*
X122711886Y-117865410D01*
X122725315Y-117873163D01*
X122837415Y-117937884D01*
X122977425Y-117975400D01*
X122977426Y-117975400D01*
X123122374Y-117975400D01*
X131525913Y-117975400D01*
X131592952Y-117995085D01*
X131638707Y-118047889D01*
X131648651Y-118117047D01*
X131619626Y-118180603D01*
X131613594Y-118187081D01*
X127612494Y-122188181D01*
X127551171Y-122221666D01*
X127524813Y-122224500D01*
X127458856Y-122224500D01*
X127420841Y-122229065D01*
X127374411Y-122234640D01*
X127240023Y-122287636D01*
X127124921Y-122374921D01*
X127037636Y-122490023D01*
X126984640Y-122624411D01*
X126979065Y-122670841D01*
X126974500Y-122708856D01*
X126974500Y-122708862D01*
X126974500Y-122910613D01*
X126965855Y-122940053D01*
X126959332Y-122970040D01*
X126955577Y-122975055D01*
X126954815Y-122977652D01*
X126938181Y-122998294D01*
X126782485Y-123153990D01*
X126727324Y-123209149D01*
X126727322Y-123209152D01*
X126727319Y-123209154D01*
X126675344Y-123261123D01*
X126675292Y-123261181D01*
X125883294Y-124053181D01*
X125821971Y-124086666D01*
X125795613Y-124089500D01*
X125145730Y-124089500D01*
X125115300Y-124092353D01*
X125115298Y-124092353D01*
X124987119Y-124137206D01*
X124987117Y-124137207D01*
X124877850Y-124217850D01*
X124797207Y-124327117D01*
X124797206Y-124327119D01*
X124752353Y-124455298D01*
X124752353Y-124455300D01*
X124749500Y-124485730D01*
X124749500Y-124500500D01*
X124729815Y-124567539D01*
X124677011Y-124613294D01*
X124625500Y-124624500D01*
X123783231Y-124624500D01*
X123716192Y-124604815D01*
X123708920Y-124599767D01*
X123617331Y-124531204D01*
X123617328Y-124531202D01*
X123482482Y-124480908D01*
X123482483Y-124480908D01*
X123422883Y-124474501D01*
X123422881Y-124474500D01*
X123422873Y-124474500D01*
X123422865Y-124474500D01*
X123229387Y-124474500D01*
X123162348Y-124454815D01*
X123141706Y-124438181D01*
X121763016Y-123059491D01*
X121763015Y-123059490D01*
X121637485Y-122987016D01*
X121637486Y-122987016D01*
X121574130Y-122970040D01*
X121497475Y-122949500D01*
X121497472Y-122949500D01*
X116461873Y-122949500D01*
X116394834Y-122929815D01*
X116358771Y-122894391D01*
X116315975Y-122830342D01*
X116169657Y-122684024D01*
X116080437Y-122624410D01*
X115997598Y-122569059D01*
X115806420Y-122489870D01*
X115806412Y-122489868D01*
X115603469Y-122449500D01*
X115603465Y-122449500D01*
X115396535Y-122449500D01*
X115396530Y-122449500D01*
X115193587Y-122489868D01*
X115193579Y-122489870D01*
X115002403Y-122569058D01*
X114830342Y-122684024D01*
X114684024Y-122830342D01*
X114569057Y-123002404D01*
X114492953Y-123186135D01*
X114449111Y-123240539D01*
X114382817Y-123262603D01*
X114315118Y-123245323D01*
X114290711Y-123226363D01*
X108961819Y-117897471D01*
X108928334Y-117836148D01*
X108925500Y-117809790D01*
X108925500Y-110949500D01*
X108945185Y-110882461D01*
X108997989Y-110836706D01*
X109049500Y-110825500D01*
X109168097Y-110825500D01*
X109168102Y-110825500D01*
X109256564Y-110814877D01*
X109397342Y-110759361D01*
X109517922Y-110667922D01*
X109609361Y-110547342D01*
X109664877Y-110406564D01*
X109675500Y-110318102D01*
X109675500Y-109481898D01*
X109664877Y-109393436D01*
X109609361Y-109252658D01*
X109609360Y-109252657D01*
X109609360Y-109252656D01*
X109517922Y-109132077D01*
X109397343Y-109040639D01*
X109256561Y-108985122D01*
X109210926Y-108979642D01*
X109168102Y-108974500D01*
X107831898Y-108974500D01*
X107792853Y-108979188D01*
X107743438Y-108985122D01*
X107602656Y-109040639D01*
X107482077Y-109132077D01*
X107390639Y-109252656D01*
X107335122Y-109393438D01*
X107330969Y-109428025D01*
X107324500Y-109481898D01*
X100400500Y-109481898D01*
X100400500Y-106681898D01*
X107324500Y-106681898D01*
X107324500Y-107518102D01*
X107328359Y-107550234D01*
X107335122Y-107606561D01*
X107390639Y-107747343D01*
X107482077Y-107867922D01*
X107602656Y-107959360D01*
X107602657Y-107959360D01*
X107602658Y-107959361D01*
X107743436Y-108014877D01*
X107831898Y-108025500D01*
X107831903Y-108025500D01*
X109168097Y-108025500D01*
X109168102Y-108025500D01*
X109256564Y-108014877D01*
X109397342Y-107959361D01*
X109517922Y-107867922D01*
X109609361Y-107747342D01*
X109633842Y-107685264D01*
X109665885Y-107604010D01*
X109708791Y-107548866D01*
X109774698Y-107525673D01*
X109781239Y-107525500D01*
X110310859Y-107525500D01*
X110377898Y-107545185D01*
X110423653Y-107597989D01*
X110427030Y-107606140D01*
X110431204Y-107617331D01*
X110431205Y-107617332D01*
X110431206Y-107617335D01*
X110517452Y-107732544D01*
X110517455Y-107732547D01*
X110632664Y-107818793D01*
X110632671Y-107818797D01*
X110670792Y-107833015D01*
X110767517Y-107869091D01*
X110827127Y-107875500D01*
X111322872Y-107875499D01*
X111382483Y-107869091D01*
X111517331Y-107818796D01*
X111632546Y-107732546D01*
X111718796Y-107617331D01*
X111769091Y-107482483D01*
X111775500Y-107422873D01*
X111775499Y-106777128D01*
X111769091Y-106717517D01*
X111757694Y-106686961D01*
X111718797Y-106582671D01*
X111718793Y-106582664D01*
X111632547Y-106467455D01*
X111632544Y-106467452D01*
X111517335Y-106381206D01*
X111517328Y-106381202D01*
X111382486Y-106330910D01*
X111382485Y-106330909D01*
X111382483Y-106330909D01*
X111322873Y-106324500D01*
X111322863Y-106324500D01*
X110827129Y-106324500D01*
X110827123Y-106324501D01*
X110767516Y-106330908D01*
X110632671Y-106381202D01*
X110632664Y-106381206D01*
X110517455Y-106467452D01*
X110517452Y-106467455D01*
X110431206Y-106582664D01*
X110431204Y-106582668D01*
X110431204Y-106582669D01*
X110427039Y-106593834D01*
X110385171Y-106649766D01*
X110319707Y-106674184D01*
X110310859Y-106674500D01*
X109781239Y-106674500D01*
X109714200Y-106654815D01*
X109668445Y-106602011D01*
X109665885Y-106595990D01*
X109609362Y-106452660D01*
X109609361Y-106452658D01*
X109517922Y-106332077D01*
X109397343Y-106240639D01*
X109256561Y-106185122D01*
X109210926Y-106179642D01*
X109168102Y-106174500D01*
X107831898Y-106174500D01*
X107792853Y-106179188D01*
X107743438Y-106185122D01*
X107602656Y-106240639D01*
X107482077Y-106332077D01*
X107390639Y-106452656D01*
X107335122Y-106593438D01*
X107329188Y-106642853D01*
X107324500Y-106681898D01*
X100400500Y-106681898D01*
X100400500Y-104003052D01*
X100400649Y-103996967D01*
X100406459Y-103878711D01*
X102149500Y-103878711D01*
X102149500Y-104121288D01*
X102181161Y-104361785D01*
X102243947Y-104596104D01*
X102313861Y-104764890D01*
X102336776Y-104820212D01*
X102458064Y-105030289D01*
X102458066Y-105030292D01*
X102458067Y-105030293D01*
X102605733Y-105222736D01*
X102605739Y-105222743D01*
X102777256Y-105394260D01*
X102777262Y-105394265D01*
X102969711Y-105541936D01*
X103179788Y-105663224D01*
X103403900Y-105756054D01*
X103638211Y-105818838D01*
X103818586Y-105842584D01*
X103878711Y-105850500D01*
X103878712Y-105850500D01*
X104121289Y-105850500D01*
X104169388Y-105844167D01*
X104361789Y-105818838D01*
X104596100Y-105756054D01*
X104820212Y-105663224D01*
X105030289Y-105541936D01*
X105222738Y-105394265D01*
X105394265Y-105222738D01*
X105541936Y-105030289D01*
X105619162Y-104896530D01*
X119449500Y-104896530D01*
X119449500Y-105103469D01*
X119489868Y-105306412D01*
X119489870Y-105306420D01*
X119569059Y-105497598D01*
X119604406Y-105550499D01*
X119684024Y-105669657D01*
X119830342Y-105815975D01*
X119830345Y-105815977D01*
X120002402Y-105930941D01*
X120193580Y-106010130D01*
X120372881Y-106045795D01*
X120396530Y-106050499D01*
X120396534Y-106050500D01*
X120396535Y-106050500D01*
X120603466Y-106050500D01*
X120603467Y-106050499D01*
X120806420Y-106010130D01*
X120997598Y-105930941D01*
X121169655Y-105815977D01*
X121315977Y-105669655D01*
X121347158Y-105622989D01*
X121358771Y-105605609D01*
X121412383Y-105560804D01*
X121461873Y-105550500D01*
X122546200Y-105550500D01*
X122613239Y-105570185D01*
X122658994Y-105622989D01*
X122670200Y-105674500D01*
X122670200Y-107743826D01*
X122670200Y-107888774D01*
X122707716Y-108028785D01*
X122780190Y-108154315D01*
X123469585Y-108843710D01*
X123595115Y-108916184D01*
X123735125Y-108953700D01*
X123735126Y-108953700D01*
X123735128Y-108953700D01*
X125790372Y-108953700D01*
X125790374Y-108953700D01*
X125790375Y-108953700D01*
X125930385Y-108916184D01*
X126055915Y-108843710D01*
X126112819Y-108786806D01*
X126174142Y-108753321D01*
X126243834Y-108758305D01*
X126299767Y-108800177D01*
X126324184Y-108865641D01*
X126324500Y-108874487D01*
X126324500Y-110210858D01*
X126304815Y-110277897D01*
X126252011Y-110323652D01*
X126243847Y-110327034D01*
X126232669Y-110331204D01*
X126232664Y-110331206D01*
X126117455Y-110417452D01*
X126117452Y-110417455D01*
X126031206Y-110532664D01*
X126031202Y-110532671D01*
X125980910Y-110667513D01*
X125980909Y-110667517D01*
X125974500Y-110727127D01*
X125974500Y-110727134D01*
X125974500Y-110727135D01*
X125974500Y-111222870D01*
X125974501Y-111222876D01*
X125980908Y-111282483D01*
X126031202Y-111417328D01*
X126031206Y-111417335D01*
X126117452Y-111532544D01*
X126117455Y-111532547D01*
X126232664Y-111618793D01*
X126232671Y-111618797D01*
X126277618Y-111635561D01*
X126367517Y-111669091D01*
X126427127Y-111675500D01*
X127072872Y-111675499D01*
X127132483Y-111669091D01*
X127267331Y-111618796D01*
X127382546Y-111532546D01*
X127468796Y-111417331D01*
X127519091Y-111282483D01*
X127525500Y-111222873D01*
X127525499Y-110727128D01*
X127519091Y-110667517D01*
X127468796Y-110532669D01*
X127468795Y-110532668D01*
X127468793Y-110532664D01*
X127382547Y-110417455D01*
X127382544Y-110417452D01*
X127267335Y-110331206D01*
X127267332Y-110331205D01*
X127267331Y-110331204D01*
X127256161Y-110327038D01*
X127200231Y-110285166D01*
X127175816Y-110219701D01*
X127175500Y-110210858D01*
X127175500Y-108354500D01*
X127195185Y-108287461D01*
X127247989Y-108241706D01*
X127281714Y-108231782D01*
X127290559Y-108230500D01*
X127360636Y-108230500D01*
X127433625Y-108219866D01*
X127462993Y-108205508D01*
X127482214Y-108202723D01*
X127498346Y-108205023D01*
X127514408Y-108202281D01*
X127547743Y-108212068D01*
X127551384Y-108212588D01*
X127552346Y-108213420D01*
X127554458Y-108214040D01*
X127566375Y-108219866D01*
X127639364Y-108230500D01*
X127639370Y-108230500D01*
X127860630Y-108230500D01*
X127860636Y-108230500D01*
X127933625Y-108219866D01*
X127945539Y-108214041D01*
X128014408Y-108202281D01*
X128054458Y-108214040D01*
X128066375Y-108219866D01*
X128139364Y-108230500D01*
X128139370Y-108230500D01*
X128360630Y-108230500D01*
X128360636Y-108230500D01*
X128433625Y-108219866D01*
X128445539Y-108214041D01*
X128514408Y-108202281D01*
X128554458Y-108214040D01*
X128566375Y-108219866D01*
X128639364Y-108230500D01*
X128639370Y-108230500D01*
X128860630Y-108230500D01*
X128860636Y-108230500D01*
X128933625Y-108219866D01*
X128945539Y-108214041D01*
X129014408Y-108202281D01*
X129017786Y-108202723D01*
X129037006Y-108205508D01*
X129066375Y-108219866D01*
X129139364Y-108230500D01*
X129209441Y-108230500D01*
X129218286Y-108231782D01*
X129242252Y-108242760D01*
X129267539Y-108250185D01*
X129273512Y-108257078D01*
X129281809Y-108260879D01*
X129296037Y-108283073D01*
X129313294Y-108302989D01*
X129315600Y-108313590D01*
X129319517Y-108319700D01*
X129319503Y-108331532D01*
X129324500Y-108354500D01*
X129324500Y-110210858D01*
X129304815Y-110277897D01*
X129252011Y-110323652D01*
X129243847Y-110327034D01*
X129232669Y-110331204D01*
X129232664Y-110331206D01*
X129117455Y-110417452D01*
X129117452Y-110417455D01*
X129031206Y-110532664D01*
X129031202Y-110532671D01*
X128980910Y-110667513D01*
X128980909Y-110667517D01*
X128974500Y-110727127D01*
X128974500Y-110727134D01*
X128974500Y-110727135D01*
X128974500Y-111222870D01*
X128974501Y-111222876D01*
X128980908Y-111282483D01*
X129031202Y-111417328D01*
X129031206Y-111417335D01*
X129117452Y-111532544D01*
X129117455Y-111532547D01*
X129232664Y-111618793D01*
X129232671Y-111618797D01*
X129277618Y-111635561D01*
X129367517Y-111669091D01*
X129427127Y-111675500D01*
X130072872Y-111675499D01*
X130132483Y-111669091D01*
X130267331Y-111618796D01*
X130382546Y-111532546D01*
X130468796Y-111417331D01*
X130519091Y-111282483D01*
X130525500Y-111222873D01*
X130525499Y-110727128D01*
X130519091Y-110667517D01*
X130468796Y-110532669D01*
X130468795Y-110532668D01*
X130468793Y-110532664D01*
X130382547Y-110417455D01*
X130382544Y-110417452D01*
X130267335Y-110331206D01*
X130267332Y-110331205D01*
X130267331Y-110331204D01*
X130256161Y-110327038D01*
X130200231Y-110285166D01*
X130175816Y-110219701D01*
X130175500Y-110210858D01*
X130175500Y-108354500D01*
X130178050Y-108345814D01*
X130176762Y-108336853D01*
X130187740Y-108312812D01*
X130195185Y-108287461D01*
X130202025Y-108281533D01*
X130205787Y-108273297D01*
X130228021Y-108259007D01*
X130247989Y-108241706D01*
X130258503Y-108239418D01*
X130264565Y-108235523D01*
X130299500Y-108230500D01*
X130335871Y-108230500D01*
X130402910Y-108250185D01*
X130443257Y-108292499D01*
X130449314Y-108302989D01*
X130459489Y-108320614D01*
X131929557Y-109790682D01*
X131957230Y-109832873D01*
X131987634Y-109909972D01*
X131987634Y-109909973D01*
X132074921Y-110025078D01*
X132190023Y-110112363D01*
X132190024Y-110112363D01*
X132190025Y-110112364D01*
X132324410Y-110165359D01*
X132408856Y-110175500D01*
X132408862Y-110175500D01*
X132991138Y-110175500D01*
X132991144Y-110175500D01*
X133075590Y-110165359D01*
X133209975Y-110112364D01*
X133325078Y-110025078D01*
X133344418Y-109999573D01*
X133400610Y-109958051D01*
X133443221Y-109950500D01*
X133746325Y-109950500D01*
X134403632Y-109950500D01*
X134470671Y-109970185D01*
X134502435Y-109999574D01*
X134523131Y-110026866D01*
X134636865Y-110113113D01*
X134636868Y-110113115D01*
X134769654Y-110165479D01*
X134853098Y-110175500D01*
X135371902Y-110175500D01*
X135455346Y-110165479D01*
X135588132Y-110113115D01*
X135701867Y-110026867D01*
X135788115Y-109913132D01*
X135788117Y-109913126D01*
X135791912Y-109906378D01*
X135841925Y-109857589D01*
X135910376Y-109843583D01*
X135975534Y-109868808D01*
X136008088Y-109906378D01*
X136011886Y-109913134D01*
X136098132Y-110026867D01*
X136211865Y-110113113D01*
X136211868Y-110113115D01*
X136344654Y-110165479D01*
X136428098Y-110175500D01*
X136946902Y-110175500D01*
X137030346Y-110165479D01*
X137163132Y-110113115D01*
X137276867Y-110026867D01*
X137276868Y-110026866D01*
X137297565Y-109999574D01*
X137353757Y-109958051D01*
X137396368Y-109950500D01*
X138444929Y-109950500D01*
X138511968Y-109970185D01*
X138557723Y-110022989D01*
X138560284Y-110029011D01*
X138562635Y-110034975D01*
X138649921Y-110150078D01*
X138765023Y-110237363D01*
X138765024Y-110237363D01*
X138765025Y-110237364D01*
X138899410Y-110290359D01*
X138983856Y-110300500D01*
X138983862Y-110300500D01*
X139516138Y-110300500D01*
X139516144Y-110300500D01*
X139600590Y-110290359D01*
X139734975Y-110237364D01*
X139850078Y-110150078D01*
X139937364Y-110034975D01*
X139990359Y-109900590D01*
X140000500Y-109816144D01*
X140000500Y-108983856D01*
X139990359Y-108899410D01*
X139937364Y-108765025D01*
X139937363Y-108765024D01*
X139937363Y-108765023D01*
X139850078Y-108649921D01*
X139734976Y-108562636D01*
X139600588Y-108509640D01*
X139557242Y-108504435D01*
X139516144Y-108499500D01*
X138983856Y-108499500D01*
X138945841Y-108504065D01*
X138899411Y-108509640D01*
X138765023Y-108562636D01*
X138649921Y-108649921D01*
X138562635Y-108765024D01*
X138560284Y-108770989D01*
X138517378Y-108826133D01*
X138451471Y-108849327D01*
X138444929Y-108849500D01*
X137396368Y-108849500D01*
X137329329Y-108829815D01*
X137297565Y-108800426D01*
X137276868Y-108773133D01*
X137163134Y-108686886D01*
X137163132Y-108686885D01*
X137030346Y-108634521D01*
X137030345Y-108634520D01*
X137030343Y-108634520D01*
X136946902Y-108624500D01*
X136428098Y-108624500D01*
X136344656Y-108634520D01*
X136344655Y-108634520D01*
X136211865Y-108686886D01*
X136098132Y-108773132D01*
X136011884Y-108886868D01*
X136008086Y-108893624D01*
X135958072Y-108942412D01*
X135889620Y-108956416D01*
X135824463Y-108931188D01*
X135791914Y-108893624D01*
X135788115Y-108886868D01*
X135701867Y-108773132D01*
X135588134Y-108686886D01*
X135588132Y-108686885D01*
X135455346Y-108634521D01*
X135455345Y-108634520D01*
X135455343Y-108634520D01*
X135371902Y-108624500D01*
X134853098Y-108624500D01*
X134769656Y-108634520D01*
X134769655Y-108634520D01*
X134636865Y-108686886D01*
X134568225Y-108738938D01*
X134502913Y-108763761D01*
X134434550Y-108749333D01*
X134384839Y-108700235D01*
X134369300Y-108640134D01*
X134369300Y-105749227D01*
X134369300Y-105749225D01*
X134331784Y-105609215D01*
X134297885Y-105550500D01*
X134259310Y-105483685D01*
X133540515Y-104764890D01*
X133414985Y-104692416D01*
X133414986Y-104692416D01*
X133379982Y-104683037D01*
X133274975Y-104654900D01*
X133274972Y-104654900D01*
X123500087Y-104654900D01*
X123433048Y-104635215D01*
X123412406Y-104618581D01*
X123353316Y-104559491D01*
X123353315Y-104559490D01*
X123227785Y-104487016D01*
X123227786Y-104487016D01*
X123192782Y-104477637D01*
X123087775Y-104449500D01*
X123087772Y-104449500D01*
X121461873Y-104449500D01*
X121394834Y-104429815D01*
X121358771Y-104394391D01*
X121315975Y-104330342D01*
X121169657Y-104184024D01*
X120997596Y-104069057D01*
X120806421Y-103989870D01*
X120806412Y-103989868D01*
X120603469Y-103949500D01*
X120603465Y-103949500D01*
X120396535Y-103949500D01*
X120396530Y-103949500D01*
X120193587Y-103989868D01*
X120193579Y-103989870D01*
X120002403Y-104069058D01*
X119830342Y-104184024D01*
X119684024Y-104330342D01*
X119569058Y-104502403D01*
X119489870Y-104693579D01*
X119489868Y-104693587D01*
X119449500Y-104896530D01*
X105619162Y-104896530D01*
X105663224Y-104820212D01*
X105756054Y-104596100D01*
X105818838Y-104361789D01*
X105850500Y-104121288D01*
X105850500Y-103878712D01*
X105850500Y-103878711D01*
X151149500Y-103878711D01*
X151149500Y-104121288D01*
X151181161Y-104361785D01*
X151243947Y-104596104D01*
X151313861Y-104764890D01*
X151336776Y-104820212D01*
X151458064Y-105030289D01*
X151458066Y-105030292D01*
X151458067Y-105030293D01*
X151605733Y-105222736D01*
X151605739Y-105222743D01*
X151777256Y-105394260D01*
X151777262Y-105394265D01*
X151969711Y-105541936D01*
X152179788Y-105663224D01*
X152403900Y-105756054D01*
X152638211Y-105818838D01*
X152818586Y-105842584D01*
X152878711Y-105850500D01*
X152878712Y-105850500D01*
X153121289Y-105850500D01*
X153169388Y-105844167D01*
X153361789Y-105818838D01*
X153596100Y-105756054D01*
X153820212Y-105663224D01*
X154030289Y-105541936D01*
X154222738Y-105394265D01*
X154394265Y-105222738D01*
X154541936Y-105030289D01*
X154663224Y-104820212D01*
X154756054Y-104596100D01*
X154818838Y-104361789D01*
X154850500Y-104121288D01*
X154850500Y-103878712D01*
X154849164Y-103868567D01*
X154829760Y-103721176D01*
X154818838Y-103638211D01*
X154756054Y-103403900D01*
X154663224Y-103179788D01*
X154541936Y-102969711D01*
X154394265Y-102777262D01*
X154394260Y-102777256D01*
X154222743Y-102605739D01*
X154222736Y-102605733D01*
X154030293Y-102458067D01*
X154030292Y-102458066D01*
X154030289Y-102458064D01*
X153820212Y-102336776D01*
X153752462Y-102308713D01*
X153596104Y-102243947D01*
X153361785Y-102181161D01*
X153121289Y-102149500D01*
X153121288Y-102149500D01*
X152878712Y-102149500D01*
X152878711Y-102149500D01*
X152638214Y-102181161D01*
X152403895Y-102243947D01*
X152179794Y-102336773D01*
X152179785Y-102336777D01*
X151969706Y-102458067D01*
X151777263Y-102605733D01*
X151777256Y-102605739D01*
X151605739Y-102777256D01*
X151605733Y-102777263D01*
X151458067Y-102969706D01*
X151336777Y-103179785D01*
X151336773Y-103179794D01*
X151243947Y-103403895D01*
X151181161Y-103638214D01*
X151149500Y-103878711D01*
X105850500Y-103878711D01*
X105849164Y-103868567D01*
X105829760Y-103721176D01*
X105818838Y-103638211D01*
X105756054Y-103403900D01*
X105663224Y-103179788D01*
X105541936Y-102969711D01*
X105519882Y-102940969D01*
X105394269Y-102777266D01*
X105394260Y-102777256D01*
X105222743Y-102605739D01*
X105222736Y-102605733D01*
X105030293Y-102458067D01*
X105030292Y-102458066D01*
X105030289Y-102458064D01*
X104820212Y-102336776D01*
X104752462Y-102308713D01*
X104596104Y-102243947D01*
X104593472Y-102243241D01*
X104361789Y-102181162D01*
X104361788Y-102181161D01*
X104361785Y-102181161D01*
X104121289Y-102149500D01*
X104121288Y-102149500D01*
X103878712Y-102149500D01*
X103878711Y-102149500D01*
X103638214Y-102181161D01*
X103403895Y-102243947D01*
X103179794Y-102336773D01*
X103179785Y-102336777D01*
X102969706Y-102458067D01*
X102777263Y-102605733D01*
X102777256Y-102605739D01*
X102605739Y-102777256D01*
X102605733Y-102777263D01*
X102458067Y-102969706D01*
X102336777Y-103179785D01*
X102336773Y-103179794D01*
X102243947Y-103403895D01*
X102181161Y-103638214D01*
X102149500Y-103878711D01*
X100406459Y-103878711D01*
X100406957Y-103868568D01*
X100406957Y-103868567D01*
X100416975Y-103664642D01*
X100417534Y-103653262D01*
X100418727Y-103641158D01*
X100442914Y-103478100D01*
X100468771Y-103303783D01*
X100471138Y-103291881D01*
X100554019Y-102961002D01*
X100557539Y-102949400D01*
X100672449Y-102628250D01*
X100677098Y-102617029D01*
X100685122Y-102600065D01*
X100752282Y-102458067D01*
X100822922Y-102308713D01*
X100828657Y-102297982D01*
X100861045Y-102243946D01*
X100931663Y-102126126D01*
X123430000Y-102126126D01*
X123430000Y-102450000D01*
X123880000Y-102450000D01*
X123880000Y-102750000D01*
X123430000Y-102750000D01*
X123430000Y-103073873D01*
X123458820Y-103218759D01*
X123458822Y-103218767D01*
X123515357Y-103355254D01*
X123515362Y-103355264D01*
X123597436Y-103478096D01*
X123597439Y-103478100D01*
X123701899Y-103582560D01*
X123701903Y-103582563D01*
X123824735Y-103664637D01*
X123824745Y-103664642D01*
X123961230Y-103721176D01*
X123961240Y-103721179D01*
X124029999Y-103734856D01*
X124030000Y-103734856D01*
X124030000Y-103259808D01*
X124064204Y-103279556D01*
X124140504Y-103300000D01*
X124219496Y-103300000D01*
X124295796Y-103279556D01*
X124330000Y-103259808D01*
X124330000Y-103734856D01*
X124398759Y-103721179D01*
X124398769Y-103721176D01*
X124535254Y-103664642D01*
X124535264Y-103664637D01*
X124658096Y-103582563D01*
X124658100Y-103582560D01*
X124762560Y-103478100D01*
X124762563Y-103478096D01*
X124844637Y-103355264D01*
X124844642Y-103355254D01*
X124901177Y-103218767D01*
X124901179Y-103218759D01*
X124929999Y-103073873D01*
X124930000Y-103073871D01*
X124930000Y-102750000D01*
X124480000Y-102750000D01*
X124480000Y-102450000D01*
X124930000Y-102450000D01*
X124930000Y-102126128D01*
X124929999Y-102126126D01*
X132070000Y-102126126D01*
X132070000Y-102450000D01*
X132520000Y-102450000D01*
X132520000Y-102750000D01*
X132070000Y-102750000D01*
X132070000Y-103073873D01*
X132098820Y-103218759D01*
X132098822Y-103218767D01*
X132155357Y-103355254D01*
X132155362Y-103355264D01*
X132237436Y-103478096D01*
X132237439Y-103478100D01*
X132341899Y-103582560D01*
X132341903Y-103582563D01*
X132464735Y-103664637D01*
X132464745Y-103664642D01*
X132601230Y-103721176D01*
X132601240Y-103721179D01*
X132669999Y-103734856D01*
X132670000Y-103734856D01*
X132670000Y-103259808D01*
X132704204Y-103279556D01*
X132780504Y-103300000D01*
X132859496Y-103300000D01*
X132935796Y-103279556D01*
X132970000Y-103259808D01*
X132970000Y-103734856D01*
X133038759Y-103721179D01*
X133038769Y-103721176D01*
X133175254Y-103664642D01*
X133175264Y-103664637D01*
X133298096Y-103582563D01*
X133298100Y-103582560D01*
X133402560Y-103478100D01*
X133402563Y-103478096D01*
X133484637Y-103355264D01*
X133484642Y-103355254D01*
X133541177Y-103218767D01*
X133541179Y-103218759D01*
X133569999Y-103073873D01*
X133570000Y-103073871D01*
X133570000Y-102750000D01*
X133120000Y-102750000D01*
X133120000Y-102450000D01*
X133570000Y-102450000D01*
X133570000Y-102126128D01*
X133569999Y-102126126D01*
X133541179Y-101981240D01*
X133541177Y-101981232D01*
X133484642Y-101844745D01*
X133484637Y-101844735D01*
X133402563Y-101721903D01*
X133402560Y-101721899D01*
X133298100Y-101617439D01*
X133298096Y-101617436D01*
X133175264Y-101535362D01*
X133175254Y-101535357D01*
X133038767Y-101478822D01*
X133038761Y-101478820D01*
X132970000Y-101465142D01*
X132970000Y-101940191D01*
X132935796Y-101920444D01*
X132859496Y-101900000D01*
X132780504Y-101900000D01*
X132704204Y-101920444D01*
X132670000Y-101940191D01*
X132670000Y-101465143D01*
X132669999Y-101465142D01*
X132601238Y-101478820D01*
X132601232Y-101478822D01*
X132464745Y-101535357D01*
X132464735Y-101535362D01*
X132341903Y-101617436D01*
X132341899Y-101617439D01*
X132237439Y-101721899D01*
X132237436Y-101721903D01*
X132155362Y-101844735D01*
X132155357Y-101844745D01*
X132098822Y-101981232D01*
X132098820Y-101981240D01*
X132070000Y-102126126D01*
X124929999Y-102126126D01*
X124901179Y-101981240D01*
X124901177Y-101981232D01*
X124844642Y-101844745D01*
X124844637Y-101844735D01*
X124762563Y-101721903D01*
X124762560Y-101721899D01*
X124658100Y-101617439D01*
X124658096Y-101617436D01*
X124535264Y-101535362D01*
X124535254Y-101535357D01*
X124398767Y-101478822D01*
X124398761Y-101478820D01*
X124330000Y-101465142D01*
X124330000Y-101940191D01*
X124295796Y-101920444D01*
X124219496Y-101900000D01*
X124140504Y-101900000D01*
X124064204Y-101920444D01*
X124030000Y-101940191D01*
X124030000Y-101465143D01*
X124029999Y-101465142D01*
X123961238Y-101478820D01*
X123961232Y-101478822D01*
X123824745Y-101535357D01*
X123824735Y-101535362D01*
X123701903Y-101617436D01*
X123701899Y-101617439D01*
X123597439Y-101721899D01*
X123597436Y-101721903D01*
X123515362Y-101844735D01*
X123515357Y-101844745D01*
X123458822Y-101981232D01*
X123458820Y-101981240D01*
X123430000Y-102126126D01*
X100931663Y-102126126D01*
X101004001Y-102005436D01*
X101010741Y-101995348D01*
X101213931Y-101721378D01*
X101221640Y-101711987D01*
X101450694Y-101459264D01*
X101459264Y-101450694D01*
X101711993Y-101221634D01*
X101721378Y-101213931D01*
X101995348Y-101010741D01*
X102005436Y-101004001D01*
X102297987Y-100828654D01*
X102308713Y-100822922D01*
X102531609Y-100717498D01*
X102617036Y-100677095D01*
X102628250Y-100672449D01*
X102949400Y-100557539D01*
X102961002Y-100554019D01*
X103291881Y-100471138D01*
X103303783Y-100468771D01*
X103641164Y-100418726D01*
X103653262Y-100417534D01*
X103946097Y-100403148D01*
X103996968Y-100400649D01*
X104003052Y-100400500D01*
X104057583Y-100400500D01*
X152942417Y-100400500D01*
X152996949Y-100400500D01*
X153003033Y-100400649D01*
G37*
G04 #@! TD.AperFunction*
M02*
