M48
; DRILL file KiCad 10.0.4-10.0.4~ubuntu22.04.1 date 2026-09-21T21:24:43
; FORMAT={-:-/ absolute / metric / decimal}
; #@! TF.CreationDate,2026-09-21T21:24:43+05:30
; #@! TF.GenerationSoftware,Kicad,Pcbnew,10.0.4-10.0.4~ubuntu22.04.1
; #@! TF.FileFunction,Plated,1,2,PTH
FMAT,2
METRIC
; #@! TA.AperFunction,Plated,PTH,ViaDrill
T1C0.300
; #@! TA.AperFunction,Plated,PTH,ComponentDrill
T2C0.600
; #@! TA.AperFunction,Plated,PTH,ComponentDrill
T3C1.000
%
G90
G05
T1
X115.0Y-155.0
X125.0Y-155.0
X127.688Y-128.35
X127.953Y-124.399
X129.312Y-130.812
X135.0Y-155.0
X145.0Y-155.0
X155.0Y-115.0
X155.0Y-125.0
X155.0Y-135.0
X155.0Y-145.0
T3
X127.23Y-142.77
X127.23Y-145.31
X127.23Y-147.85
X129.77Y-142.77
X129.77Y-145.31
X129.77Y-147.85
T2
X124.18Y-103.0G85X124.18Y-102.2
G05
X124.18Y-107.33G85X124.18Y-106.23
G05
X132.82Y-103.0G85X132.82Y-102.2
G05
X132.82Y-107.33G85X132.82Y-106.23
G05
M30
