G04 #@! TF.GenerationSoftware,KiCad,Pcbnew,10.0.4-10.0.4~ubuntu22.04.1*
G04 #@! TF.CreationDate,2026-09-21T21:24:43+05:30*
G04 #@! TF.ProjectId,quiet-orbit-qo-r1-usb-c-four-light-ambient-lamp-board,71756965-742d-46f7-9262-69742d716f2d,rev?*
G04 #@! TF.SameCoordinates,Original*
G04 #@! TF.FileFunction,Soldermask,Bot*
G04 #@! TF.FilePolarity,Negative*
%FSLAX46Y46*%
G04 Gerber Fmt 4.6, Leading zero omitted, Abs format (unit mm)*
G04 Created by KiCad (PCBNEW 10.0.4-10.0.4~ubuntu22.04.1) date 2026-09-21 21:24:43*
%MOMM*%
%LPD*%
G01*
G04 APERTURE LIST*
G04 Aperture macros list*
%AMRoundRect*
0 Rectangle with rounded corners*
0 $1 Rounding radius*
0 $2 $3 $4 $5 $6 $7 $8 $9 X,Y pos of 4 corners*
0 Add a 4 corners polygon primitive as box body*
4,1,4,$2,$3,$4,$5,$6,$7,$8,$9,$2,$3,0*
0 Add four circle primitives for the rounded corners*
1,1,$1+$1,$2,$3*
1,1,$1+$1,$4,$5*
1,1,$1+$1,$6,$7*
1,1,$1+$1,$8,$9*
0 Add four rect primitives between the rounded corners*
20,1,$1+$1,$2,$3,$4,$5,0*
20,1,$1+$1,$4,$5,$6,$7,0*
20,1,$1+$1,$6,$7,$8,$9,0*
20,1,$1+$1,$8,$9,$2,$3,0*%
G04 Aperture macros list end*
%ADD10C,0.000000*%
%ADD11C,3.200000*%
%ADD12C,0.650000*%
%ADD13O,1.000000X2.100000*%
%ADD14O,1.000000X1.800000*%
%ADD15RoundRect,0.250000X0.600000X0.600000X-0.600000X0.600000X-0.600000X-0.600000X0.600000X-0.600000X0*%
%ADD16C,1.700000*%
G04 APERTURE END LIST*
D10*
G36*
X139875435Y-150856836D02*
G01*
X139898530Y-150877942D01*
X140008922Y-151038646D01*
X140012500Y-151114791D01*
X139999903Y-151156394D01*
X139984764Y-151179102D01*
X139946493Y-151208511D01*
X139837499Y-151212500D01*
X139808798Y-151206790D01*
X139784466Y-151190533D01*
X139768209Y-151166201D01*
X139762500Y-151137500D01*
X139762500Y-150921534D01*
X139769025Y-150890937D01*
X139787465Y-150865664D01*
X139814611Y-150850112D01*
X139845740Y-150846988D01*
X139875435Y-150856836D01*
G37*
G36*
X154185135Y-149318209D02*
G01*
X154213062Y-149336142D01*
X154261353Y-149341077D01*
X154335349Y-149389535D01*
X154355760Y-149411468D01*
X154365956Y-149439641D01*
X154364311Y-149469558D01*
X154351087Y-149496443D01*
X154328394Y-149516006D01*
X154299854Y-149525126D01*
X154270022Y-149522347D01*
X154191688Y-149505498D01*
X154077209Y-149456435D01*
X154053169Y-149439975D01*
X154037215Y-149415596D01*
X154031755Y-149386977D01*
X154037613Y-149358437D01*
X154053905Y-149334282D01*
X154078172Y-149318159D01*
X154156433Y-149312500D01*
X154185135Y-149318209D01*
G37*
G36*
X139685135Y-153668209D02*
G01*
X139713062Y-153686142D01*
X139761353Y-153691077D01*
X139924806Y-153803433D01*
X139945525Y-153825876D01*
X140001811Y-153919686D01*
X140012500Y-153958273D01*
X140012500Y-154014791D01*
X139999903Y-154056394D01*
X139968059Y-154096969D01*
X139922361Y-154112500D01*
X139479550Y-154112500D01*
X139452717Y-154107535D01*
X139429436Y-154093299D01*
X139412790Y-154071676D01*
X139404981Y-154045528D01*
X139407045Y-154018317D01*
X139566073Y-153703958D01*
X139582689Y-153682018D01*
X139606101Y-153667549D01*
X139633155Y-153662500D01*
X139685135Y-153668209D01*
G37*
G36*
X107800910Y-152217864D02*
G01*
X107902180Y-152258372D01*
X108026974Y-152354079D01*
X108044434Y-152374057D01*
X108101811Y-152469686D01*
X108112500Y-152508273D01*
X108112500Y-152564791D01*
X108099903Y-152606394D01*
X108068059Y-152646969D01*
X108022361Y-152662500D01*
X107758996Y-152662500D01*
X107733729Y-152658115D01*
X107711417Y-152645475D01*
X107694666Y-152626057D01*
X107665729Y-152544021D01*
X107661748Y-152435726D01*
X107640729Y-152369021D01*
X107637215Y-152291065D01*
X107641860Y-152261288D01*
X107657851Y-152235743D01*
X107682607Y-152218555D01*
X107712130Y-152212500D01*
X107800910Y-152217864D01*
G37*
G36*
X119385135Y-146418209D02*
G01*
X119413062Y-146436142D01*
X119461353Y-146441077D01*
X119624806Y-146553433D01*
X119645525Y-146575876D01*
X119701811Y-146669686D01*
X119712500Y-146708273D01*
X119712500Y-146764791D01*
X119699903Y-146806394D01*
X119668059Y-146846969D01*
X119622361Y-146862500D01*
X118928506Y-146858511D01*
X118906940Y-146846969D01*
X118875096Y-146806394D01*
X118862500Y-146764791D01*
X118862500Y-146708273D01*
X118873188Y-146669686D01*
X118948025Y-146554079D01*
X119053821Y-146469442D01*
X119174089Y-146417864D01*
X119201943Y-146412500D01*
X119356433Y-146412500D01*
X119385135Y-146418209D01*
G37*
G36*
X125185135Y-146418209D02*
G01*
X125210033Y-146435033D01*
X125226290Y-146459364D01*
X125238565Y-146622952D01*
X125251445Y-146674375D01*
X125284814Y-146758799D01*
X125290523Y-146787500D01*
X125284814Y-146816201D01*
X125268556Y-146840533D01*
X125244224Y-146856790D01*
X125215523Y-146862500D01*
X124728506Y-146858511D01*
X124706940Y-146846969D01*
X124675096Y-146806394D01*
X124662500Y-146764791D01*
X124662500Y-146708273D01*
X124673188Y-146669686D01*
X124748025Y-146554079D01*
X124853821Y-146469442D01*
X124974089Y-146417864D01*
X125001943Y-146412500D01*
X125156433Y-146412500D01*
X125185135Y-146418209D01*
G37*
G36*
X133885135Y-142068209D02*
G01*
X133913062Y-142086142D01*
X133980313Y-142098188D01*
X134095920Y-142173025D01*
X134191627Y-142297819D01*
X134232135Y-142399089D01*
X134237500Y-142437500D01*
X134231790Y-142466201D01*
X134215533Y-142490533D01*
X134191201Y-142506790D01*
X134162500Y-142512500D01*
X133452638Y-142512500D01*
X133406940Y-142496969D01*
X133375096Y-142456394D01*
X133362500Y-142414791D01*
X133362500Y-142361534D01*
X133376469Y-142317942D01*
X133476672Y-142177658D01*
X133504161Y-142154169D01*
X133671664Y-142070417D01*
X133705205Y-142062500D01*
X133856433Y-142062500D01*
X133885135Y-142068209D01*
G37*
G36*
X131783920Y-116480399D02*
G01*
X131809681Y-116494883D01*
X131827847Y-116518194D01*
X131883008Y-116628516D01*
X131986387Y-117131937D01*
X132128113Y-117395291D01*
X132136958Y-117424358D01*
X132133545Y-117454550D01*
X132118435Y-117480909D01*
X132094108Y-117499112D01*
X132064556Y-117506170D01*
X132034629Y-117500925D01*
X132009238Y-117484238D01*
X131669708Y-117144708D01*
X131587070Y-117112038D01*
X131567068Y-117088353D01*
X131558354Y-117058602D01*
X131538912Y-116805865D01*
X131544755Y-116770569D01*
X131619507Y-116604091D01*
X131703148Y-116503721D01*
X131726170Y-116485190D01*
X131754564Y-116476992D01*
X131783920Y-116480399D01*
G37*
G36*
X104885135Y-147868209D02*
G01*
X104913062Y-147886142D01*
X104961353Y-147891077D01*
X104982057Y-147901469D01*
X105124806Y-148003433D01*
X105145525Y-148025876D01*
X105201811Y-148119686D01*
X105212500Y-148158273D01*
X105212500Y-148214791D01*
X105199903Y-148256394D01*
X105184764Y-148279102D01*
X105146493Y-148308511D01*
X105122361Y-148312500D01*
X104452638Y-148312500D01*
X104406940Y-148296969D01*
X104375096Y-148256394D01*
X104362500Y-148214791D01*
X104362500Y-148161534D01*
X104376469Y-148117942D01*
X104476672Y-147977658D01*
X104504161Y-147954169D01*
X104671664Y-147870417D01*
X104705205Y-147862500D01*
X104856433Y-147862500D01*
X104885135Y-147868209D01*
G37*
G36*
X107785135Y-146418209D02*
G01*
X107813062Y-146436142D01*
X107861353Y-146441077D01*
X107882057Y-146451469D01*
X108024806Y-146553433D01*
X108045525Y-146575876D01*
X108101811Y-146669686D01*
X108112500Y-146708273D01*
X108112500Y-146764791D01*
X108099903Y-146806394D01*
X108084764Y-146829102D01*
X108046493Y-146858511D01*
X108022361Y-146862500D01*
X107352638Y-146862500D01*
X107306940Y-146846969D01*
X107275096Y-146806394D01*
X107262500Y-146764791D01*
X107262500Y-146711534D01*
X107276469Y-146667942D01*
X107376672Y-146527658D01*
X107404161Y-146504169D01*
X107571664Y-146420417D01*
X107605205Y-146412500D01*
X107756433Y-146412500D01*
X107785135Y-146418209D01*
G37*
G36*
X107785135Y-149318209D02*
G01*
X107813062Y-149336142D01*
X107861353Y-149341077D01*
X107882057Y-149351469D01*
X108024806Y-149453433D01*
X108045525Y-149475876D01*
X108101811Y-149569686D01*
X108112500Y-149608273D01*
X108112500Y-149664791D01*
X108099903Y-149706394D01*
X108084764Y-149729102D01*
X108046493Y-149758511D01*
X108022361Y-149762500D01*
X107352638Y-149762500D01*
X107306940Y-149746969D01*
X107275096Y-149706394D01*
X107262500Y-149664791D01*
X107262500Y-149611534D01*
X107276469Y-149567942D01*
X107376672Y-149427658D01*
X107404161Y-149404169D01*
X107571664Y-149320417D01*
X107605205Y-149312500D01*
X107756433Y-149312500D01*
X107785135Y-149318209D01*
G37*
G36*
X110685135Y-147868209D02*
G01*
X110713062Y-147886142D01*
X110761353Y-147891077D01*
X110782057Y-147901469D01*
X110924806Y-148003433D01*
X110945525Y-148025876D01*
X111001811Y-148119686D01*
X111012500Y-148158273D01*
X111012500Y-148214791D01*
X110999903Y-148256394D01*
X110984764Y-148279102D01*
X110946493Y-148308511D01*
X110922361Y-148312500D01*
X110252638Y-148312500D01*
X110206940Y-148296969D01*
X110175096Y-148256394D01*
X110162500Y-148214791D01*
X110162500Y-148161534D01*
X110176469Y-148117942D01*
X110276672Y-147977658D01*
X110304161Y-147954169D01*
X110471664Y-147870417D01*
X110505205Y-147862500D01*
X110656433Y-147862500D01*
X110685135Y-147868209D01*
G37*
G36*
X110685135Y-153668209D02*
G01*
X110713062Y-153686142D01*
X110761353Y-153691077D01*
X110782057Y-153701469D01*
X110924806Y-153803433D01*
X110945525Y-153825876D01*
X111001811Y-153919686D01*
X111012500Y-153958273D01*
X111012500Y-154014791D01*
X110999903Y-154056394D01*
X110984764Y-154079102D01*
X110946493Y-154108511D01*
X110922361Y-154112500D01*
X110252638Y-154112500D01*
X110206940Y-154096969D01*
X110175096Y-154056394D01*
X110162500Y-154014791D01*
X110162500Y-153961534D01*
X110176469Y-153917942D01*
X110276672Y-153777658D01*
X110304161Y-153754169D01*
X110471664Y-153670417D01*
X110505205Y-153662500D01*
X110656433Y-153662500D01*
X110685135Y-153668209D01*
G37*
G36*
X113585135Y-146418209D02*
G01*
X113613062Y-146436142D01*
X113661353Y-146441077D01*
X113682057Y-146451469D01*
X113824806Y-146553433D01*
X113845525Y-146575876D01*
X113901811Y-146669686D01*
X113912500Y-146708273D01*
X113912500Y-146764791D01*
X113899903Y-146806394D01*
X113884764Y-146829102D01*
X113846493Y-146858511D01*
X113822361Y-146862500D01*
X113152638Y-146862500D01*
X113106940Y-146846969D01*
X113075096Y-146806394D01*
X113062500Y-146764791D01*
X113062500Y-146711534D01*
X113076469Y-146667942D01*
X113176672Y-146527658D01*
X113204161Y-146504169D01*
X113371664Y-146420417D01*
X113405205Y-146412500D01*
X113556433Y-146412500D01*
X113585135Y-146418209D01*
G37*
G36*
X113585135Y-149318209D02*
G01*
X113613062Y-149336142D01*
X113661353Y-149341077D01*
X113682057Y-149351469D01*
X113824806Y-149453433D01*
X113845525Y-149475876D01*
X113901811Y-149569686D01*
X113912500Y-149608273D01*
X113912500Y-149664791D01*
X113899903Y-149706394D01*
X113884764Y-149729102D01*
X113846493Y-149758511D01*
X113822361Y-149762500D01*
X113152638Y-149762500D01*
X113106940Y-149746969D01*
X113075096Y-149706394D01*
X113062500Y-149664791D01*
X113062500Y-149611534D01*
X113076469Y-149567942D01*
X113176672Y-149427658D01*
X113204161Y-149404169D01*
X113371664Y-149320417D01*
X113405205Y-149312500D01*
X113556433Y-149312500D01*
X113585135Y-149318209D01*
G37*
G36*
X116485135Y-147868209D02*
G01*
X116513062Y-147886142D01*
X116561353Y-147891077D01*
X116582057Y-147901469D01*
X116724806Y-148003433D01*
X116745525Y-148025876D01*
X116801811Y-148119686D01*
X116812500Y-148158273D01*
X116812500Y-148214791D01*
X116799903Y-148256394D01*
X116784764Y-148279102D01*
X116746493Y-148308511D01*
X116722361Y-148312500D01*
X116052638Y-148312500D01*
X116006940Y-148296969D01*
X115975096Y-148256394D01*
X115962500Y-148214791D01*
X115962500Y-148161534D01*
X115976469Y-148117942D01*
X116076672Y-147977658D01*
X116104161Y-147954169D01*
X116271664Y-147870417D01*
X116305205Y-147862500D01*
X116456433Y-147862500D01*
X116485135Y-147868209D01*
G37*
G36*
X116485135Y-153668209D02*
G01*
X116513062Y-153686142D01*
X116561353Y-153691077D01*
X116582057Y-153701469D01*
X116724806Y-153803433D01*
X116745525Y-153825876D01*
X116801811Y-153919686D01*
X116812500Y-153958273D01*
X116812500Y-154014791D01*
X116799903Y-154056394D01*
X116784764Y-154079102D01*
X116746493Y-154108511D01*
X116722361Y-154112500D01*
X116052638Y-154112500D01*
X116006940Y-154096969D01*
X115975096Y-154056394D01*
X115962500Y-154014791D01*
X115962500Y-153961534D01*
X115976469Y-153917942D01*
X116076672Y-153777658D01*
X116104161Y-153754169D01*
X116271664Y-153670417D01*
X116305205Y-153662500D01*
X116456433Y-153662500D01*
X116485135Y-153668209D01*
G37*
G36*
X122285135Y-147868209D02*
G01*
X122313062Y-147886142D01*
X122361353Y-147891077D01*
X122382057Y-147901469D01*
X122524806Y-148003433D01*
X122545525Y-148025876D01*
X122601811Y-148119686D01*
X122612500Y-148158273D01*
X122612500Y-148214791D01*
X122599903Y-148256394D01*
X122584764Y-148279102D01*
X122546493Y-148308511D01*
X122522361Y-148312500D01*
X121852638Y-148312500D01*
X121806940Y-148296969D01*
X121775096Y-148256394D01*
X121762500Y-148214791D01*
X121762500Y-148161534D01*
X121776469Y-148117942D01*
X121876672Y-147977658D01*
X121904161Y-147954169D01*
X122071664Y-147870417D01*
X122105205Y-147862500D01*
X122256433Y-147862500D01*
X122285135Y-147868209D01*
G37*
G36*
X133885135Y-147868209D02*
G01*
X133913062Y-147886142D01*
X133961353Y-147891077D01*
X133982057Y-147901469D01*
X134124806Y-148003433D01*
X134145525Y-148025876D01*
X134201811Y-148119686D01*
X134212500Y-148158273D01*
X134212500Y-148214791D01*
X134199903Y-148256394D01*
X134184764Y-148279102D01*
X134146493Y-148308511D01*
X134122361Y-148312500D01*
X133452638Y-148312500D01*
X133406940Y-148296969D01*
X133375096Y-148256394D01*
X133362500Y-148214791D01*
X133362500Y-148161534D01*
X133376469Y-148117942D01*
X133476672Y-147977658D01*
X133504161Y-147954169D01*
X133671664Y-147870417D01*
X133705205Y-147862500D01*
X133856433Y-147862500D01*
X133885135Y-147868209D01*
G37*
G36*
X136785135Y-146418209D02*
G01*
X136813062Y-146436142D01*
X136861353Y-146441077D01*
X136882057Y-146451469D01*
X137024806Y-146553433D01*
X137045525Y-146575876D01*
X137101811Y-146669686D01*
X137112500Y-146708273D01*
X137112500Y-146764791D01*
X137099903Y-146806394D01*
X137084764Y-146829102D01*
X137068059Y-146846969D01*
X137022361Y-146862500D01*
X136352638Y-146862500D01*
X136306940Y-146846969D01*
X136275096Y-146806394D01*
X136262500Y-146764791D01*
X136262500Y-146711534D01*
X136276469Y-146667942D01*
X136376672Y-146527658D01*
X136404161Y-146504169D01*
X136571664Y-146420417D01*
X136605205Y-146412500D01*
X136756433Y-146412500D01*
X136785135Y-146418209D01*
G37*
G36*
X139685135Y-147868209D02*
G01*
X139713062Y-147886142D01*
X139761353Y-147891077D01*
X139782057Y-147901469D01*
X139924806Y-148003433D01*
X139945525Y-148025876D01*
X140001811Y-148119686D01*
X140012500Y-148158273D01*
X140012500Y-148214791D01*
X139999903Y-148256394D01*
X139984764Y-148279102D01*
X139946493Y-148308511D01*
X139922361Y-148312500D01*
X139252638Y-148312500D01*
X139206940Y-148296969D01*
X139175096Y-148256394D01*
X139162500Y-148214791D01*
X139162500Y-148161534D01*
X139176469Y-148117942D01*
X139276672Y-147977658D01*
X139304161Y-147954169D01*
X139471664Y-147870417D01*
X139505205Y-147862500D01*
X139656433Y-147862500D01*
X139685135Y-147868209D01*
G37*
G36*
X142585135Y-146418209D02*
G01*
X142613062Y-146436142D01*
X142661353Y-146441077D01*
X142682057Y-146451469D01*
X142824806Y-146553433D01*
X142845525Y-146575876D01*
X142901811Y-146669686D01*
X142912500Y-146708273D01*
X142912500Y-146764791D01*
X142899903Y-146806394D01*
X142884764Y-146829102D01*
X142846493Y-146858511D01*
X142822361Y-146862500D01*
X142152638Y-146862500D01*
X142106940Y-146846969D01*
X142075096Y-146806394D01*
X142062500Y-146764791D01*
X142062500Y-146711534D01*
X142076469Y-146667942D01*
X142176672Y-146527658D01*
X142204161Y-146504169D01*
X142371664Y-146420417D01*
X142405205Y-146412500D01*
X142556433Y-146412500D01*
X142585135Y-146418209D01*
G37*
G36*
X142585135Y-149318209D02*
G01*
X142613062Y-149336142D01*
X142661353Y-149341077D01*
X142682057Y-149351469D01*
X142824806Y-149453433D01*
X142845525Y-149475876D01*
X142901811Y-149569686D01*
X142912500Y-149608273D01*
X142912500Y-149664791D01*
X142899903Y-149706394D01*
X142884764Y-149729102D01*
X142846493Y-149758511D01*
X142822361Y-149762500D01*
X142152638Y-149762500D01*
X142106940Y-149746969D01*
X142075096Y-149706394D01*
X142062500Y-149664791D01*
X142062500Y-149611534D01*
X142076469Y-149567942D01*
X142176672Y-149427658D01*
X142204161Y-149404169D01*
X142371664Y-149320417D01*
X142405205Y-149312500D01*
X142556433Y-149312500D01*
X142585135Y-149318209D01*
G37*
G36*
X145485135Y-147868209D02*
G01*
X145513062Y-147886142D01*
X145561353Y-147891077D01*
X145582057Y-147901469D01*
X145724806Y-148003433D01*
X145745525Y-148025876D01*
X145801811Y-148119686D01*
X145812500Y-148158273D01*
X145812500Y-148214791D01*
X145799903Y-148256394D01*
X145784764Y-148279102D01*
X145746493Y-148308511D01*
X145722361Y-148312500D01*
X145052638Y-148312500D01*
X145006940Y-148296969D01*
X144975096Y-148256394D01*
X144962500Y-148214791D01*
X144962500Y-148161534D01*
X144976469Y-148117942D01*
X145076672Y-147977658D01*
X145104161Y-147954169D01*
X145271664Y-147870417D01*
X145305205Y-147862500D01*
X145456433Y-147862500D01*
X145485135Y-147868209D01*
G37*
G36*
X145485135Y-153668209D02*
G01*
X145513062Y-153686142D01*
X145561353Y-153691077D01*
X145582057Y-153701469D01*
X145724806Y-153803433D01*
X145745525Y-153825876D01*
X145801811Y-153919686D01*
X145812500Y-153958273D01*
X145812500Y-154014791D01*
X145799903Y-154056394D01*
X145784764Y-154079102D01*
X145768059Y-154096969D01*
X145722361Y-154112500D01*
X145052638Y-154112500D01*
X145006940Y-154096969D01*
X144975096Y-154056394D01*
X144962500Y-154014791D01*
X144962500Y-153961534D01*
X144976469Y-153917942D01*
X145076672Y-153777658D01*
X145104161Y-153754169D01*
X145271664Y-153670417D01*
X145305205Y-153662500D01*
X145456433Y-153662500D01*
X145485135Y-153668209D01*
G37*
G36*
X148385135Y-146418209D02*
G01*
X148413062Y-146436142D01*
X148461353Y-146441077D01*
X148482057Y-146451469D01*
X148624806Y-146553433D01*
X148645525Y-146575876D01*
X148701811Y-146669686D01*
X148712500Y-146708273D01*
X148712500Y-146764791D01*
X148699903Y-146806394D01*
X148684764Y-146829102D01*
X148668059Y-146846969D01*
X148622361Y-146862500D01*
X147952638Y-146862500D01*
X147906940Y-146846969D01*
X147875096Y-146806394D01*
X147862500Y-146764791D01*
X147862500Y-146711534D01*
X147876469Y-146667942D01*
X147976672Y-146527658D01*
X148004161Y-146504169D01*
X148171664Y-146420417D01*
X148205205Y-146412500D01*
X148356433Y-146412500D01*
X148385135Y-146418209D01*
G37*
G36*
X148385135Y-149318209D02*
G01*
X148413062Y-149336142D01*
X148461353Y-149341077D01*
X148482057Y-149351469D01*
X148624806Y-149453433D01*
X148645525Y-149475876D01*
X148701811Y-149569686D01*
X148712500Y-149608273D01*
X148712500Y-149664791D01*
X148699903Y-149706394D01*
X148684764Y-149729102D01*
X148646493Y-149758511D01*
X148622361Y-149762500D01*
X147952638Y-149762500D01*
X147906940Y-149746969D01*
X147875096Y-149706394D01*
X147862500Y-149664791D01*
X147862500Y-149611534D01*
X147876469Y-149567942D01*
X147976672Y-149427658D01*
X148004161Y-149404169D01*
X148171664Y-149320417D01*
X148205205Y-149312500D01*
X148356433Y-149312500D01*
X148385135Y-149318209D01*
G37*
G36*
X151285135Y-147868209D02*
G01*
X151313062Y-147886142D01*
X151361353Y-147891077D01*
X151382057Y-147901469D01*
X151524806Y-148003433D01*
X151545525Y-148025876D01*
X151601811Y-148119686D01*
X151612500Y-148158273D01*
X151612500Y-148214791D01*
X151599903Y-148256394D01*
X151584764Y-148279102D01*
X151546493Y-148308511D01*
X151522361Y-148312500D01*
X150852638Y-148312500D01*
X150806940Y-148296969D01*
X150775096Y-148256394D01*
X150762500Y-148214791D01*
X150762500Y-148161534D01*
X150776469Y-148117942D01*
X150876672Y-147977658D01*
X150904161Y-147954169D01*
X151071664Y-147870417D01*
X151105205Y-147862500D01*
X151256433Y-147862500D01*
X151285135Y-147868209D01*
G37*
G36*
X154185135Y-146418209D02*
G01*
X154213062Y-146436142D01*
X154261353Y-146441077D01*
X154282057Y-146451469D01*
X154424806Y-146553433D01*
X154445525Y-146575876D01*
X154501811Y-146669686D01*
X154512500Y-146708273D01*
X154512500Y-146764791D01*
X154499903Y-146806394D01*
X154484764Y-146829102D01*
X154446493Y-146858511D01*
X154422361Y-146862500D01*
X153752638Y-146862500D01*
X153706940Y-146846969D01*
X153675096Y-146806394D01*
X153662500Y-146764791D01*
X153662500Y-146711534D01*
X153676469Y-146667942D01*
X153776672Y-146527658D01*
X153804161Y-146504169D01*
X153971664Y-146420417D01*
X154005205Y-146412500D01*
X154156433Y-146412500D01*
X154185135Y-146418209D01*
G37*
G36*
X130985135Y-146418209D02*
G01*
X131013062Y-146436142D01*
X131061353Y-146441077D01*
X131224806Y-146553433D01*
X131245525Y-146575876D01*
X131301811Y-146669686D01*
X131312500Y-146708273D01*
X131312500Y-146764791D01*
X131299903Y-146806394D01*
X131268059Y-146846969D01*
X131222361Y-146862500D01*
X130931830Y-146862500D01*
X130898109Y-146854491D01*
X130828042Y-146782201D01*
X130777280Y-146740594D01*
X130662874Y-146665654D01*
X130588621Y-146628000D01*
X130571447Y-146606453D01*
X130563213Y-146580158D01*
X130565031Y-146552664D01*
X130576655Y-146527682D01*
X130604161Y-146504169D01*
X130771664Y-146420417D01*
X130805205Y-146412500D01*
X130956433Y-146412500D01*
X130985135Y-146418209D01*
G37*
G36*
X116485135Y-150768209D02*
G01*
X116513062Y-150786142D01*
X116561353Y-150791077D01*
X116724806Y-150903433D01*
X116745525Y-150925876D01*
X116801811Y-151019686D01*
X116812500Y-151058273D01*
X116812500Y-151114791D01*
X116799903Y-151156394D01*
X116768059Y-151196969D01*
X116722361Y-151212500D01*
X116443566Y-151212500D01*
X116414864Y-151206790D01*
X116387500Y-151189233D01*
X116360135Y-151206790D01*
X116331433Y-151212500D01*
X116028506Y-151208511D01*
X116006940Y-151196969D01*
X115975096Y-151156394D01*
X115962500Y-151114791D01*
X115962500Y-151058273D01*
X115973188Y-151019686D01*
X116048025Y-150904079D01*
X116153821Y-150819442D01*
X116274089Y-150767864D01*
X116301943Y-150762500D01*
X116456433Y-150762500D01*
X116485135Y-150768209D01*
G37*
G36*
X110685135Y-150768209D02*
G01*
X110713062Y-150786142D01*
X110761353Y-150791077D01*
X110782057Y-150801469D01*
X110924806Y-150903433D01*
X110945525Y-150925876D01*
X111001811Y-151019686D01*
X111012500Y-151058273D01*
X111012500Y-151114791D01*
X110999903Y-151156394D01*
X110984764Y-151179102D01*
X110946493Y-151208511D01*
X110922361Y-151212500D01*
X110643566Y-151212500D01*
X110614864Y-151206790D01*
X110587500Y-151189233D01*
X110560135Y-151206790D01*
X110531433Y-151212500D01*
X110252638Y-151212500D01*
X110206940Y-151196969D01*
X110175096Y-151156394D01*
X110162500Y-151114791D01*
X110162500Y-151061534D01*
X110176469Y-151017942D01*
X110276672Y-150877658D01*
X110304161Y-150854169D01*
X110471664Y-150770417D01*
X110505205Y-150762500D01*
X110656433Y-150762500D01*
X110685135Y-150768209D01*
G37*
G36*
X113585135Y-152218209D02*
G01*
X113613062Y-152236142D01*
X113661353Y-152241077D01*
X113682057Y-152251469D01*
X113824806Y-152353433D01*
X113845525Y-152375876D01*
X113901811Y-152469686D01*
X113912500Y-152508273D01*
X113912500Y-152564791D01*
X113899903Y-152606394D01*
X113884764Y-152629102D01*
X113846493Y-152658511D01*
X113822361Y-152662500D01*
X113543566Y-152662500D01*
X113514864Y-152656790D01*
X113487500Y-152639233D01*
X113460135Y-152656790D01*
X113431433Y-152662500D01*
X113152638Y-152662500D01*
X113106940Y-152646969D01*
X113075096Y-152606394D01*
X113062500Y-152564791D01*
X113062500Y-152511534D01*
X113076469Y-152467942D01*
X113176672Y-152327658D01*
X113204161Y-152304169D01*
X113371664Y-152220417D01*
X113405205Y-152212500D01*
X113556433Y-152212500D01*
X113585135Y-152218209D01*
G37*
G36*
X122285135Y-144968209D02*
G01*
X122313062Y-144986142D01*
X122361353Y-144991077D01*
X122382057Y-145001469D01*
X122524806Y-145103433D01*
X122545525Y-145125876D01*
X122601811Y-145219686D01*
X122612500Y-145258273D01*
X122612500Y-145314791D01*
X122599903Y-145356394D01*
X122584764Y-145379102D01*
X122546493Y-145408511D01*
X122522361Y-145412500D01*
X122243566Y-145412500D01*
X122214864Y-145406790D01*
X122187500Y-145389233D01*
X122160135Y-145406790D01*
X122131433Y-145412500D01*
X121852638Y-145412500D01*
X121806940Y-145396969D01*
X121775096Y-145356394D01*
X121762500Y-145314791D01*
X121762500Y-145261534D01*
X121776469Y-145217942D01*
X121876672Y-145077658D01*
X121904161Y-145054169D01*
X122071664Y-144970417D01*
X122105205Y-144962500D01*
X122256433Y-144962500D01*
X122285135Y-144968209D01*
G37*
G36*
X133885135Y-144968209D02*
G01*
X133913062Y-144986142D01*
X133961353Y-144991077D01*
X133982057Y-145001469D01*
X134124806Y-145103433D01*
X134145525Y-145125876D01*
X134201811Y-145219686D01*
X134212500Y-145258273D01*
X134212500Y-145314791D01*
X134199903Y-145356394D01*
X134184764Y-145379102D01*
X134146493Y-145408511D01*
X134122361Y-145412500D01*
X133843566Y-145412500D01*
X133814864Y-145406790D01*
X133787500Y-145389233D01*
X133760135Y-145406790D01*
X133731433Y-145412500D01*
X133452638Y-145412500D01*
X133406940Y-145396969D01*
X133375096Y-145356394D01*
X133362500Y-145314791D01*
X133362500Y-145261534D01*
X133376469Y-145217942D01*
X133476672Y-145077658D01*
X133504161Y-145054169D01*
X133671664Y-144970417D01*
X133705205Y-144962500D01*
X133856433Y-144962500D01*
X133885135Y-144968209D01*
G37*
G36*
X142585135Y-152218209D02*
G01*
X142613062Y-152236142D01*
X142661353Y-152241077D01*
X142682057Y-152251469D01*
X142824806Y-152353433D01*
X142845525Y-152375876D01*
X142901811Y-152469686D01*
X142912500Y-152508273D01*
X142912500Y-152564791D01*
X142899903Y-152606394D01*
X142884764Y-152629102D01*
X142846493Y-152658511D01*
X142822361Y-152662500D01*
X142543566Y-152662500D01*
X142514864Y-152656790D01*
X142487500Y-152639233D01*
X142460135Y-152656790D01*
X142431433Y-152662500D01*
X142152638Y-152662500D01*
X142106940Y-152646969D01*
X142075096Y-152606394D01*
X142062500Y-152564791D01*
X142062500Y-152511534D01*
X142076469Y-152467942D01*
X142176672Y-152327658D01*
X142204161Y-152304169D01*
X142371664Y-152220417D01*
X142405205Y-152212500D01*
X142556433Y-152212500D01*
X142585135Y-152218209D01*
G37*
G36*
X145485135Y-150768209D02*
G01*
X145513062Y-150786142D01*
X145561353Y-150791077D01*
X145582057Y-150801469D01*
X145724806Y-150903433D01*
X145745525Y-150925876D01*
X145801811Y-151019686D01*
X145812500Y-151058273D01*
X145812500Y-151114791D01*
X145799903Y-151156394D01*
X145784764Y-151179102D01*
X145768059Y-151196969D01*
X145722361Y-151212500D01*
X145443566Y-151212500D01*
X145414864Y-151206790D01*
X145387500Y-151189233D01*
X145360135Y-151206790D01*
X145331433Y-151212500D01*
X145052638Y-151212500D01*
X145006940Y-151196969D01*
X144975096Y-151156394D01*
X144962500Y-151114791D01*
X144962500Y-151061534D01*
X144976469Y-151017942D01*
X145076672Y-150877658D01*
X145104161Y-150854169D01*
X145271664Y-150770417D01*
X145305205Y-150762500D01*
X145456433Y-150762500D01*
X145485135Y-150768209D01*
G37*
G36*
X148385135Y-152218209D02*
G01*
X148413062Y-152236142D01*
X148461353Y-152241077D01*
X148482057Y-152251469D01*
X148624806Y-152353433D01*
X148645525Y-152375876D01*
X148701811Y-152469686D01*
X148712500Y-152508273D01*
X148712500Y-152564791D01*
X148699903Y-152606394D01*
X148684764Y-152629102D01*
X148646493Y-152658511D01*
X148622361Y-152662500D01*
X148343566Y-152662500D01*
X148314864Y-152656790D01*
X148287500Y-152639233D01*
X148260135Y-152656790D01*
X148231433Y-152662500D01*
X147952638Y-152662500D01*
X147906940Y-152646969D01*
X147875096Y-152606394D01*
X147862500Y-152564791D01*
X147862500Y-152511534D01*
X147876469Y-152467942D01*
X147976672Y-152327658D01*
X148004161Y-152304169D01*
X148171664Y-152220417D01*
X148205205Y-152212500D01*
X148356433Y-152212500D01*
X148385135Y-152218209D01*
G37*
G36*
X130985135Y-143518209D02*
G01*
X131013062Y-143536142D01*
X131061353Y-143541077D01*
X131082057Y-143551469D01*
X131224806Y-143653433D01*
X131245525Y-143675876D01*
X131301811Y-143769686D01*
X131312500Y-143808273D01*
X131312500Y-143864791D01*
X131299903Y-143906394D01*
X131268059Y-143946969D01*
X131222361Y-143962500D01*
X130943566Y-143962500D01*
X130914864Y-143956790D01*
X130887499Y-143939233D01*
X130860135Y-143956790D01*
X130831433Y-143962500D01*
X130552638Y-143962500D01*
X130528506Y-143958511D01*
X130490235Y-143929102D01*
X130475096Y-143906394D01*
X130462500Y-143864791D01*
X130466480Y-143826628D01*
X130477998Y-143805079D01*
X130592187Y-143715460D01*
X130715460Y-143592187D01*
X130756485Y-143542822D01*
X130783005Y-143520508D01*
X130816726Y-143512500D01*
X130956433Y-143512500D01*
X130985135Y-143518209D01*
G37*
G36*
X145750234Y-137067275D02*
G01*
X145922288Y-137131795D01*
X145948987Y-137148987D01*
X146027286Y-137227286D01*
X146043189Y-137250775D01*
X146116384Y-137416939D01*
X146274323Y-137597441D01*
X146291424Y-137632120D01*
X146310322Y-137726610D01*
X146331790Y-137764864D01*
X146338857Y-137836937D01*
X146356790Y-137864864D01*
X146363857Y-137936937D01*
X146381790Y-137964864D01*
X146387500Y-137993566D01*
X146388857Y-138061937D01*
X146406790Y-138089864D01*
X146412500Y-138118566D01*
X146412500Y-138314791D01*
X146399903Y-138356394D01*
X146218059Y-138621969D01*
X146172361Y-138637500D01*
X146031184Y-138639868D01*
X145942529Y-138673113D01*
X145913660Y-138677846D01*
X145885176Y-138671174D01*
X145861412Y-138654112D01*
X145845983Y-138629257D01*
X145841236Y-138600390D01*
X145862243Y-137970198D01*
X145843209Y-137935135D01*
X145833594Y-137854689D01*
X145808224Y-137808224D01*
X145342500Y-137342500D01*
X145327283Y-137320562D01*
X145320715Y-137294684D01*
X145323628Y-137268144D01*
X145335654Y-137244307D01*
X145355268Y-137226193D01*
X145594074Y-137074225D01*
X145634340Y-137062500D01*
X145750234Y-137067275D01*
G37*
G36*
X109585135Y-117043209D02*
G01*
X109618912Y-117063141D01*
X109835860Y-117084836D01*
X109860515Y-117091688D01*
X109898389Y-117114677D01*
X109990232Y-117133046D01*
X110028557Y-117153557D01*
X110065533Y-117190533D01*
X110081790Y-117214864D01*
X110088857Y-117261937D01*
X110106790Y-117289864D01*
X110112500Y-117318566D01*
X110112500Y-117519794D01*
X110104582Y-117553335D01*
X110075447Y-117597543D01*
X109935878Y-117708020D01*
X109910346Y-117712500D01*
X109612857Y-117713518D01*
X109488146Y-117805654D01*
X109461140Y-117809107D01*
X109434681Y-117802692D01*
X109342723Y-117717723D01*
X109281535Y-117705809D01*
X109256094Y-117686931D01*
X109240718Y-117659233D01*
X109211756Y-117588032D01*
X109212268Y-117557987D01*
X109224533Y-117530556D01*
X109246582Y-117510140D01*
X109274874Y-117500017D01*
X109361599Y-117486071D01*
X109406339Y-117421740D01*
X109412500Y-117401394D01*
X109412500Y-117296232D01*
X109370417Y-117203335D01*
X109362500Y-117169794D01*
X109362500Y-117118566D01*
X109368209Y-117089864D01*
X109384466Y-117065533D01*
X109414864Y-117043209D01*
X109443566Y-117037500D01*
X109556433Y-117037500D01*
X109585135Y-117043209D01*
G37*
G36*
X110685135Y-129568209D02*
G01*
X110713062Y-129586142D01*
X110764791Y-129587500D01*
X110806394Y-129600096D01*
X110868755Y-129639063D01*
X110974087Y-129670776D01*
X111144002Y-129795627D01*
X111329795Y-130027869D01*
X111432984Y-130300082D01*
X111437500Y-130325713D01*
X111437500Y-130681433D01*
X111431790Y-130710135D01*
X111413857Y-130738062D01*
X111412500Y-130789791D01*
X111399903Y-130831394D01*
X111360936Y-130893755D01*
X111329223Y-130999087D01*
X111204372Y-131169002D01*
X110972130Y-131354795D01*
X110699917Y-131457984D01*
X110674286Y-131462500D01*
X110318566Y-131462500D01*
X110289864Y-131456790D01*
X110261937Y-131438857D01*
X110210208Y-131437500D01*
X110168605Y-131424903D01*
X110106244Y-131385936D01*
X110000912Y-131354223D01*
X109830997Y-131229372D01*
X109645204Y-130997130D01*
X109542015Y-130724917D01*
X109537500Y-130699286D01*
X109537500Y-130343566D01*
X109543209Y-130314864D01*
X109561142Y-130286937D01*
X109562500Y-130235208D01*
X109575096Y-130193605D01*
X109614063Y-130131244D01*
X109645776Y-130025912D01*
X109758892Y-129867550D01*
X109843679Y-129783380D01*
X110043605Y-129650096D01*
X110121740Y-129631339D01*
X110168605Y-129600096D01*
X110210208Y-129587500D01*
X110261937Y-129586142D01*
X110289864Y-129568209D01*
X110318566Y-129562500D01*
X110656433Y-129562500D01*
X110685135Y-129568209D01*
G37*
G36*
X127979501Y-132218209D02*
G01*
X128003833Y-132234466D01*
X128020090Y-132258798D01*
X128025800Y-132287500D01*
X128025800Y-132587500D01*
X128020090Y-132616201D01*
X128003833Y-132640533D01*
X127979501Y-132656790D01*
X127888062Y-132663857D01*
X127860135Y-132681790D01*
X127831433Y-132687500D01*
X127669886Y-132687500D01*
X127635135Y-132706790D01*
X127606433Y-132712500D01*
X127469886Y-132712500D01*
X127435135Y-132731790D01*
X127406433Y-132737500D01*
X127244886Y-132737500D01*
X127210135Y-132756790D01*
X127181433Y-132762499D01*
X127044886Y-132762499D01*
X127010368Y-132782776D01*
X126984197Y-132789268D01*
X126598049Y-132812313D01*
X126572205Y-132804290D01*
X126550891Y-132787617D01*
X126536881Y-132764466D01*
X126532000Y-132737849D01*
X126532000Y-132446234D01*
X126540855Y-132410879D01*
X126565332Y-132383874D01*
X126589864Y-132368209D01*
X126618566Y-132362500D01*
X126755113Y-132362500D01*
X126789864Y-132343209D01*
X126818566Y-132337500D01*
X126980113Y-132337500D01*
X127014864Y-132318209D01*
X127043566Y-132312500D01*
X127180113Y-132312500D01*
X127214864Y-132293209D01*
X127243566Y-132287500D01*
X127380113Y-132287500D01*
X127414864Y-132268209D01*
X127443566Y-132262499D01*
X127605113Y-132262499D01*
X127639864Y-132243209D01*
X127668566Y-132237500D01*
X127805113Y-132237500D01*
X127839864Y-132218209D01*
X127868566Y-132212500D01*
X127950800Y-132212500D01*
X127979501Y-132218209D01*
G37*
G36*
X120171249Y-115702134D02*
G01*
X120191612Y-115716612D01*
X120657276Y-116182276D01*
X120707960Y-116207960D01*
X120794077Y-116290318D01*
X120953758Y-116358753D01*
X120971963Y-116361553D01*
X121206087Y-116338141D01*
X121239864Y-116318209D01*
X121336937Y-116311142D01*
X121364864Y-116293209D01*
X121393566Y-116287500D01*
X121719794Y-116287500D01*
X121753335Y-116295417D01*
X121896106Y-116371106D01*
X122072012Y-116547012D01*
X122089033Y-116573261D01*
X122093865Y-116604171D01*
X122085666Y-116634363D01*
X122065864Y-116658584D01*
X122037903Y-116672618D01*
X122006649Y-116674024D01*
X121948624Y-116664354D01*
X121578767Y-116487500D01*
X121437810Y-116488430D01*
X121336217Y-116558651D01*
X121263062Y-116563857D01*
X121235135Y-116581790D01*
X121206433Y-116587500D01*
X121143566Y-116587500D01*
X121114864Y-116581790D01*
X121080113Y-116562500D01*
X120993566Y-116562500D01*
X120964864Y-116556790D01*
X120931336Y-116536729D01*
X120728532Y-116508912D01*
X120494144Y-116415157D01*
X120430205Y-116412500D01*
X120396664Y-116404582D01*
X120256637Y-116332940D01*
X120037163Y-116163479D01*
X119989864Y-116156790D01*
X119955113Y-116137500D01*
X119793566Y-116137500D01*
X119764864Y-116131790D01*
X119730113Y-116112500D01*
X119652894Y-116112500D01*
X119623350Y-116106435D01*
X119530363Y-116066584D01*
X119506963Y-116050769D01*
X119491070Y-116027421D01*
X119484940Y-115999851D01*
X119489441Y-115971969D01*
X119503935Y-115947728D01*
X119526366Y-115930566D01*
X119646664Y-115870417D01*
X119720856Y-115857857D01*
X119948132Y-115735137D01*
X120147261Y-115695149D01*
X120171249Y-115702134D01*
G37*
G36*
X120660135Y-113443209D02*
G01*
X120694283Y-113462923D01*
X121059197Y-113485731D01*
X121085368Y-113492223D01*
X121113062Y-113511142D01*
X121151878Y-113518259D01*
X121176273Y-113534652D01*
X121192496Y-113559161D01*
X121198054Y-113588022D01*
X121192094Y-113616803D01*
X121175532Y-113641084D01*
X121150910Y-113657135D01*
X121008150Y-113713659D01*
X120640509Y-113811697D01*
X120359543Y-113939611D01*
X120190021Y-114060699D01*
X120057960Y-114192039D01*
X120007276Y-114217723D01*
X119769028Y-114455971D01*
X119655313Y-114526811D01*
X119588062Y-114538857D01*
X119560135Y-114556790D01*
X119531433Y-114562500D01*
X119169886Y-114562500D01*
X119135135Y-114581790D01*
X119088062Y-114588857D01*
X118603033Y-115071966D01*
X118578701Y-115088224D01*
X118550000Y-115093933D01*
X118521298Y-115088224D01*
X118461937Y-115038857D01*
X118414864Y-115031790D01*
X118387187Y-115013629D01*
X118114415Y-115080771D01*
X118088042Y-115082562D01*
X118062684Y-115075092D01*
X117980489Y-115031491D01*
X117812086Y-114888618D01*
X117721232Y-114887500D01*
X117629582Y-114928958D01*
X117601357Y-114936688D01*
X117572323Y-114933028D01*
X117546900Y-114918535D01*
X117528958Y-114895417D01*
X117495417Y-114828335D01*
X117487500Y-114794794D01*
X117487500Y-114620902D01*
X117493987Y-114590389D01*
X117512327Y-114565155D01*
X117734011Y-114365639D01*
X117826451Y-114229072D01*
X117855314Y-114203592D01*
X117905205Y-114187500D01*
X118120310Y-114183594D01*
X118215991Y-114134506D01*
X118366434Y-114005555D01*
X118389223Y-113992158D01*
X118461937Y-113986142D01*
X118489864Y-113968209D01*
X118518566Y-113962500D01*
X118751957Y-113962500D01*
X118771439Y-113956912D01*
X118946690Y-113847381D01*
X118981096Y-113836171D01*
X119303686Y-113813129D01*
X119448327Y-113734793D01*
X119832505Y-113638748D01*
X119995206Y-113547381D01*
X120032417Y-113537500D01*
X120294144Y-113534842D01*
X120524089Y-113442864D01*
X120551943Y-113437500D01*
X120631433Y-113437500D01*
X120660135Y-113443209D01*
G37*
G36*
X111903335Y-115495417D02*
G01*
X112083028Y-115585264D01*
X112219677Y-115615576D01*
X112378622Y-115683695D01*
X112599071Y-115852055D01*
X112629582Y-115896664D01*
X112637500Y-115930205D01*
X112637500Y-116305113D01*
X112656790Y-116339864D01*
X112662500Y-116368566D01*
X112662500Y-116455113D01*
X112681790Y-116489864D01*
X112687500Y-116518566D01*
X112687500Y-116656433D01*
X112681790Y-116685135D01*
X112661542Y-116718247D01*
X112640506Y-116844460D01*
X112626527Y-116877130D01*
X112574208Y-116946889D01*
X112544668Y-116970425D01*
X112352044Y-117056035D01*
X112321583Y-117062500D01*
X112130205Y-117062500D01*
X112096664Y-117054582D01*
X112003767Y-117012500D01*
X111847289Y-117012500D01*
X111829000Y-117017356D01*
X111679793Y-117102618D01*
X111642582Y-117112500D01*
X111563062Y-117113857D01*
X111535135Y-117131790D01*
X111506433Y-117137500D01*
X111439864Y-117131790D01*
X111405113Y-117112500D01*
X111218566Y-117112500D01*
X111189864Y-117106790D01*
X111155113Y-117087500D01*
X110901943Y-117087500D01*
X110874089Y-117082135D01*
X110779602Y-117044340D01*
X110750512Y-117023514D01*
X110618405Y-116869390D01*
X110501793Y-116818217D01*
X110476614Y-116801614D01*
X110428557Y-116753557D01*
X110408046Y-116715232D01*
X110389677Y-116623389D01*
X110370384Y-116576686D01*
X110372055Y-116549279D01*
X110390888Y-116489648D01*
X110406738Y-116471759D01*
X110657175Y-116266856D01*
X110757516Y-116096220D01*
X110815533Y-116034466D01*
X110839864Y-116018209D01*
X110868566Y-116012500D01*
X110956433Y-116012500D01*
X110985135Y-116018209D01*
X111012499Y-116035766D01*
X111082331Y-115967668D01*
X111084785Y-115955712D01*
X111045780Y-115858200D01*
X111041872Y-115815637D01*
X111055306Y-115748468D01*
X111069246Y-115717653D01*
X111095308Y-115696095D01*
X111174548Y-115660778D01*
X111328140Y-115638837D01*
X111423890Y-115572707D01*
X111454181Y-115559163D01*
X111676610Y-115514677D01*
X111714864Y-115493209D01*
X111743566Y-115487500D01*
X111869794Y-115487500D01*
X111903335Y-115495417D01*
G37*
G36*
X146007672Y-141539663D02*
G01*
X146035338Y-141554663D01*
X146054414Y-141579693D01*
X146184734Y-141856622D01*
X146242942Y-141923385D01*
X146409796Y-142257092D01*
X146468140Y-142325035D01*
X146684702Y-142806283D01*
X147049980Y-143174980D01*
X147068098Y-143204296D01*
X147093674Y-143268674D01*
X147143035Y-143323570D01*
X147150474Y-143348647D01*
X147148848Y-143374753D01*
X147112500Y-143448605D01*
X147113618Y-143537086D01*
X147249744Y-143697618D01*
X147266343Y-143731719D01*
X147282453Y-143812266D01*
X147283246Y-143836930D01*
X147275991Y-143860516D01*
X147237500Y-143946232D01*
X147237500Y-144019794D01*
X147216405Y-144079689D01*
X147215235Y-144114795D01*
X147205221Y-144142034D01*
X147185616Y-144163433D01*
X147108829Y-144189335D01*
X146860185Y-144314133D01*
X146460749Y-144596088D01*
X146436199Y-144607447D01*
X146409215Y-144609357D01*
X146238647Y-144590405D01*
X146214440Y-144583461D01*
X146187216Y-144564247D01*
X146119794Y-144587500D01*
X146029689Y-144591405D01*
X145983224Y-144616775D01*
X145780596Y-144819403D01*
X145756941Y-144835377D01*
X145729032Y-144841356D01*
X145700909Y-144836474D01*
X145676647Y-144821439D01*
X145659760Y-144798428D01*
X145652692Y-144770774D01*
X145638483Y-144529213D01*
X145643717Y-144496955D01*
X145687500Y-144380343D01*
X145687500Y-144246232D01*
X145620417Y-144103335D01*
X145612500Y-144069794D01*
X145612500Y-143963808D01*
X145616727Y-143938983D01*
X145628934Y-143916956D01*
X145714271Y-143808956D01*
X145784796Y-143667907D01*
X145811265Y-143496144D01*
X145793209Y-143460135D01*
X145787500Y-143431433D01*
X145783594Y-143354689D01*
X145692543Y-143172586D01*
X145659992Y-143007484D01*
X145595417Y-142878335D01*
X145587500Y-142844794D01*
X145587500Y-142743566D01*
X145593209Y-142714864D01*
X145612500Y-142680113D01*
X145617499Y-142599502D01*
X145736356Y-142290472D01*
X145758046Y-142184767D01*
X145786142Y-142136937D01*
X145787500Y-141918566D01*
X145793209Y-141889864D01*
X145812500Y-141855113D01*
X145812500Y-141760208D01*
X145825096Y-141718605D01*
X145924149Y-141570025D01*
X145946711Y-141548085D01*
X145976288Y-141537334D01*
X146007672Y-141539663D01*
G37*
G36*
X116178335Y-114495417D02*
G01*
X116222279Y-114523784D01*
X116519176Y-114866357D01*
X116532770Y-114889264D01*
X116537500Y-114916147D01*
X116532450Y-114943202D01*
X116517981Y-114966613D01*
X116382260Y-115044486D01*
X116313430Y-115137810D01*
X116313857Y-115211937D01*
X116362806Y-115261005D01*
X116480427Y-115215329D01*
X116530740Y-115169259D01*
X116540126Y-115153308D01*
X116573376Y-115036933D01*
X116587121Y-115010441D01*
X116610109Y-114991407D01*
X116638700Y-114982845D01*
X116855997Y-114963091D01*
X116889864Y-114943209D01*
X116918566Y-114937500D01*
X116994794Y-114937500D01*
X117051614Y-114957057D01*
X117190582Y-115089554D01*
X117257135Y-115133923D01*
X117329464Y-115159139D01*
X117348410Y-115177950D01*
X117359567Y-115202207D01*
X117361519Y-115228834D01*
X117354020Y-115254458D01*
X117319516Y-115323467D01*
X117300447Y-115347543D01*
X117160878Y-115458020D01*
X117088062Y-115463857D01*
X117060135Y-115481790D01*
X117031433Y-115487500D01*
X116719886Y-115487500D01*
X116685135Y-115506790D01*
X116656433Y-115512500D01*
X116288062Y-115513857D01*
X116234738Y-115570784D01*
X116197323Y-115683028D01*
X116182831Y-115708451D01*
X116159713Y-115726393D01*
X116119794Y-115737500D01*
X115994886Y-115737500D01*
X115960135Y-115756790D01*
X115913062Y-115763857D01*
X115817723Y-115857276D01*
X115806790Y-115910135D01*
X115787500Y-115944886D01*
X115787500Y-116206433D01*
X115781790Y-116235135D01*
X115765533Y-116259466D01*
X115582449Y-116441107D01*
X115424921Y-116553627D01*
X115397598Y-116565811D01*
X115196255Y-116610554D01*
X115027439Y-116741811D01*
X114876649Y-116806435D01*
X114803259Y-116818660D01*
X114655249Y-116915400D01*
X114550910Y-116957135D01*
X114523056Y-116962500D01*
X114393566Y-116962500D01*
X114364864Y-116956790D01*
X114331752Y-116936542D01*
X114177413Y-116907456D01*
X114028893Y-116828893D01*
X113959466Y-116759466D01*
X113943209Y-116735135D01*
X113933594Y-116679689D01*
X113895417Y-116603335D01*
X113887500Y-116569794D01*
X113885259Y-116481338D01*
X113792964Y-116227526D01*
X113788639Y-116196551D01*
X113810506Y-115890406D01*
X113817092Y-115864596D01*
X113837500Y-115830113D01*
X113837500Y-115755205D01*
X113845417Y-115721664D01*
X113867795Y-115681027D01*
X114066877Y-115437705D01*
X114086742Y-115420644D01*
X114117620Y-115407891D01*
X114353658Y-115195457D01*
X114590150Y-115085733D01*
X114874585Y-114896109D01*
X114902771Y-114884723D01*
X115153323Y-114839168D01*
X115169782Y-114831673D01*
X115281144Y-114742584D01*
X115332057Y-114648385D01*
X115399980Y-114575019D01*
X115429296Y-114556901D01*
X115625953Y-114491348D01*
X116144794Y-114487500D01*
X116178335Y-114495417D01*
G37*
G36*
X136741201Y-150493209D02*
G01*
X136765533Y-150509466D01*
X136781790Y-150533798D01*
X136787500Y-150562500D01*
X136788792Y-150936638D01*
X137073804Y-151056793D01*
X137097991Y-151072991D01*
X137277008Y-151252008D01*
X137293206Y-151276195D01*
X137413361Y-151561207D01*
X137787500Y-151562500D01*
X137816201Y-151568209D01*
X137840533Y-151584466D01*
X137856790Y-151608798D01*
X137862500Y-151637500D01*
X137862500Y-151712500D01*
X137856790Y-151741201D01*
X137840533Y-151765533D01*
X137816201Y-151781790D01*
X137787500Y-151787500D01*
X137413361Y-151788792D01*
X137293206Y-152073804D01*
X137277008Y-152097991D01*
X137097991Y-152277008D01*
X137073804Y-152293206D01*
X136788792Y-152413361D01*
X136787500Y-152787500D01*
X136781790Y-152816201D01*
X136765533Y-152840533D01*
X136741201Y-152856790D01*
X136712500Y-152862500D01*
X136612499Y-152862500D01*
X136583798Y-152856790D01*
X136559466Y-152840533D01*
X136543209Y-152816201D01*
X136537500Y-152787500D01*
X136537500Y-152419886D01*
X136532276Y-152407276D01*
X136501610Y-152385322D01*
X136375887Y-152355242D01*
X136180034Y-152228789D01*
X136033370Y-152054241D01*
X135970417Y-151928335D01*
X135962500Y-151894794D01*
X135961142Y-151838062D01*
X135917723Y-151792723D01*
X135905113Y-151787500D01*
X135562500Y-151787500D01*
X135533798Y-151781790D01*
X135509466Y-151765533D01*
X135493209Y-151741201D01*
X135487500Y-151712500D01*
X135487500Y-151712192D01*
X136163514Y-151712192D01*
X136184159Y-151739219D01*
X136191451Y-151761207D01*
X136210782Y-151877193D01*
X136219380Y-151895363D01*
X136394032Y-152090766D01*
X136546232Y-152162500D01*
X136780343Y-152162500D01*
X136917886Y-152107113D01*
X137090203Y-151932092D01*
X137133594Y-151845310D01*
X137143209Y-151789864D01*
X137161142Y-151761937D01*
X137162500Y-151594886D01*
X137143209Y-151560135D01*
X137133594Y-151504689D01*
X137090203Y-151417907D01*
X136917886Y-151242886D01*
X136780343Y-151187500D01*
X136546232Y-151187500D01*
X136382690Y-151267996D01*
X136218974Y-151455100D01*
X136210571Y-151472141D01*
X136163514Y-151712192D01*
X135487500Y-151712192D01*
X135487500Y-151637500D01*
X135493209Y-151608798D01*
X135509466Y-151584466D01*
X135533798Y-151568209D01*
X135562500Y-151562500D01*
X135905113Y-151562500D01*
X135917723Y-151557276D01*
X135961142Y-151511937D01*
X135962500Y-151456934D01*
X135971938Y-151420511D01*
X136097330Y-151203898D01*
X136280259Y-151043835D01*
X136371664Y-150995417D01*
X136445310Y-150983594D01*
X136536338Y-150936782D01*
X136537500Y-150562500D01*
X136543209Y-150533798D01*
X136559466Y-150509466D01*
X136583798Y-150493209D01*
X136612499Y-150487500D01*
X136712500Y-150487500D01*
X136741201Y-150493209D01*
G37*
G36*
X125885135Y-115193209D02*
G01*
X125909466Y-115209466D01*
X126269572Y-115565329D01*
X126393066Y-115612963D01*
X126660121Y-115635218D01*
X126685449Y-115641921D01*
X126718247Y-115663457D01*
X126824827Y-115681221D01*
X126857055Y-115694871D01*
X126891775Y-115741775D01*
X127357439Y-116207439D01*
X127558541Y-116296023D01*
X127579065Y-116316673D01*
X127591031Y-116347868D01*
X127583115Y-116542739D01*
X127570475Y-116565052D01*
X127510135Y-116606790D01*
X127481433Y-116612500D01*
X127369886Y-116612500D01*
X127335135Y-116631790D01*
X127306433Y-116637500D01*
X127044886Y-116637500D01*
X127010135Y-116656790D01*
X126904689Y-116666405D01*
X126858224Y-116691775D01*
X126385445Y-117165582D01*
X126343660Y-117228259D01*
X126324903Y-117306394D01*
X126293660Y-117353259D01*
X126281790Y-117435135D01*
X126262500Y-117469886D01*
X126262500Y-117805343D01*
X126367886Y-118067886D01*
X126879647Y-118579647D01*
X126898389Y-118589677D01*
X126990232Y-118608046D01*
X127038062Y-118636142D01*
X127110135Y-118643209D01*
X127144886Y-118662500D01*
X127250910Y-118667864D01*
X127336663Y-118702165D01*
X127360880Y-118717823D01*
X127377399Y-118741463D01*
X127383776Y-118769588D01*
X127379068Y-118798040D01*
X127363973Y-118822613D01*
X127340721Y-118839672D01*
X127312750Y-118846697D01*
X127032272Y-118861459D01*
X126994790Y-118853645D01*
X126766971Y-118739735D01*
X126503516Y-118683008D01*
X126406295Y-118632536D01*
X126157842Y-118435503D01*
X125994501Y-118365500D01*
X125918605Y-118349903D01*
X125871740Y-118318660D01*
X125793605Y-118299903D01*
X125746740Y-118268660D01*
X125668605Y-118249903D01*
X125621740Y-118218660D01*
X125601394Y-118212500D01*
X125368566Y-118212500D01*
X125339864Y-118206790D01*
X125311937Y-118188857D01*
X125264223Y-118182841D01*
X125241434Y-118169444D01*
X125083386Y-118035443D01*
X124982597Y-117986519D01*
X124877048Y-117965409D01*
X124796740Y-117918660D01*
X124721664Y-117904582D01*
X124431295Y-117757536D01*
X124306040Y-117652811D01*
X124164554Y-117440582D01*
X124066195Y-117341195D01*
X123844415Y-117216341D01*
X123274487Y-117163542D01*
X122919501Y-117015500D01*
X122743566Y-117012500D01*
X122714864Y-117006790D01*
X122681336Y-116986729D01*
X122476009Y-116956754D01*
X122380259Y-116906164D01*
X122249553Y-116791797D01*
X122232793Y-116770700D01*
X122224570Y-116745042D01*
X122225945Y-116718133D01*
X122236742Y-116693446D01*
X122255566Y-116674169D01*
X122355205Y-116637500D01*
X122444810Y-116634177D01*
X122697710Y-116519222D01*
X122728745Y-116512500D01*
X122948899Y-116512500D01*
X122975234Y-116517275D01*
X123356184Y-116660131D01*
X123435135Y-116668209D01*
X123469886Y-116687500D01*
X123644794Y-116687500D01*
X123712216Y-116710752D01*
X123739864Y-116693209D01*
X123768566Y-116687500D01*
X123911937Y-116686142D01*
X123959767Y-116658046D01*
X124066971Y-116635264D01*
X124264890Y-116535792D01*
X124605148Y-116292750D01*
X124867886Y-116182113D01*
X125365203Y-115682092D01*
X125387500Y-115628767D01*
X125387500Y-115518566D01*
X125393209Y-115489864D01*
X125412500Y-115455113D01*
X125412500Y-115337500D01*
X125420234Y-115304328D01*
X125441842Y-115277998D01*
X125537248Y-115233964D01*
X125681514Y-115213355D01*
X125714864Y-115193209D01*
X125743566Y-115187500D01*
X125856433Y-115187500D01*
X125885135Y-115193209D01*
G37*
G36*
X137910379Y-149186696D02*
G01*
X138075120Y-149187500D01*
X138146972Y-149210787D01*
X138233973Y-149223725D01*
X138311840Y-149247368D01*
X138363706Y-149272319D01*
X138445231Y-149298026D01*
X138718588Y-149471008D01*
X138875971Y-149625971D01*
X139014552Y-149821954D01*
X139059789Y-149925994D01*
X139079083Y-149989686D01*
X139107964Y-150042603D01*
X139119667Y-150122777D01*
X139138857Y-150186937D01*
X139161146Y-150234272D01*
X139162500Y-153097249D01*
X139139601Y-153176937D01*
X139137500Y-153244794D01*
X139129582Y-153278335D01*
X139091405Y-153354689D01*
X139081435Y-153397790D01*
X139002360Y-153582300D01*
X138978368Y-153620919D01*
X138671754Y-153952533D01*
X138650335Y-153968582D01*
X138517907Y-154034796D01*
X138475220Y-154069336D01*
X138404689Y-154091405D01*
X138301725Y-154142887D01*
X138188062Y-154163857D01*
X138124937Y-154187500D01*
X138044643Y-154191051D01*
X137976364Y-154212500D01*
X119002750Y-154212500D01*
X118921249Y-154189286D01*
X118850062Y-154187500D01*
X118786937Y-154163857D01*
X118673274Y-154142887D01*
X118570310Y-154091405D01*
X118499779Y-154069336D01*
X118457092Y-154034796D01*
X118330898Y-153968392D01*
X118238443Y-153882747D01*
X118022671Y-153647493D01*
X117897381Y-153428236D01*
X117883594Y-153354689D01*
X117841073Y-153251707D01*
X117835398Y-153176937D01*
X117812500Y-153097249D01*
X117812649Y-152901730D01*
X118062500Y-152901730D01*
X118087500Y-153002750D01*
X118091405Y-153145310D01*
X118104724Y-153171949D01*
X118124550Y-153258988D01*
X118226126Y-153461609D01*
X118266195Y-153516195D01*
X118442263Y-153707616D01*
X118516840Y-153764980D01*
X118682250Y-153859500D01*
X118771798Y-153879359D01*
X118838062Y-153911142D01*
X118894021Y-153915729D01*
X118960379Y-153936696D01*
X138005113Y-153937500D01*
X138098635Y-153912500D01*
X138138799Y-153910772D01*
X138231393Y-153874715D01*
X138291971Y-153860264D01*
X138382766Y-153814866D01*
X138536017Y-153705339D01*
X138677197Y-153564224D01*
X138702995Y-153530224D01*
X138847267Y-153265338D01*
X138872067Y-153162092D01*
X138887500Y-153130113D01*
X138887500Y-152998635D01*
X138912500Y-152905113D01*
X138912500Y-150469886D01*
X138887500Y-150376364D01*
X138883948Y-150244643D01*
X138849900Y-150161902D01*
X138833869Y-150081448D01*
X138726941Y-149892633D01*
X138684247Y-149834247D01*
X138491775Y-149641775D01*
X138289256Y-149527572D01*
X138195310Y-149491405D01*
X138090811Y-149463766D01*
X137973635Y-149462500D01*
X137880113Y-149437500D01*
X119094886Y-149437500D01*
X118997249Y-149462500D01*
X118877238Y-149464987D01*
X118778465Y-149501505D01*
X118718834Y-149511444D01*
X118483414Y-149641956D01*
X118270681Y-149863014D01*
X118210162Y-149942174D01*
X118140007Y-150082484D01*
X118125099Y-150161902D01*
X118093168Y-150236007D01*
X118087500Y-150269886D01*
X118087500Y-150372249D01*
X118062500Y-150473269D01*
X118062500Y-152901730D01*
X117812649Y-152901730D01*
X117814504Y-150473269D01*
X117814690Y-150229926D01*
X117836142Y-150186937D01*
X117870361Y-150046776D01*
X117897319Y-149986293D01*
X117921998Y-149906439D01*
X118099372Y-149626706D01*
X118325177Y-149421429D01*
X118402769Y-149367365D01*
X118564035Y-149286732D01*
X118705818Y-149231826D01*
X118832152Y-149208544D01*
X118902750Y-149187500D01*
X119064620Y-149186696D01*
X119152750Y-149162500D01*
X137826364Y-149162500D01*
X137910379Y-149186696D01*
G37*
G36*
X135903335Y-112945417D02*
G01*
X135984631Y-112990368D01*
X136114376Y-113240058D01*
X136385806Y-113610190D01*
X136991443Y-114214866D01*
X137107741Y-114284644D01*
X137224285Y-114321071D01*
X137487818Y-114511397D01*
X137844525Y-114488698D01*
X137879058Y-114494596D01*
X138024224Y-114556810D01*
X138047713Y-114572713D01*
X138184880Y-114709880D01*
X138257135Y-114758923D01*
X138340469Y-114781992D01*
X138377775Y-114804302D01*
X138605540Y-115054844D01*
X138764524Y-115365199D01*
X139065524Y-115768548D01*
X139164325Y-115968432D01*
X139260900Y-116282302D01*
X139349903Y-116418605D01*
X139362500Y-116460208D01*
X139367745Y-116521242D01*
X139505816Y-116751360D01*
X139560472Y-117002360D01*
X139569513Y-117020098D01*
X139853113Y-117327331D01*
X139896268Y-117421921D01*
X139901601Y-117447619D01*
X139897754Y-117473580D01*
X139824852Y-117572059D01*
X139794141Y-117594843D01*
X139682113Y-117642886D01*
X139588857Y-117738062D01*
X139581790Y-117785135D01*
X139562500Y-117819886D01*
X139562500Y-117906433D01*
X139556790Y-117935135D01*
X139537500Y-117969886D01*
X139537500Y-118130113D01*
X139558078Y-118164550D01*
X139564781Y-118189878D01*
X139586818Y-118454320D01*
X139777618Y-118795206D01*
X139787500Y-118832417D01*
X139787500Y-118991726D01*
X139776811Y-119030313D01*
X139725156Y-119116406D01*
X139706642Y-119137212D01*
X139681813Y-119149828D01*
X139654092Y-119152514D01*
X139627303Y-119144901D01*
X139420310Y-119041405D01*
X139343605Y-119024903D01*
X139296740Y-118993660D01*
X139221664Y-118979582D01*
X139148385Y-118942942D01*
X138666775Y-118466775D01*
X138520310Y-118391405D01*
X138414864Y-118381790D01*
X138380113Y-118362500D01*
X138118566Y-118362500D01*
X138089864Y-118356790D01*
X138055113Y-118337500D01*
X137980205Y-118337500D01*
X137946664Y-118329582D01*
X137916643Y-118308769D01*
X137902158Y-118284923D01*
X137842275Y-118125234D01*
X137834842Y-118030855D01*
X137740068Y-117793922D01*
X137407692Y-117427884D01*
X137370417Y-117353335D01*
X137358594Y-117279689D01*
X137215203Y-116992907D01*
X136643065Y-116418065D01*
X136314266Y-116288179D01*
X136044664Y-116214454D01*
X135847278Y-116117389D01*
X135433686Y-115735320D01*
X135270999Y-115642356D01*
X135196664Y-115629582D01*
X135103958Y-115583229D01*
X135082018Y-115566613D01*
X135067549Y-115543202D01*
X135059842Y-115480855D01*
X135017864Y-115375910D01*
X135012500Y-115269886D01*
X134993209Y-115235135D01*
X134986142Y-115138062D01*
X134968209Y-115110135D01*
X134961142Y-115038062D01*
X134943209Y-115010135D01*
X134937500Y-114981433D01*
X134934842Y-114930855D01*
X134892864Y-114825910D01*
X134887500Y-114798056D01*
X134887500Y-114694886D01*
X134868209Y-114660135D01*
X134862500Y-114631433D01*
X134862500Y-114244886D01*
X134843209Y-114210135D01*
X134837500Y-114181433D01*
X134837500Y-113969886D01*
X134818209Y-113935135D01*
X134812500Y-113906433D01*
X134812500Y-113819886D01*
X134793209Y-113785135D01*
X134787500Y-113756433D01*
X134786142Y-113663062D01*
X134766814Y-113635479D01*
X134760041Y-113610457D01*
X134738091Y-113369002D01*
X134708046Y-113315232D01*
X134699338Y-113271694D01*
X134698976Y-113244220D01*
X134708533Y-113218460D01*
X134726726Y-113197870D01*
X134751114Y-113185214D01*
X134778423Y-113182190D01*
X134804988Y-113189205D01*
X135020828Y-113287500D01*
X135161937Y-113286142D01*
X135189864Y-113268209D01*
X135242723Y-113257276D01*
X135291823Y-113208176D01*
X135310253Y-113194668D01*
X135342516Y-113183319D01*
X135616639Y-112954883D01*
X135639121Y-112941979D01*
X135869794Y-112937500D01*
X135903335Y-112945417D01*
G37*
G36*
X142217845Y-122563443D02*
G01*
X142619862Y-122634387D01*
X142651828Y-122648246D01*
X142932663Y-122858872D01*
X142995703Y-122881901D01*
X143025019Y-122900019D01*
X143097810Y-122972810D01*
X143117538Y-123007653D01*
X143139335Y-123091170D01*
X143234796Y-123282092D01*
X143359880Y-123409880D01*
X143583340Y-123559726D01*
X143645703Y-123581901D01*
X143675019Y-123600019D01*
X143713062Y-123636142D01*
X143780313Y-123648188D01*
X143861659Y-123696995D01*
X143882854Y-123716019D01*
X143895429Y-123741573D01*
X143964695Y-123991452D01*
X144206814Y-124427265D01*
X144260322Y-124676610D01*
X144281790Y-124714864D01*
X144287500Y-124743566D01*
X144287500Y-124831433D01*
X144281790Y-124860135D01*
X144263884Y-124887598D01*
X144408651Y-125088782D01*
X144412500Y-125155113D01*
X144431790Y-125189864D01*
X144441405Y-125270310D01*
X144479582Y-125346664D01*
X144487500Y-125380205D01*
X144487500Y-125455113D01*
X144506790Y-125489864D01*
X144512500Y-125518566D01*
X144516405Y-125645310D01*
X144604582Y-125821664D01*
X144612500Y-125855205D01*
X144613430Y-125912189D01*
X144683651Y-126013782D01*
X144690500Y-126069501D01*
X144763727Y-126248546D01*
X144786799Y-126456198D01*
X144806790Y-126489864D01*
X144812500Y-126518566D01*
X144812500Y-127030113D01*
X144831790Y-127064864D01*
X144842142Y-127145856D01*
X144959961Y-127357931D01*
X145042069Y-127442069D01*
X145057588Y-127464679D01*
X145063942Y-127491357D01*
X145086681Y-127946124D01*
X145081410Y-127977723D01*
X145037500Y-128094656D01*
X145033651Y-128286217D01*
X144960410Y-128384600D01*
X144882111Y-128416990D01*
X144742345Y-128533461D01*
X144667745Y-128653757D01*
X144662500Y-128672694D01*
X144662500Y-128830113D01*
X144706790Y-128889864D01*
X144713857Y-128936937D01*
X144731790Y-128964864D01*
X144737500Y-128993566D01*
X144741405Y-129145310D01*
X144829582Y-129321664D01*
X144837500Y-129355205D01*
X144837500Y-129497105D01*
X144831435Y-129526649D01*
X144806137Y-129585679D01*
X144789714Y-129609683D01*
X144765395Y-129625634D01*
X144736835Y-129631134D01*
X144708331Y-129625356D01*
X144684168Y-129609168D01*
X144357092Y-129284796D01*
X144303767Y-129262499D01*
X144218566Y-129262499D01*
X144189864Y-129256790D01*
X144155113Y-129237500D01*
X143968566Y-129237500D01*
X143939864Y-129231790D01*
X143911937Y-129213857D01*
X143855205Y-129212500D01*
X143821664Y-129204582D01*
X143778893Y-129178893D01*
X143544602Y-128944602D01*
X143434990Y-128752462D01*
X143359820Y-128457907D01*
X143189934Y-128166673D01*
X142715119Y-127690119D01*
X142440401Y-127506100D01*
X142418553Y-127483685D01*
X142407757Y-127454303D01*
X142388355Y-127318485D01*
X142368209Y-127285135D01*
X142362500Y-127256433D01*
X142362500Y-126669886D01*
X142343209Y-126635135D01*
X142333594Y-126554689D01*
X142283224Y-126458224D01*
X141784466Y-125959466D01*
X141768209Y-125935135D01*
X141762500Y-125906433D01*
X141762500Y-125830205D01*
X141783197Y-125771105D01*
X142139793Y-125357339D01*
X142234303Y-125144692D01*
X142237500Y-125080205D01*
X142245417Y-125046664D01*
X142283594Y-124970310D01*
X142295417Y-124896664D01*
X142408594Y-124670310D01*
X142418209Y-124614864D01*
X142437500Y-124580113D01*
X142437500Y-124243566D01*
X142443209Y-124214864D01*
X142462500Y-124180113D01*
X142462500Y-124043566D01*
X142468209Y-124014864D01*
X142488355Y-123981514D01*
X142510778Y-123824548D01*
X142558594Y-123720310D01*
X142568209Y-123639864D01*
X142587500Y-123605113D01*
X142587500Y-123419886D01*
X142558046Y-123365232D01*
X142532874Y-123256024D01*
X142410795Y-123085681D01*
X142043529Y-122693931D01*
X141990397Y-122605070D01*
X141981407Y-122579390D01*
X141982170Y-122552192D01*
X141992586Y-122527057D01*
X142011284Y-122507291D01*
X142035803Y-122495497D01*
X142062917Y-122493226D01*
X142217845Y-122563443D01*
G37*
G36*
X131476649Y-111218564D02*
G01*
X131645117Y-111287500D01*
X131896583Y-111287500D01*
X131927044Y-111293964D01*
X132145370Y-111387500D01*
X132280113Y-111387500D01*
X132314864Y-111368209D01*
X132343566Y-111362500D01*
X132430113Y-111362500D01*
X132464864Y-111343209D01*
X132493566Y-111337500D01*
X132731433Y-111337500D01*
X132760135Y-111343209D01*
X132788062Y-111361142D01*
X132856433Y-111362500D01*
X132885135Y-111368209D01*
X132913062Y-111386142D01*
X132985135Y-111393209D01*
X133013062Y-111411142D01*
X133069794Y-111412500D01*
X133103335Y-111420417D01*
X133179689Y-111458594D01*
X133253963Y-111471215D01*
X133654391Y-111683207D01*
X133731394Y-111700096D01*
X133778259Y-111731339D01*
X133853335Y-111745417D01*
X133926614Y-111782057D01*
X134026893Y-111876893D01*
X134043211Y-111901370D01*
X134206850Y-112298780D01*
X134212500Y-112327336D01*
X134207135Y-112425910D01*
X134165157Y-112530855D01*
X134162500Y-112612500D01*
X134156790Y-112641201D01*
X134140533Y-112665533D01*
X134116201Y-112681790D01*
X134087500Y-112687500D01*
X133881184Y-112689868D01*
X133695018Y-112759680D01*
X133329582Y-113117250D01*
X132709468Y-113490405D01*
X132115025Y-114060079D01*
X131983110Y-114241889D01*
X131591035Y-114633964D01*
X131492355Y-114794809D01*
X131469731Y-114807938D01*
X131388062Y-114813857D01*
X131360135Y-114831790D01*
X131331433Y-114837500D01*
X130919886Y-114837500D01*
X130885479Y-114858185D01*
X130860457Y-114864958D01*
X130619485Y-114886864D01*
X130528335Y-114929582D01*
X130453259Y-114943660D01*
X130406394Y-114974903D01*
X130329143Y-114992142D01*
X130123819Y-115106211D01*
X129968247Y-115136542D01*
X129935135Y-115156790D01*
X129906433Y-115162500D01*
X129824089Y-115157135D01*
X129726793Y-115118217D01*
X129701614Y-115101614D01*
X129366035Y-114766035D01*
X129193659Y-114666019D01*
X129037248Y-114641035D01*
X128980113Y-114612500D01*
X128693566Y-114612500D01*
X128664864Y-114606790D01*
X128636937Y-114588857D01*
X128543566Y-114587500D01*
X128514864Y-114581790D01*
X128486937Y-114563857D01*
X128439864Y-114556790D01*
X128415533Y-114540533D01*
X127966775Y-114091775D01*
X127870310Y-114041405D01*
X127764864Y-114031790D01*
X127730113Y-114012500D01*
X127343566Y-114012500D01*
X127314864Y-114006790D01*
X127286937Y-113988857D01*
X127239223Y-113982841D01*
X127216434Y-113969444D01*
X127067557Y-113841834D01*
X127016855Y-113816855D01*
X126884417Y-113685445D01*
X126740740Y-113589660D01*
X126366965Y-113439286D01*
X126188034Y-113415691D01*
X126164385Y-113408644D01*
X126130680Y-113387098D01*
X125740965Y-113364174D01*
X125714645Y-113357721D01*
X125680113Y-113337500D01*
X125468566Y-113337500D01*
X125439864Y-113331790D01*
X125404000Y-113313562D01*
X125206796Y-113340351D01*
X125121483Y-113383008D01*
X124994704Y-113411059D01*
X124931394Y-113449903D01*
X124853757Y-113467745D01*
X124755313Y-113526811D01*
X124688062Y-113538857D01*
X124159796Y-114067907D01*
X124137500Y-114121232D01*
X124137500Y-114305113D01*
X124156790Y-114339864D01*
X124162500Y-114381433D01*
X124156790Y-114410135D01*
X124140533Y-114434466D01*
X124116201Y-114450724D01*
X124087499Y-114456433D01*
X124058798Y-114450724D01*
X124034466Y-114434466D01*
X123507092Y-113909796D01*
X123359538Y-113836588D01*
X123047949Y-113740715D01*
X122971740Y-113693660D01*
X122893605Y-113674903D01*
X122846740Y-113643660D01*
X122826394Y-113637500D01*
X122638062Y-113638857D01*
X122201468Y-114073531D01*
X122174275Y-114090906D01*
X122142299Y-114095247D01*
X122111459Y-114085750D01*
X121665533Y-113640533D01*
X121649275Y-113616201D01*
X121643566Y-113587500D01*
X121649275Y-113558798D01*
X121665533Y-113534466D01*
X121689864Y-113518209D01*
X121718566Y-113512500D01*
X121760135Y-113518209D01*
X121794886Y-113537500D01*
X122055113Y-113537500D01*
X122112248Y-113508964D01*
X122254185Y-113488687D01*
X122493021Y-113334990D01*
X122747710Y-113219222D01*
X122820856Y-113207857D01*
X123020511Y-113096938D01*
X123056934Y-113087500D01*
X123136937Y-113086142D01*
X123164864Y-113068209D01*
X123193566Y-113062500D01*
X123419794Y-113062500D01*
X123453335Y-113070417D01*
X123629689Y-113158594D01*
X123710135Y-113168209D01*
X123738161Y-113185434D01*
X123894121Y-113158085D01*
X124031002Y-113066831D01*
X124167886Y-113007113D01*
X124282276Y-112892723D01*
X124295417Y-112821664D01*
X124346106Y-112728893D01*
X124789866Y-112283556D01*
X124859182Y-112168028D01*
X124883046Y-112059767D01*
X124903557Y-112021442D01*
X124978893Y-111946106D01*
X125121664Y-111870417D01*
X125155205Y-111862500D01*
X125211937Y-111861142D01*
X125259767Y-111833046D01*
X125351610Y-111814677D01*
X125370352Y-111804647D01*
X125431325Y-111743674D01*
X125456901Y-111679296D01*
X125475019Y-111649980D01*
X125603041Y-111521958D01*
X125624645Y-111506894D01*
X125926927Y-111367379D01*
X126131336Y-111338270D01*
X126164864Y-111318209D01*
X126193566Y-111312500D01*
X126422105Y-111312500D01*
X126451649Y-111318564D01*
X126605498Y-111384499D01*
X126710135Y-111393209D01*
X126744886Y-111412500D01*
X126955113Y-111412500D01*
X126997868Y-111394000D01*
X127027131Y-111394000D01*
X127063062Y-111411142D01*
X127105113Y-111412500D01*
X127139864Y-111393209D01*
X127168566Y-111387500D01*
X127281433Y-111387500D01*
X127310135Y-111393209D01*
X127344886Y-111412500D01*
X127856433Y-111412500D01*
X127885135Y-111418209D01*
X127913062Y-111436142D01*
X128010135Y-111443209D01*
X128044886Y-111462500D01*
X128180113Y-111462500D01*
X128214864Y-111443209D01*
X128295310Y-111433594D01*
X128571664Y-111295417D01*
X128605205Y-111287500D01*
X129005113Y-111287500D01*
X129039864Y-111268209D01*
X129124286Y-111262500D01*
X129149917Y-111267015D01*
X129681338Y-111460259D01*
X129735135Y-111468209D01*
X129769886Y-111487500D01*
X130005113Y-111487500D01*
X130061207Y-111458548D01*
X130179650Y-111438808D01*
X130278378Y-111384853D01*
X130556969Y-111338421D01*
X130646664Y-111295417D01*
X130680205Y-111287500D01*
X130755113Y-111287500D01*
X130789864Y-111268209D01*
X130818566Y-111262500D01*
X131105343Y-111262500D01*
X131251943Y-111212500D01*
X131447105Y-111212500D01*
X131476649Y-111218564D01*
G37*
G36*
X134170782Y-117585828D02*
G01*
X134201906Y-117596144D01*
X134317232Y-117663852D01*
X134618529Y-117749936D01*
X134642914Y-117762043D01*
X134661372Y-117782057D01*
X134671468Y-117807342D01*
X134736826Y-118134130D01*
X134870629Y-118470324D01*
X134875982Y-118496869D01*
X134871560Y-118523584D01*
X134857938Y-118546988D01*
X134588618Y-118862913D01*
X134581790Y-118935135D01*
X134562500Y-118969886D01*
X134562500Y-119180113D01*
X134581790Y-119214864D01*
X134591405Y-119270310D01*
X134616775Y-119316775D01*
X135084247Y-119784247D01*
X135217734Y-119867152D01*
X135441916Y-120064708D01*
X135592744Y-120138453D01*
X135839449Y-120183309D01*
X135860841Y-120190665D01*
X135888062Y-120211142D01*
X135985135Y-120218209D01*
X136019886Y-120237500D01*
X136106433Y-120237500D01*
X136135135Y-120243209D01*
X136169886Y-120262500D01*
X136605113Y-120262500D01*
X136639864Y-120243209D01*
X136736937Y-120236142D01*
X136764864Y-120218209D01*
X136793566Y-120212500D01*
X137081433Y-120212500D01*
X137110135Y-120218209D01*
X137138062Y-120236142D01*
X137210135Y-120243209D01*
X137248389Y-120264677D01*
X137372881Y-120293339D01*
X137754080Y-120507763D01*
X137772160Y-120512500D01*
X138003191Y-120512500D01*
X138020696Y-120508086D01*
X138326545Y-120343398D01*
X138481752Y-120313457D01*
X138514864Y-120293209D01*
X138543566Y-120287500D01*
X138856433Y-120287500D01*
X138885135Y-120293209D01*
X138913062Y-120311142D01*
X138964791Y-120312500D01*
X139006394Y-120325096D01*
X139053259Y-120356339D01*
X139111217Y-120366348D01*
X139217085Y-120439334D01*
X139343997Y-120491831D01*
X139461651Y-120570267D01*
X139482365Y-120590938D01*
X139493592Y-120617962D01*
X139510322Y-120701610D01*
X139533311Y-120739484D01*
X139540163Y-120764139D01*
X139561858Y-120981087D01*
X139581790Y-121014864D01*
X139587500Y-121043566D01*
X139587500Y-121130113D01*
X139606790Y-121164864D01*
X139612500Y-121193566D01*
X139612500Y-121280113D01*
X139631790Y-121314864D01*
X139637500Y-121343566D01*
X139637500Y-121430113D01*
X139656790Y-121464864D01*
X139662500Y-121493566D01*
X139662500Y-121605113D01*
X139681790Y-121639864D01*
X139687500Y-121668566D01*
X139687500Y-121931433D01*
X139681790Y-121960135D01*
X139663857Y-121988062D01*
X139656790Y-122085135D01*
X139635322Y-122123389D01*
X139615409Y-122222951D01*
X139568660Y-122303259D01*
X139554582Y-122378335D01*
X139366405Y-122754689D01*
X139356790Y-122835135D01*
X139337500Y-122869886D01*
X139337500Y-123030113D01*
X139366451Y-123086207D01*
X139386191Y-123204650D01*
X139435445Y-123284417D01*
X139811432Y-123661432D01*
X139827187Y-123684578D01*
X139833355Y-123711889D01*
X139829077Y-123739559D01*
X139814949Y-123763731D01*
X139792940Y-123781038D01*
X139763143Y-123789375D01*
X139735135Y-123806790D01*
X139655855Y-123815157D01*
X139550910Y-123857135D01*
X139523056Y-123862500D01*
X139433273Y-123862500D01*
X139394686Y-123851811D01*
X139174057Y-123719434D01*
X139072725Y-123600281D01*
X139058529Y-123571619D01*
X139014972Y-123397390D01*
X139005291Y-123380291D01*
X138955427Y-123334670D01*
X138851793Y-123293217D01*
X138826614Y-123276614D01*
X138768209Y-123210135D01*
X138762500Y-123181433D01*
X138762500Y-122946232D01*
X138683224Y-122783224D01*
X138582092Y-122684796D01*
X138291971Y-122539735D01*
X138153516Y-122508008D01*
X138065368Y-122459631D01*
X138020417Y-122378335D01*
X138012500Y-122344794D01*
X138012500Y-122246232D01*
X137981538Y-122182532D01*
X137840832Y-122065276D01*
X137680259Y-121981164D01*
X137487126Y-121813381D01*
X137195646Y-121788178D01*
X137160135Y-121806790D01*
X137131433Y-121812500D01*
X137026943Y-121812500D01*
X136999089Y-121807135D01*
X136881002Y-121758168D01*
X136443889Y-121466759D01*
X136173041Y-121414416D01*
X136003767Y-121337500D01*
X135846232Y-121337500D01*
X135679776Y-121416361D01*
X135652883Y-121423984D01*
X135625066Y-121421230D01*
X135600189Y-121408481D01*
X135412163Y-121263479D01*
X135364864Y-121256790D01*
X135330113Y-121237500D01*
X135219886Y-121237500D01*
X135187879Y-121246382D01*
X135153981Y-121243043D01*
X135125056Y-121225056D01*
X135081782Y-121173206D01*
X135032113Y-121057113D01*
X134916775Y-120941775D01*
X134870310Y-120916405D01*
X134713332Y-120914232D01*
X134613518Y-121037857D01*
X134615356Y-121169355D01*
X134731730Y-121448653D01*
X134737500Y-121497361D01*
X134721969Y-121543059D01*
X134681394Y-121574903D01*
X134607276Y-121592723D01*
X134509466Y-121690533D01*
X134485135Y-121706790D01*
X134438062Y-121713857D01*
X134410135Y-121731790D01*
X134381433Y-121737500D01*
X134255498Y-121740500D01*
X134083703Y-121815452D01*
X133868362Y-121982940D01*
X133757745Y-122042848D01*
X133584875Y-122237327D01*
X133559544Y-122255918D01*
X133504265Y-122262500D01*
X133472330Y-122255361D01*
X133069992Y-122066025D01*
X132996664Y-122054582D01*
X132920310Y-122016405D01*
X132821664Y-122004582D01*
X132695310Y-121941405D01*
X132619686Y-121926811D01*
X132255078Y-121711439D01*
X132112248Y-121691035D01*
X132055113Y-121662500D01*
X131793566Y-121662500D01*
X131764864Y-121656790D01*
X131730113Y-121637500D01*
X131655713Y-121637500D01*
X131621315Y-121629146D01*
X130866698Y-121239666D01*
X130465215Y-120964367D01*
X130180968Y-120832601D01*
X129790557Y-120539793D01*
X129367536Y-120339870D01*
X129217026Y-120240517D01*
X128985291Y-120033012D01*
X128970272Y-120014347D01*
X128957276Y-119982276D01*
X128891775Y-119916775D01*
X128694606Y-119816053D01*
X128439955Y-119614464D01*
X128205072Y-119480072D01*
X128040533Y-119315533D01*
X128024275Y-119291201D01*
X128018566Y-119262500D01*
X128024275Y-119233798D01*
X128040533Y-119209466D01*
X128064864Y-119193209D01*
X128145310Y-119183594D01*
X128191775Y-119158224D01*
X128608110Y-118741889D01*
X128779475Y-118618232D01*
X128974765Y-118542275D01*
X129001100Y-118537500D01*
X129156433Y-118537500D01*
X129185135Y-118543209D01*
X129213062Y-118561142D01*
X129285135Y-118568209D01*
X129323389Y-118589677D01*
X129446483Y-118616991D01*
X129592910Y-118691557D01*
X129787832Y-118836416D01*
X130279359Y-118814078D01*
X130309971Y-118819039D01*
X130343663Y-118838270D01*
X130547233Y-118866671D01*
X130716655Y-118938255D01*
X130985841Y-118990665D01*
X131042942Y-119048385D01*
X131141775Y-119241775D01*
X131931325Y-120031325D01*
X132012186Y-120061171D01*
X132486142Y-119586937D01*
X132487500Y-119469656D01*
X132437500Y-119323056D01*
X132437500Y-119219886D01*
X132418209Y-119185135D01*
X132412500Y-119156433D01*
X132412500Y-119044886D01*
X132391538Y-119010559D01*
X132384594Y-118986352D01*
X132363200Y-118793801D01*
X132290533Y-118715533D01*
X132274275Y-118691201D01*
X132268566Y-118662500D01*
X132274275Y-118633798D01*
X132290533Y-118609466D01*
X132635766Y-118262500D01*
X132209466Y-117834466D01*
X132193209Y-117810135D01*
X132187500Y-117768566D01*
X132193209Y-117739864D01*
X132209466Y-117715533D01*
X132233798Y-117699275D01*
X132262499Y-117693566D01*
X132291201Y-117699275D01*
X132315533Y-117715533D01*
X132683224Y-118083224D01*
X132746232Y-118112500D01*
X132855113Y-118112500D01*
X132889864Y-118093209D01*
X132937222Y-118086632D01*
X133292763Y-117834868D01*
X133571664Y-117695417D01*
X133646740Y-117681339D01*
X133693605Y-117650096D01*
X133771740Y-117631339D01*
X133818605Y-117600096D01*
X133860208Y-117587500D01*
X133911937Y-117586142D01*
X133947175Y-117567892D01*
X134170782Y-117585828D01*
G37*
G36*
X153351491Y-101461836D02*
G01*
X153544667Y-101481214D01*
X153616204Y-101510131D01*
X153698996Y-101518971D01*
X153782699Y-101557893D01*
X153883940Y-101578768D01*
X153981790Y-101632591D01*
X154049089Y-101643240D01*
X154256005Y-101746056D01*
X154552055Y-101943329D01*
X154982992Y-102350535D01*
X155248457Y-102734952D01*
X155416233Y-103093205D01*
X155512500Y-103461599D01*
X155514868Y-103508793D01*
X155537500Y-103586599D01*
X155539151Y-103655186D01*
X155562494Y-103736612D01*
X155558323Y-104010876D01*
X155562499Y-104050580D01*
X155562416Y-152974499D01*
X155558323Y-153010876D01*
X155562500Y-153285883D01*
X155538847Y-153371434D01*
X155518784Y-153569670D01*
X155491358Y-153635258D01*
X155480833Y-153696942D01*
X155422837Y-153908838D01*
X155369467Y-154001027D01*
X155351718Y-154082714D01*
X155178571Y-154406980D01*
X154991380Y-154665270D01*
X154653515Y-155005062D01*
X154381980Y-155203571D01*
X154054043Y-155378676D01*
X153976027Y-155394467D01*
X153903297Y-155433071D01*
X153855816Y-155442733D01*
X153680837Y-155514936D01*
X153499081Y-155538455D01*
X153412968Y-155562500D01*
X153344812Y-155564151D01*
X153272595Y-155587500D01*
X103714024Y-155587500D01*
X103630190Y-155564151D01*
X103542894Y-155559461D01*
X103475917Y-155538455D01*
X103290112Y-155514328D01*
X103119182Y-155442733D01*
X103064619Y-155431517D01*
X102998973Y-155394467D01*
X102912814Y-155375853D01*
X102711441Y-155274575D01*
X102319491Y-155003069D01*
X101983618Y-154665270D01*
X101796430Y-154406985D01*
X101621323Y-154079043D01*
X101605532Y-154001026D01*
X101566928Y-153928297D01*
X101557266Y-153880817D01*
X101485062Y-153705837D01*
X101460418Y-153517539D01*
X101437500Y-153437970D01*
X101435848Y-153369812D01*
X101412500Y-153297595D01*
X101412500Y-152688420D01*
X101687500Y-152688420D01*
X101689151Y-153355186D01*
X101712500Y-153434952D01*
X101716358Y-153489742D01*
X101749426Y-153557034D01*
X101793477Y-153771235D01*
X102007146Y-154222032D01*
X102217312Y-154508734D01*
X102492648Y-154783971D01*
X102621327Y-154865070D01*
X102708578Y-154946629D01*
X103101030Y-155155533D01*
X103187185Y-155174146D01*
X103310922Y-155233812D01*
X103443932Y-155253719D01*
X103510257Y-155283641D01*
X103565414Y-155287500D01*
X103644805Y-155310847D01*
X104320463Y-155312108D01*
X104409948Y-155287500D01*
X104464743Y-155283641D01*
X104532035Y-155250572D01*
X104741627Y-155208047D01*
X105186859Y-154999390D01*
X105470575Y-154793913D01*
X105758971Y-154507350D01*
X105840076Y-154378662D01*
X105925261Y-154285351D01*
X106130533Y-153898969D01*
X106150791Y-153809522D01*
X106208812Y-153689077D01*
X106228718Y-153556068D01*
X106258641Y-153489743D01*
X106262499Y-153434584D01*
X106285847Y-153355193D01*
X106287108Y-152679536D01*
X106262499Y-152590048D01*
X106258641Y-152535257D01*
X106225572Y-152467963D01*
X106183047Y-152258373D01*
X105974390Y-151813140D01*
X105768737Y-151529183D01*
X105482350Y-151241027D01*
X105353671Y-151159928D01*
X105260300Y-151074705D01*
X104873969Y-150869465D01*
X104783756Y-150848824D01*
X104664078Y-150791187D01*
X104531066Y-150771279D01*
X104464742Y-150741358D01*
X104409587Y-150737500D01*
X104330190Y-150714151D01*
X103654535Y-150712891D01*
X103565045Y-150737500D01*
X103510258Y-150741358D01*
X103442965Y-150774426D01*
X103233071Y-150817049D01*
X102788140Y-151025608D01*
X102504431Y-151231081D01*
X102216029Y-151517646D01*
X102134928Y-151646328D01*
X102049736Y-151739651D01*
X101844465Y-152126030D01*
X101825853Y-152212185D01*
X101766187Y-152335920D01*
X101746279Y-152468933D01*
X101716358Y-152535258D01*
X101712500Y-152590411D01*
X101687500Y-152688420D01*
X101412500Y-152688420D01*
X101412500Y-105613419D01*
X101687500Y-105613419D01*
X101687891Y-151420462D01*
X101705449Y-151469535D01*
X101758532Y-151521600D01*
X101804578Y-151537112D01*
X101858041Y-151526445D01*
X101890959Y-151499382D01*
X101998004Y-151343416D01*
X102324566Y-151017298D01*
X102711452Y-150750416D01*
X102912814Y-150649145D01*
X102998973Y-150630532D01*
X103060061Y-150596295D01*
X103126001Y-150579743D01*
X103284431Y-150512698D01*
X103482764Y-150485350D01*
X103562028Y-150462500D01*
X103630188Y-150460848D01*
X103702404Y-150437500D01*
X104260886Y-150437500D01*
X104351491Y-150461836D01*
X104544668Y-150481215D01*
X104610257Y-150508641D01*
X104671944Y-150519165D01*
X104906967Y-150583984D01*
X105236552Y-150737410D01*
X105310209Y-150797636D01*
X105447476Y-150867873D01*
X105527853Y-150942621D01*
X105660171Y-151026592D01*
X105978069Y-151344491D01*
X106254621Y-151745349D01*
X106350853Y-151937814D01*
X106369467Y-152023973D01*
X106418361Y-152108982D01*
X106442105Y-152217298D01*
X106490112Y-152323312D01*
X106513455Y-152500917D01*
X106537500Y-152587028D01*
X106539151Y-152655187D01*
X106562500Y-152727404D01*
X106562500Y-153285974D01*
X106539151Y-153369812D01*
X106534461Y-153457105D01*
X106514867Y-153516298D01*
X106496669Y-153657912D01*
X106465725Y-153737440D01*
X106424344Y-153902808D01*
X106370869Y-153997632D01*
X106350854Y-154087184D01*
X106254622Y-154279648D01*
X105982695Y-154675438D01*
X105656583Y-155001995D01*
X105506289Y-155104841D01*
X105480487Y-155130409D01*
X105464154Y-155169792D01*
X105466358Y-155214742D01*
X105484102Y-155249460D01*
X105522696Y-155288564D01*
X105550965Y-155305508D01*
X105588420Y-155312500D01*
X151395462Y-155312108D01*
X151444535Y-155294550D01*
X151496593Y-155241477D01*
X151512108Y-155195462D01*
X151501479Y-155142024D01*
X151447145Y-155082377D01*
X151314827Y-154998406D01*
X150994936Y-154678515D01*
X150796430Y-154406985D01*
X150621323Y-154079043D01*
X150605532Y-154001026D01*
X150553491Y-153911932D01*
X150483641Y-153635257D01*
X150456214Y-153569667D01*
X150435830Y-153369706D01*
X150412500Y-153288043D01*
X150412500Y-153022846D01*
X150662546Y-153022846D01*
X150687500Y-153112360D01*
X150689151Y-153355186D01*
X150712500Y-153434952D01*
X150716358Y-153489742D01*
X150749426Y-153557034D01*
X150793477Y-153771235D01*
X151000608Y-154211858D01*
X151210569Y-154501315D01*
X151492648Y-154783971D01*
X151621327Y-154865070D01*
X151716255Y-154951169D01*
X152101030Y-155155533D01*
X152187185Y-155174146D01*
X152310922Y-155233812D01*
X152443932Y-155253719D01*
X152510257Y-155283641D01*
X152565414Y-155287500D01*
X152654534Y-155312108D01*
X153320463Y-155312108D01*
X153409948Y-155287500D01*
X153464743Y-155283641D01*
X153532035Y-155250572D01*
X153741627Y-155208047D01*
X154186859Y-154999390D01*
X154470575Y-154793913D01*
X154758971Y-154507350D01*
X154840076Y-154378662D01*
X154926169Y-154283744D01*
X155130533Y-153898969D01*
X155149146Y-153812814D01*
X155208812Y-153689077D01*
X155228718Y-153556068D01*
X155258641Y-153489743D01*
X155262500Y-153434584D01*
X155287108Y-153345464D01*
X155287108Y-152679536D01*
X155262500Y-152590048D01*
X155258641Y-152535257D01*
X155225572Y-152467963D01*
X155183047Y-152258373D01*
X154974390Y-151813140D01*
X154768737Y-151529183D01*
X154482350Y-151241027D01*
X154353671Y-151159928D01*
X154260300Y-151074705D01*
X153873969Y-150869465D01*
X153784745Y-150849319D01*
X153664078Y-150791187D01*
X153531066Y-150771279D01*
X153464742Y-150741358D01*
X153409587Y-150737500D01*
X153320464Y-150712891D01*
X152654535Y-150712891D01*
X152565045Y-150737500D01*
X152510258Y-150741358D01*
X152442965Y-150774426D01*
X152233071Y-150817049D01*
X151788140Y-151025608D01*
X151497079Y-151236949D01*
X151216029Y-151517646D01*
X151134928Y-151646328D01*
X151055416Y-151730511D01*
X150848872Y-152116272D01*
X150824318Y-152215255D01*
X150768184Y-152329527D01*
X150746279Y-152468933D01*
X150714868Y-152541205D01*
X150712500Y-152590411D01*
X150687891Y-152679537D01*
X150687500Y-152910976D01*
X150664109Y-152992310D01*
X150662546Y-153022846D01*
X150412500Y-153022846D01*
X150412500Y-152739111D01*
X150436836Y-152648508D01*
X150456215Y-152455331D01*
X150485131Y-152383795D01*
X150492566Y-152298371D01*
X150557266Y-152144182D01*
X150568770Y-152092051D01*
X150605532Y-152023973D01*
X150625461Y-151938196D01*
X150796434Y-151618006D01*
X150983623Y-151359722D01*
X151319496Y-151021924D01*
X151720339Y-150745382D01*
X151912814Y-150649145D01*
X152002366Y-150629130D01*
X152085027Y-150579829D01*
X152268928Y-150532364D01*
X152335647Y-150504134D01*
X152482459Y-150485418D01*
X152552436Y-150462500D01*
X152630188Y-150460848D01*
X152711597Y-150437500D01*
X153272595Y-150437500D01*
X153344812Y-150460848D01*
X153413994Y-150462500D01*
X153491293Y-150485130D01*
X153690569Y-150512699D01*
X153848997Y-150579743D01*
X153907948Y-150593770D01*
X153976026Y-150630532D01*
X154062185Y-150649146D01*
X154254654Y-150745380D01*
X154650438Y-151017303D01*
X154976995Y-151343416D01*
X155079843Y-151493711D01*
X155105397Y-151519503D01*
X155144757Y-151535838D01*
X155189714Y-151533649D01*
X155224455Y-151515901D01*
X155263564Y-151477303D01*
X155280508Y-151449034D01*
X155287500Y-151411579D01*
X155287108Y-105604537D01*
X155269550Y-105555464D01*
X155216478Y-105503406D01*
X155170463Y-105487891D01*
X155117026Y-105498519D01*
X155057378Y-105552852D01*
X154973407Y-105685170D01*
X154650438Y-106007695D01*
X154266057Y-106272689D01*
X153855822Y-106456035D01*
X153783390Y-106466898D01*
X153690576Y-106508341D01*
X153616204Y-106514868D01*
X153535381Y-106544712D01*
X153345236Y-106564065D01*
X153263042Y-106587500D01*
X152692893Y-106584461D01*
X152630190Y-106564151D01*
X152542894Y-106559461D01*
X152475917Y-106538455D01*
X152290112Y-106514328D01*
X152119182Y-106442733D01*
X152064619Y-106431517D01*
X151998973Y-106394467D01*
X151912814Y-106375853D01*
X151711441Y-106274575D01*
X151329665Y-106011941D01*
X150998444Y-105682023D01*
X150917620Y-105552852D01*
X150835559Y-105463094D01*
X150626352Y-105086521D01*
X150605532Y-105001025D01*
X150571293Y-104939935D01*
X150554743Y-104873998D01*
X150493564Y-104731123D01*
X150485131Y-104641204D01*
X150456214Y-104569667D01*
X150435830Y-104369706D01*
X150412500Y-104288043D01*
X150412500Y-104022846D01*
X150662546Y-104022846D01*
X150687500Y-104112360D01*
X150689151Y-104355186D01*
X150712500Y-104434952D01*
X150716358Y-104489742D01*
X150749426Y-104557033D01*
X150793477Y-104771235D01*
X151000275Y-105211292D01*
X151210569Y-105501315D01*
X151492648Y-105783971D01*
X151621327Y-105865070D01*
X151716255Y-105951169D01*
X152101030Y-106155533D01*
X152187185Y-106174146D01*
X152310922Y-106233812D01*
X152443932Y-106253719D01*
X152510257Y-106283641D01*
X152565414Y-106287500D01*
X152654534Y-106312108D01*
X152885976Y-106312500D01*
X152985681Y-106337499D01*
X153012874Y-106335166D01*
X153086295Y-106312500D01*
X153320463Y-106312108D01*
X153409948Y-106287500D01*
X153464743Y-106283641D01*
X153532035Y-106250572D01*
X153741627Y-106208047D01*
X154186859Y-105999390D01*
X154470575Y-105793913D01*
X154758971Y-105507350D01*
X154840076Y-105378662D01*
X154926169Y-105283744D01*
X155130533Y-104898969D01*
X155149145Y-104812814D01*
X155208812Y-104689077D01*
X155228718Y-104556068D01*
X155258641Y-104489743D01*
X155262500Y-104434584D01*
X155287108Y-104345464D01*
X155287108Y-103679536D01*
X155262500Y-103590048D01*
X155258641Y-103535257D01*
X155225572Y-103467963D01*
X155183047Y-103258373D01*
X154974390Y-102813140D01*
X154768737Y-102529183D01*
X154482350Y-102241027D01*
X154353671Y-102159928D01*
X154260300Y-102074705D01*
X153873969Y-101869465D01*
X153787814Y-101850853D01*
X153664078Y-101791187D01*
X153531066Y-101771279D01*
X153464742Y-101741358D01*
X153409587Y-101737500D01*
X153320464Y-101712891D01*
X152654535Y-101712891D01*
X152565045Y-101737500D01*
X152510258Y-101741358D01*
X152442965Y-101774426D01*
X152233071Y-101817049D01*
X151788140Y-102025608D01*
X151497079Y-102236949D01*
X151216029Y-102517646D01*
X151134928Y-102646328D01*
X151055416Y-102730511D01*
X150848872Y-103116272D01*
X150824206Y-103215479D01*
X150768184Y-103329527D01*
X150746279Y-103468933D01*
X150714868Y-103541205D01*
X150712500Y-103590411D01*
X150687891Y-103679537D01*
X150687500Y-103910976D01*
X150664109Y-103992310D01*
X150662546Y-104022846D01*
X150412500Y-104022846D01*
X150412500Y-103739111D01*
X150436836Y-103648508D01*
X150456214Y-103455332D01*
X150483641Y-103389743D01*
X150494165Y-103328055D01*
X150550657Y-103122177D01*
X150605532Y-103023973D01*
X150625461Y-102938196D01*
X150796434Y-102618006D01*
X150987260Y-102355112D01*
X151318416Y-102023004D01*
X151468710Y-101920157D01*
X151494503Y-101894603D01*
X151510838Y-101855243D01*
X151508649Y-101810286D01*
X151490902Y-101775544D01*
X151452303Y-101736435D01*
X151424034Y-101719491D01*
X151386579Y-101712500D01*
X105579536Y-101712891D01*
X105530463Y-101730449D01*
X105478406Y-101783521D01*
X105462590Y-101835660D01*
X105473543Y-101883020D01*
X105500615Y-101915957D01*
X105656583Y-102023004D01*
X105980062Y-102346483D01*
X106177884Y-102617446D01*
X106412576Y-103086261D01*
X106442106Y-103217299D01*
X106490112Y-103323313D01*
X106513455Y-103500917D01*
X106537500Y-103587028D01*
X106539151Y-103655187D01*
X106562500Y-103727404D01*
X106562500Y-104285974D01*
X106539151Y-104369812D01*
X106534461Y-104457105D01*
X106513455Y-104524081D01*
X106491989Y-104695351D01*
X106442106Y-104807699D01*
X106411146Y-104943215D01*
X106262588Y-105261553D01*
X106202362Y-105335209D01*
X106124865Y-105487173D01*
X105991513Y-105665482D01*
X105650438Y-106007695D01*
X105254648Y-106279622D01*
X105054728Y-106379582D01*
X104976027Y-106394467D01*
X104930664Y-106421871D01*
X104848997Y-106445256D01*
X104690570Y-106512299D01*
X104499081Y-106538455D01*
X104412968Y-106562500D01*
X104344812Y-106564151D01*
X104272568Y-106587496D01*
X103988986Y-106583320D01*
X103702404Y-106587500D01*
X103633795Y-106564868D01*
X103561007Y-106562500D01*
X103483798Y-106539869D01*
X103417893Y-106534461D01*
X103354886Y-106514069D01*
X103223096Y-106491697D01*
X103122098Y-106443745D01*
X103057483Y-106428550D01*
X102998973Y-106394467D01*
X102912814Y-106375853D01*
X102720349Y-106279621D01*
X102329665Y-106011941D01*
X102001592Y-105685171D01*
X101917621Y-105552853D01*
X101869536Y-105505449D01*
X101830188Y-105489151D01*
X101781739Y-105492425D01*
X101747697Y-105511434D01*
X101705450Y-105555461D01*
X101692426Y-105581736D01*
X101687500Y-105613419D01*
X101412500Y-105613419D01*
X101412500Y-104336578D01*
X101687500Y-104336578D01*
X101712500Y-104434952D01*
X101716358Y-104489742D01*
X101749426Y-104557033D01*
X101793477Y-104771235D01*
X102005164Y-105219188D01*
X102217312Y-105508734D01*
X102492648Y-105783971D01*
X102621327Y-105865070D01*
X102705509Y-105944581D01*
X103097637Y-106154131D01*
X103187185Y-106174146D01*
X103304529Y-106231815D01*
X103443932Y-106253719D01*
X103516204Y-106285131D01*
X103565414Y-106287500D01*
X103654534Y-106312108D01*
X103897595Y-106312500D01*
X103985661Y-106337409D01*
X104077404Y-106312500D01*
X104330188Y-106310848D01*
X104409948Y-106287500D01*
X104464743Y-106283641D01*
X104532035Y-106250572D01*
X104745937Y-106206625D01*
X105189906Y-105997588D01*
X105483729Y-105782691D01*
X105763564Y-105502303D01*
X105807731Y-105425888D01*
X105918826Y-105295533D01*
X106129131Y-104902362D01*
X106149145Y-104812814D01*
X106206815Y-104695470D01*
X106228718Y-104556068D01*
X106260131Y-104483795D01*
X106262499Y-104434584D01*
X106287454Y-104338418D01*
X106285848Y-103669811D01*
X106262499Y-103590048D01*
X106258641Y-103535257D01*
X106225572Y-103467963D01*
X106181625Y-103254062D01*
X105972588Y-102810093D01*
X105757604Y-102516182D01*
X105482350Y-102241027D01*
X105353671Y-102159928D01*
X105273426Y-102083291D01*
X104877362Y-101870868D01*
X104787814Y-101850853D01*
X104670471Y-101793184D01*
X104531066Y-101771279D01*
X104458795Y-101739868D01*
X104409587Y-101737500D01*
X104313419Y-101712545D01*
X103644809Y-101714151D01*
X103565045Y-101737500D01*
X103510258Y-101741358D01*
X103442965Y-101774426D01*
X103228763Y-101818477D01*
X102785093Y-102027410D01*
X102492167Y-102241431D01*
X102216029Y-102517646D01*
X102134928Y-102646328D01*
X102055416Y-102730511D01*
X101845868Y-103122637D01*
X101824318Y-103215255D01*
X101768184Y-103329527D01*
X101747908Y-103457532D01*
X101714862Y-103541232D01*
X101710268Y-103610173D01*
X101691357Y-103660262D01*
X101687500Y-103688420D01*
X101687500Y-104336578D01*
X101412500Y-104336578D01*
X101412500Y-103739021D01*
X101426592Y-103688420D01*
X101435848Y-103655186D01*
X101440538Y-103567893D01*
X101460129Y-103508802D01*
X101465538Y-103442893D01*
X101484332Y-103387141D01*
X101508579Y-103249367D01*
X101556253Y-103147099D01*
X101568770Y-103092051D01*
X101605532Y-103023973D01*
X101624146Y-102937814D01*
X101720382Y-102745339D01*
X101988062Y-102354658D01*
X102319492Y-102021927D01*
X102709952Y-101751541D01*
X103060727Y-101587012D01*
X103192300Y-101557893D01*
X103284546Y-101516614D01*
X103355188Y-101510848D01*
X103403946Y-101494980D01*
X103483795Y-101485131D01*
X103561597Y-101462499D01*
X103630188Y-101460848D01*
X103711614Y-101437507D01*
X103986151Y-101441646D01*
X104025379Y-101437500D01*
X152949804Y-101437614D01*
X152986151Y-101441646D01*
X153260886Y-101437500D01*
X153351491Y-101461836D01*
G37*
D11*
X104000000Y-153000000D03*
D12*
X131390000Y-106280000D03*
X125610000Y-106280000D03*
D13*
X132820000Y-106780000D03*
D14*
X132820000Y-102600000D03*
D13*
X124180000Y-106780000D03*
D14*
X124180000Y-102600000D03*
D11*
X104000000Y-104000000D03*
X153000000Y-104000000D03*
D15*
X129770000Y-147850000D03*
D16*
X127230000Y-147850000D03*
X129770000Y-145310000D03*
X127230000Y-145310000D03*
X129770000Y-142770000D03*
X127230000Y-142770000D03*
D11*
X153000000Y-153000000D03*
M02*
