G04 #@! TF.GenerationSoftware,KiCad,Pcbnew,10.0.4-10.0.4~ubuntu22.04.1*
G04 #@! TF.CreationDate,2026-09-21T21:24:43+05:30*
G04 #@! TF.ProjectId,quiet-orbit-qo-r1-usb-c-four-light-ambient-lamp-board,71756965-742d-46f7-9262-69742d716f2d,rev?*
G04 #@! TF.SameCoordinates,Original*
G04 #@! TF.FileFunction,Legend,Top*
G04 #@! TF.FilePolarity,Positive*
%FSLAX46Y46*%
G04 Gerber Fmt 4.6, Leading zero omitted, Abs format (unit mm)*
G04 Created by KiCad (PCBNEW 10.0.4-10.0.4~ubuntu22.04.1) date 2026-09-21 21:24:43*
%MOMM*%
%LPD*%
G01*
G04 APERTURE LIST*
G04 Aperture macros list*
%AMRoundRect*
0 Rectangle with rounded corners*
0 $1 Rounding radius*
0 $2 $3 $4 $5 $6 $7 $8 $9 X,Y pos of 4 corners*
0 Add a 4 corners polygon primitive as box body*
4,1,4,$2,$3,$4,$5,$6,$7,$8,$9,$2,$3,0*
0 Add four circle primitives for the rounded corners*
1,1,$1+$1,$2,$3*
1,1,$1+$1,$4,$5*
1,1,$1+$1,$6,$7*
1,1,$1+$1,$8,$9*
0 Add four rect primitives between the rounded corners*
20,1,$1+$1,$2,$3,$4,$5,0*
20,1,$1+$1,$4,$5,$6,$7,0*
20,1,$1+$1,$6,$7,$8,$9,0*
20,1,$1+$1,$8,$9,$2,$3,0*%
G04 Aperture macros list end*
%ADD10C,0.000000*%
%ADD11C,0.180000*%
%ADD12C,0.150000*%
%ADD13C,0.120000*%
%ADD14RoundRect,0.225000X0.225000X0.375000X-0.225000X0.375000X-0.225000X-0.375000X0.225000X-0.375000X0*%
%ADD15RoundRect,0.225000X-0.250000X0.225000X-0.250000X-0.225000X0.250000X-0.225000X0.250000X0.225000X0*%
%ADD16C,3.200000*%
%ADD17RoundRect,0.200000X-0.200000X-0.275000X0.200000X-0.275000X0.200000X0.275000X-0.200000X0.275000X0*%
%ADD18C,0.650000*%
%ADD19RoundRect,0.150000X0.150000X0.425000X-0.150000X0.425000X-0.150000X-0.425000X0.150000X-0.425000X0*%
%ADD20RoundRect,0.075000X0.075000X0.500000X-0.075000X0.500000X-0.075000X-0.500000X0.075000X-0.500000X0*%
%ADD21O,1.000000X2.100000*%
%ADD22O,1.000000X1.800000*%
%ADD23RoundRect,0.200000X-0.275000X0.200000X-0.275000X-0.200000X0.275000X-0.200000X0.275000X0.200000X0*%
%ADD24RoundRect,0.200000X0.200000X0.275000X-0.200000X0.275000X-0.200000X-0.275000X0.200000X-0.275000X0*%
%ADD25RoundRect,0.250000X0.625000X-0.375000X0.625000X0.375000X-0.625000X0.375000X-0.625000X-0.375000X0*%
%ADD26C,1.500000*%
%ADD27RoundRect,0.225000X-0.225000X-0.250000X0.225000X-0.250000X0.225000X0.250000X-0.225000X0.250000X0*%
%ADD28RoundRect,0.218750X-0.218750X-0.256250X0.218750X-0.256250X0.218750X0.256250X-0.218750X0.256250X0*%
%ADD29RoundRect,0.250000X0.600000X0.600000X-0.600000X0.600000X-0.600000X-0.600000X0.600000X-0.600000X0*%
%ADD30C,1.700000*%
%ADD31RoundRect,0.250000X-0.625000X0.375000X-0.625000X-0.375000X0.625000X-0.375000X0.625000X0.375000X0*%
%ADD32RoundRect,0.150000X-0.825000X-0.150000X0.825000X-0.150000X0.825000X0.150000X-0.825000X0.150000X0*%
%ADD33RoundRect,0.250000X-0.250000X-0.475000X0.250000X-0.475000X0.250000X0.475000X-0.250000X0.475000X0*%
G04 APERTURE END LIST*
D10*
G36*
X147945091Y-127846089D02*
G01*
X148109816Y-128055740D01*
X148149750Y-128395174D01*
X147820299Y-128400166D01*
X147805324Y-128210482D01*
X147720465Y-128085690D01*
X147595673Y-128035773D01*
X147396006Y-128075707D01*
X147291181Y-128255407D01*
X147291181Y-129193843D01*
X146976705Y-129198835D01*
X146976705Y-127796173D01*
X147271214Y-127796173D01*
X147276206Y-128060732D01*
X147351081Y-127896006D01*
X147525790Y-127786189D01*
X147755407Y-127776206D01*
X147945091Y-127846089D01*
G37*
G36*
X148723793Y-128065723D02*
G01*
X148853577Y-127841098D01*
X149013311Y-127776206D01*
X149292845Y-127806156D01*
X149472545Y-127960898D01*
X149552412Y-128205490D01*
X149552412Y-129198835D01*
X149237936Y-129198835D01*
X149232945Y-128230449D01*
X149148086Y-128090682D01*
X148968386Y-128040765D01*
X148828618Y-128085690D01*
X148733777Y-128240432D01*
X148728785Y-129198835D01*
X148414309Y-129198835D01*
X148414309Y-127336938D01*
X148728785Y-127336938D01*
X148723793Y-128065723D01*
G37*
G36*
X140472545Y-127871048D02*
G01*
X140612312Y-128015806D01*
X140682196Y-128240432D01*
X140367720Y-128275374D01*
X140322795Y-128140599D01*
X140143094Y-128045757D01*
X139968386Y-128065723D01*
X139853577Y-128160565D01*
X139813643Y-128674708D01*
X139908485Y-128894342D01*
X140173044Y-128944259D01*
X140322795Y-128854409D01*
X140367720Y-128719633D01*
X140682196Y-128719633D01*
X140642262Y-128919301D01*
X140512479Y-129094009D01*
X140153078Y-129223793D01*
X139888519Y-129198835D01*
X139688851Y-129099001D01*
X139504159Y-128754575D01*
X139504159Y-128240432D01*
X139569051Y-128035773D01*
X139773710Y-127841098D01*
X140038269Y-127771214D01*
X140472545Y-127871048D01*
G37*
G36*
X141910149Y-127856073D02*
G01*
X142139767Y-128170549D01*
X142124792Y-128874376D01*
X141985024Y-129084026D01*
X141745424Y-129203826D01*
X141480865Y-129218801D01*
X141256239Y-129153910D01*
X141096505Y-129024126D01*
X140996672Y-128814475D01*
X141003046Y-128679700D01*
X141296173Y-128679700D01*
X141391014Y-128894342D01*
X141580698Y-128949251D01*
X141720465Y-128914309D01*
X141820299Y-128799500D01*
X141840266Y-128280366D01*
X141750415Y-128100665D01*
X141555740Y-128045757D01*
X141410981Y-128085690D01*
X141316139Y-128200499D01*
X141296173Y-128679700D01*
X141003046Y-128679700D01*
X141031613Y-128075707D01*
X141171381Y-127896006D01*
X141415973Y-127786189D01*
X141695507Y-127781198D01*
X141910149Y-127856073D01*
G37*
G36*
X142788685Y-128060732D02*
G01*
X142998336Y-127801164D01*
X143362728Y-127806156D01*
X143532445Y-127940931D01*
X143627287Y-128165557D01*
X143637271Y-128739600D01*
X143582362Y-128969217D01*
X143402662Y-129168885D01*
X143128119Y-129223793D01*
X142908485Y-129138935D01*
X142803660Y-128934276D01*
X142798668Y-129658069D01*
X142484193Y-129658069D01*
X142484193Y-128714642D01*
X142798668Y-128714642D01*
X142883527Y-128894342D01*
X143073211Y-128954242D01*
X143212978Y-128914309D01*
X143307820Y-128789517D01*
X143322795Y-128280366D01*
X143232945Y-128095673D01*
X143043261Y-128040765D01*
X142908485Y-128080698D01*
X142813643Y-128205490D01*
X142798668Y-128714642D01*
X142484193Y-128714642D01*
X142484193Y-127796173D01*
X142788685Y-127796173D01*
X142788685Y-128060732D01*
G37*
G36*
X153995008Y-129198835D02*
G01*
X153690515Y-129198835D01*
X153690515Y-128934276D01*
X153605657Y-129103993D01*
X153480865Y-129193843D01*
X153106489Y-129183860D01*
X152936772Y-129039101D01*
X152851913Y-128824459D01*
X152857726Y-128709650D01*
X153156405Y-128709650D01*
X153246256Y-128899334D01*
X153435940Y-128954242D01*
X153585690Y-128904326D01*
X153660565Y-128804492D01*
X153680532Y-128275374D01*
X153585690Y-128090682D01*
X153405990Y-128040765D01*
X153266222Y-128080698D01*
X153171381Y-128205490D01*
X153156405Y-128709650D01*
X152857726Y-128709650D01*
X152891846Y-128035773D01*
X153076539Y-127826123D01*
X153356073Y-127771214D01*
X153570715Y-127856073D01*
X153675540Y-128060732D01*
X153680532Y-127336938D01*
X153995008Y-127336938D01*
X153995008Y-129198835D01*
G37*
G36*
X144271214Y-128060732D02*
G01*
X144356073Y-127891014D01*
X144480865Y-127801164D01*
X144845257Y-127806156D01*
X145014975Y-127940931D01*
X145109816Y-128170549D01*
X145119800Y-128739600D01*
X145064891Y-128969217D01*
X144885191Y-129168885D01*
X144610648Y-129223793D01*
X144391014Y-129138935D01*
X144286189Y-128934276D01*
X144281198Y-129658069D01*
X143966722Y-129658069D01*
X143966722Y-128719633D01*
X144281198Y-128719633D01*
X144371048Y-128899334D01*
X144555740Y-128954242D01*
X144695507Y-128914309D01*
X144790349Y-128789517D01*
X144805324Y-128285357D01*
X144715474Y-128095673D01*
X144525790Y-128040765D01*
X144391014Y-128080698D01*
X144296173Y-128205490D01*
X144281198Y-128719633D01*
X143966722Y-128719633D01*
X143966722Y-127796173D01*
X144271214Y-127796173D01*
X144271214Y-128060732D01*
G37*
G36*
X146357737Y-127856073D02*
G01*
X146507487Y-127995840D01*
X146587354Y-128175540D01*
X146602329Y-128569883D01*
X145733777Y-128579866D01*
X145758735Y-128824459D01*
X145918469Y-128964226D01*
X146178036Y-128949251D01*
X146277870Y-128834442D01*
X146592346Y-128829450D01*
X146437603Y-129089018D01*
X146183028Y-129208818D01*
X145913477Y-129218801D01*
X145693843Y-129148918D01*
X145539101Y-129019134D01*
X145439267Y-128794509D01*
X145460183Y-128370216D01*
X145733777Y-128370216D01*
X146292845Y-128370216D01*
X146272878Y-128165557D01*
X146148086Y-128035773D01*
X145888519Y-128035773D01*
X145758735Y-128170549D01*
X145733777Y-128370216D01*
X145460183Y-128370216D01*
X145474209Y-128085690D01*
X145618968Y-127896006D01*
X145878535Y-127781198D01*
X146123128Y-127776206D01*
X146357737Y-127856073D01*
G37*
G36*
X150665557Y-127796173D02*
G01*
X150855241Y-127891014D01*
X151004991Y-128085690D01*
X151049916Y-128569883D01*
X150186356Y-128569883D01*
X150206322Y-128824459D01*
X150346089Y-128959234D01*
X150580698Y-128964226D01*
X150725457Y-128834442D01*
X151039933Y-128829450D01*
X150865224Y-129103993D01*
X150520798Y-129223793D01*
X150261231Y-129198835D01*
X150071547Y-129103993D01*
X149951747Y-128969217D01*
X149876871Y-128719633D01*
X149876871Y-128370216D01*
X150181364Y-128370216D01*
X150740432Y-128370216D01*
X150705490Y-128135607D01*
X150565723Y-128025790D01*
X150306156Y-128050748D01*
X150191347Y-128215474D01*
X150181364Y-128370216D01*
X149876871Y-128370216D01*
X149876871Y-128275374D01*
X149951747Y-128025790D01*
X150131447Y-127851081D01*
X150410981Y-127771214D01*
X150665557Y-127796173D01*
G37*
G36*
X137272878Y-127791181D02*
G01*
X137677204Y-128015806D01*
X137856905Y-128375207D01*
X138296173Y-128375207D01*
X138296173Y-128619800D01*
X137856905Y-128619800D01*
X137627287Y-129029118D01*
X137277870Y-129198835D01*
X137272878Y-129648086D01*
X137023294Y-129648086D01*
X137023294Y-129203826D01*
X136613976Y-128974209D01*
X136444259Y-128624792D01*
X136000000Y-128619800D01*
X136000000Y-128559900D01*
X136683860Y-128559900D01*
X136853577Y-128859400D01*
X137183028Y-128964226D01*
X137507487Y-128794509D01*
X137612312Y-128440099D01*
X137442595Y-128135607D01*
X137113144Y-128030782D01*
X136783693Y-128205490D01*
X136683860Y-128559900D01*
X136000000Y-128559900D01*
X136000000Y-128375207D01*
X136444259Y-128370216D01*
X136524126Y-128145590D01*
X136673876Y-127960898D01*
X137018302Y-127796173D01*
X137023294Y-127346921D01*
X137272878Y-127346921D01*
X137272878Y-127791181D01*
G37*
G36*
X152287853Y-127841098D02*
G01*
X152437603Y-127970881D01*
X152517470Y-128190515D01*
X152517470Y-129198835D01*
X152212978Y-129198835D01*
X152207986Y-128954242D01*
X152113144Y-129118968D01*
X151888519Y-129218801D01*
X151618968Y-129203826D01*
X151404326Y-129064059D01*
X151352349Y-128859400D01*
X151653910Y-128859400D01*
X151803660Y-128979201D01*
X152053244Y-128959234D01*
X152198003Y-128799500D01*
X152202995Y-128569883D01*
X151813643Y-128564891D01*
X151668885Y-128654742D01*
X151653910Y-128859400D01*
X151352349Y-128859400D01*
X151324459Y-128749584D01*
X151469217Y-128475041D01*
X151708818Y-128380199D01*
X152198003Y-128370216D01*
X152188019Y-128155574D01*
X152033277Y-128035773D01*
X151823627Y-128050748D01*
X151698835Y-128195507D01*
X151389351Y-128200499D01*
X151439267Y-128030782D01*
X151574043Y-127881031D01*
X151793677Y-127786189D01*
X152073211Y-127776206D01*
X152287853Y-127841098D01*
G37*
D11*
X109566667Y-122953259D02*
X109900000Y-123953259D01*
X109900000Y-123953259D02*
X110233333Y-122953259D01*
X111138095Y-123858020D02*
X111090476Y-123905640D01*
X111090476Y-123905640D02*
X110947619Y-123953259D01*
X110947619Y-123953259D02*
X110852381Y-123953259D01*
X110852381Y-123953259D02*
X110709524Y-123905640D01*
X110709524Y-123905640D02*
X110614286Y-123810401D01*
X110614286Y-123810401D02*
X110566667Y-123715163D01*
X110566667Y-123715163D02*
X110519048Y-123524687D01*
X110519048Y-123524687D02*
X110519048Y-123381830D01*
X110519048Y-123381830D02*
X110566667Y-123191354D01*
X110566667Y-123191354D02*
X110614286Y-123096116D01*
X110614286Y-123096116D02*
X110709524Y-123000878D01*
X110709524Y-123000878D02*
X110852381Y-122953259D01*
X110852381Y-122953259D02*
X110947619Y-122953259D01*
X110947619Y-122953259D02*
X111090476Y-123000878D01*
X111090476Y-123000878D02*
X111138095Y-123048497D01*
X112138095Y-123858020D02*
X112090476Y-123905640D01*
X112090476Y-123905640D02*
X111947619Y-123953259D01*
X111947619Y-123953259D02*
X111852381Y-123953259D01*
X111852381Y-123953259D02*
X111709524Y-123905640D01*
X111709524Y-123905640D02*
X111614286Y-123810401D01*
X111614286Y-123810401D02*
X111566667Y-123715163D01*
X111566667Y-123715163D02*
X111519048Y-123524687D01*
X111519048Y-123524687D02*
X111519048Y-123381830D01*
X111519048Y-123381830D02*
X111566667Y-123191354D01*
X111566667Y-123191354D02*
X111614286Y-123096116D01*
X111614286Y-123096116D02*
X111709524Y-123000878D01*
X111709524Y-123000878D02*
X111852381Y-122953259D01*
X111852381Y-122953259D02*
X111947619Y-122953259D01*
X111947619Y-122953259D02*
X112090476Y-123000878D01*
X112090476Y-123000878D02*
X112138095Y-123048497D01*
X109447618Y-128953259D02*
X109114285Y-128477068D01*
X108876190Y-128953259D02*
X108876190Y-127953259D01*
X108876190Y-127953259D02*
X109257142Y-127953259D01*
X109257142Y-127953259D02*
X109352380Y-128000878D01*
X109352380Y-128000878D02*
X109399999Y-128048497D01*
X109399999Y-128048497D02*
X109447618Y-128143735D01*
X109447618Y-128143735D02*
X109447618Y-128286592D01*
X109447618Y-128286592D02*
X109399999Y-128381830D01*
X109399999Y-128381830D02*
X109352380Y-128429449D01*
X109352380Y-128429449D02*
X109257142Y-128477068D01*
X109257142Y-128477068D02*
X108876190Y-128477068D01*
X109876190Y-128429449D02*
X110209523Y-128429449D01*
X110352380Y-128953259D02*
X109876190Y-128953259D01*
X109876190Y-128953259D02*
X109876190Y-127953259D01*
X109876190Y-127953259D02*
X110352380Y-127953259D01*
X110733333Y-128905640D02*
X110876190Y-128953259D01*
X110876190Y-128953259D02*
X111114285Y-128953259D01*
X111114285Y-128953259D02*
X111209523Y-128905640D01*
X111209523Y-128905640D02*
X111257142Y-128858020D01*
X111257142Y-128858020D02*
X111304761Y-128762782D01*
X111304761Y-128762782D02*
X111304761Y-128667544D01*
X111304761Y-128667544D02*
X111257142Y-128572306D01*
X111257142Y-128572306D02*
X111209523Y-128524687D01*
X111209523Y-128524687D02*
X111114285Y-128477068D01*
X111114285Y-128477068D02*
X110923809Y-128429449D01*
X110923809Y-128429449D02*
X110828571Y-128381830D01*
X110828571Y-128381830D02*
X110780952Y-128334211D01*
X110780952Y-128334211D02*
X110733333Y-128238973D01*
X110733333Y-128238973D02*
X110733333Y-128143735D01*
X110733333Y-128143735D02*
X110780952Y-128048497D01*
X110780952Y-128048497D02*
X110828571Y-128000878D01*
X110828571Y-128000878D02*
X110923809Y-127953259D01*
X110923809Y-127953259D02*
X111161904Y-127953259D01*
X111161904Y-127953259D02*
X111304761Y-128000878D01*
X111733333Y-128429449D02*
X112066666Y-128429449D01*
X112209523Y-128953259D02*
X111733333Y-128953259D01*
X111733333Y-128953259D02*
X111733333Y-127953259D01*
X111733333Y-127953259D02*
X112209523Y-127953259D01*
X112495238Y-127953259D02*
X113066666Y-127953259D01*
X112780952Y-128953259D02*
X112780952Y-127953259D01*
X110138095Y-133000878D02*
X110042857Y-132953259D01*
X110042857Y-132953259D02*
X109900000Y-132953259D01*
X109900000Y-132953259D02*
X109757143Y-133000878D01*
X109757143Y-133000878D02*
X109661905Y-133096116D01*
X109661905Y-133096116D02*
X109614286Y-133191354D01*
X109614286Y-133191354D02*
X109566667Y-133381830D01*
X109566667Y-133381830D02*
X109566667Y-133524687D01*
X109566667Y-133524687D02*
X109614286Y-133715163D01*
X109614286Y-133715163D02*
X109661905Y-133810401D01*
X109661905Y-133810401D02*
X109757143Y-133905640D01*
X109757143Y-133905640D02*
X109900000Y-133953259D01*
X109900000Y-133953259D02*
X109995238Y-133953259D01*
X109995238Y-133953259D02*
X110138095Y-133905640D01*
X110138095Y-133905640D02*
X110185714Y-133858020D01*
X110185714Y-133858020D02*
X110185714Y-133524687D01*
X110185714Y-133524687D02*
X109995238Y-133524687D01*
X110614286Y-133953259D02*
X110614286Y-132953259D01*
X110614286Y-132953259D02*
X111185714Y-133953259D01*
X111185714Y-133953259D02*
X111185714Y-132953259D01*
X111661905Y-133953259D02*
X111661905Y-132953259D01*
X111661905Y-132953259D02*
X111900000Y-132953259D01*
X111900000Y-132953259D02*
X112042857Y-133000878D01*
X112042857Y-133000878D02*
X112138095Y-133096116D01*
X112138095Y-133096116D02*
X112185714Y-133191354D01*
X112185714Y-133191354D02*
X112233333Y-133381830D01*
X112233333Y-133381830D02*
X112233333Y-133524687D01*
X112233333Y-133524687D02*
X112185714Y-133715163D01*
X112185714Y-133715163D02*
X112138095Y-133810401D01*
X112138095Y-133810401D02*
X112042857Y-133905640D01*
X112042857Y-133905640D02*
X111900000Y-133953259D01*
X111900000Y-133953259D02*
X111661905Y-133953259D01*
X111042857Y-110653259D02*
X111042857Y-109653259D01*
X111042857Y-109653259D02*
X111614285Y-110653259D01*
X111614285Y-110653259D02*
X111614285Y-109653259D01*
X111995238Y-109653259D02*
X112233333Y-110653259D01*
X112233333Y-110653259D02*
X112423809Y-109938973D01*
X112423809Y-109938973D02*
X112614285Y-110653259D01*
X112614285Y-110653259D02*
X112852381Y-109653259D01*
X111042857Y-147205640D02*
X111185714Y-147253259D01*
X111185714Y-147253259D02*
X111423809Y-147253259D01*
X111423809Y-147253259D02*
X111519047Y-147205640D01*
X111519047Y-147205640D02*
X111566666Y-147158020D01*
X111566666Y-147158020D02*
X111614285Y-147062782D01*
X111614285Y-147062782D02*
X111614285Y-146967544D01*
X111614285Y-146967544D02*
X111566666Y-146872306D01*
X111566666Y-146872306D02*
X111519047Y-146824687D01*
X111519047Y-146824687D02*
X111423809Y-146777068D01*
X111423809Y-146777068D02*
X111233333Y-146729449D01*
X111233333Y-146729449D02*
X111138095Y-146681830D01*
X111138095Y-146681830D02*
X111090476Y-146634211D01*
X111090476Y-146634211D02*
X111042857Y-146538973D01*
X111042857Y-146538973D02*
X111042857Y-146443735D01*
X111042857Y-146443735D02*
X111090476Y-146348497D01*
X111090476Y-146348497D02*
X111138095Y-146300878D01*
X111138095Y-146300878D02*
X111233333Y-146253259D01*
X111233333Y-146253259D02*
X111471428Y-146253259D01*
X111471428Y-146253259D02*
X111614285Y-146300878D01*
X111947619Y-146253259D02*
X112185714Y-147253259D01*
X112185714Y-147253259D02*
X112376190Y-146538973D01*
X112376190Y-146538973D02*
X112566666Y-147253259D01*
X112566666Y-147253259D02*
X112804762Y-146253259D01*
X118666667Y-107453259D02*
X119000000Y-108453259D01*
X119000000Y-108453259D02*
X119333333Y-107453259D01*
X120000000Y-107929449D02*
X120142857Y-107977068D01*
X120142857Y-107977068D02*
X120190476Y-108024687D01*
X120190476Y-108024687D02*
X120238095Y-108119925D01*
X120238095Y-108119925D02*
X120238095Y-108262782D01*
X120238095Y-108262782D02*
X120190476Y-108358020D01*
X120190476Y-108358020D02*
X120142857Y-108405640D01*
X120142857Y-108405640D02*
X120047619Y-108453259D01*
X120047619Y-108453259D02*
X119666667Y-108453259D01*
X119666667Y-108453259D02*
X119666667Y-107453259D01*
X119666667Y-107453259D02*
X120000000Y-107453259D01*
X120000000Y-107453259D02*
X120095238Y-107500878D01*
X120095238Y-107500878D02*
X120142857Y-107548497D01*
X120142857Y-107548497D02*
X120190476Y-107643735D01*
X120190476Y-107643735D02*
X120190476Y-107738973D01*
X120190476Y-107738973D02*
X120142857Y-107834211D01*
X120142857Y-107834211D02*
X120095238Y-107881830D01*
X120095238Y-107881830D02*
X120000000Y-107929449D01*
X120000000Y-107929449D02*
X119666667Y-107929449D01*
X120666667Y-107453259D02*
X120666667Y-108262782D01*
X120666667Y-108262782D02*
X120714286Y-108358020D01*
X120714286Y-108358020D02*
X120761905Y-108405640D01*
X120761905Y-108405640D02*
X120857143Y-108453259D01*
X120857143Y-108453259D02*
X121047619Y-108453259D01*
X121047619Y-108453259D02*
X121142857Y-108405640D01*
X121142857Y-108405640D02*
X121190476Y-108358020D01*
X121190476Y-108358020D02*
X121238095Y-108262782D01*
X121238095Y-108262782D02*
X121238095Y-107453259D01*
X121666667Y-108405640D02*
X121809524Y-108453259D01*
X121809524Y-108453259D02*
X122047619Y-108453259D01*
X122047619Y-108453259D02*
X122142857Y-108405640D01*
X122142857Y-108405640D02*
X122190476Y-108358020D01*
X122190476Y-108358020D02*
X122238095Y-108262782D01*
X122238095Y-108262782D02*
X122238095Y-108167544D01*
X122238095Y-108167544D02*
X122190476Y-108072306D01*
X122190476Y-108072306D02*
X122142857Y-108024687D01*
X122142857Y-108024687D02*
X122047619Y-107977068D01*
X122047619Y-107977068D02*
X121857143Y-107929449D01*
X121857143Y-107929449D02*
X121761905Y-107881830D01*
X121761905Y-107881830D02*
X121714286Y-107834211D01*
X121714286Y-107834211D02*
X121666667Y-107738973D01*
X121666667Y-107738973D02*
X121666667Y-107643735D01*
X121666667Y-107643735D02*
X121714286Y-107548497D01*
X121714286Y-107548497D02*
X121761905Y-107500878D01*
X121761905Y-107500878D02*
X121857143Y-107453259D01*
X121857143Y-107453259D02*
X122095238Y-107453259D01*
X122095238Y-107453259D02*
X122238095Y-107500878D01*
X135123810Y-138763259D02*
X135123810Y-137763259D01*
X135552381Y-138715640D02*
X135695238Y-138763259D01*
X135695238Y-138763259D02*
X135933333Y-138763259D01*
X135933333Y-138763259D02*
X136028571Y-138715640D01*
X136028571Y-138715640D02*
X136076190Y-138668020D01*
X136076190Y-138668020D02*
X136123809Y-138572782D01*
X136123809Y-138572782D02*
X136123809Y-138477544D01*
X136123809Y-138477544D02*
X136076190Y-138382306D01*
X136076190Y-138382306D02*
X136028571Y-138334687D01*
X136028571Y-138334687D02*
X135933333Y-138287068D01*
X135933333Y-138287068D02*
X135742857Y-138239449D01*
X135742857Y-138239449D02*
X135647619Y-138191830D01*
X135647619Y-138191830D02*
X135600000Y-138144211D01*
X135600000Y-138144211D02*
X135552381Y-138048973D01*
X135552381Y-138048973D02*
X135552381Y-137953735D01*
X135552381Y-137953735D02*
X135600000Y-137858497D01*
X135600000Y-137858497D02*
X135647619Y-137810878D01*
X135647619Y-137810878D02*
X135742857Y-137763259D01*
X135742857Y-137763259D02*
X135980952Y-137763259D01*
X135980952Y-137763259D02*
X136123809Y-137810878D01*
X136552381Y-138763259D02*
X136552381Y-137763259D01*
X136552381Y-137763259D02*
X136933333Y-137763259D01*
X136933333Y-137763259D02*
X137028571Y-137810878D01*
X137028571Y-137810878D02*
X137076190Y-137858497D01*
X137076190Y-137858497D02*
X137123809Y-137953735D01*
X137123809Y-137953735D02*
X137123809Y-138096592D01*
X137123809Y-138096592D02*
X137076190Y-138191830D01*
X137076190Y-138191830D02*
X137028571Y-138239449D01*
X137028571Y-138239449D02*
X136933333Y-138287068D01*
X136933333Y-138287068D02*
X136552381Y-138287068D01*
X136157143Y-150603259D02*
X135585715Y-150603259D01*
X135871429Y-150603259D02*
X135871429Y-149603259D01*
X135871429Y-149603259D02*
X135776191Y-149746116D01*
X135776191Y-149746116D02*
X135680953Y-149841354D01*
X135680953Y-149841354D02*
X135585715Y-149888973D01*
X136585715Y-150079449D02*
X137347620Y-150079449D01*
X137347620Y-150365163D02*
X136585715Y-150365163D01*
X137823810Y-150603259D02*
X137823810Y-149603259D01*
X137823810Y-149603259D02*
X138157143Y-150317544D01*
X138157143Y-150317544D02*
X138490476Y-149603259D01*
X138490476Y-149603259D02*
X138490476Y-150603259D01*
X138966667Y-150603259D02*
X138966667Y-149603259D01*
X139395238Y-150555640D02*
X139538095Y-150603259D01*
X139538095Y-150603259D02*
X139776190Y-150603259D01*
X139776190Y-150603259D02*
X139871428Y-150555640D01*
X139871428Y-150555640D02*
X139919047Y-150508020D01*
X139919047Y-150508020D02*
X139966666Y-150412782D01*
X139966666Y-150412782D02*
X139966666Y-150317544D01*
X139966666Y-150317544D02*
X139919047Y-150222306D01*
X139919047Y-150222306D02*
X139871428Y-150174687D01*
X139871428Y-150174687D02*
X139776190Y-150127068D01*
X139776190Y-150127068D02*
X139585714Y-150079449D01*
X139585714Y-150079449D02*
X139490476Y-150031830D01*
X139490476Y-150031830D02*
X139442857Y-149984211D01*
X139442857Y-149984211D02*
X139395238Y-149888973D01*
X139395238Y-149888973D02*
X139395238Y-149793735D01*
X139395238Y-149793735D02*
X139442857Y-149698497D01*
X139442857Y-149698497D02*
X139490476Y-149650878D01*
X139490476Y-149650878D02*
X139585714Y-149603259D01*
X139585714Y-149603259D02*
X139823809Y-149603259D01*
X139823809Y-149603259D02*
X139966666Y-149650878D01*
X140585714Y-149603259D02*
X140776190Y-149603259D01*
X140776190Y-149603259D02*
X140871428Y-149650878D01*
X140871428Y-149650878D02*
X140966666Y-149746116D01*
X140966666Y-149746116D02*
X141014285Y-149936592D01*
X141014285Y-149936592D02*
X141014285Y-150269925D01*
X141014285Y-150269925D02*
X140966666Y-150460401D01*
X140966666Y-150460401D02*
X140871428Y-150555640D01*
X140871428Y-150555640D02*
X140776190Y-150603259D01*
X140776190Y-150603259D02*
X140585714Y-150603259D01*
X140585714Y-150603259D02*
X140490476Y-150555640D01*
X140490476Y-150555640D02*
X140395238Y-150460401D01*
X140395238Y-150460401D02*
X140347619Y-150269925D01*
X140347619Y-150269925D02*
X140347619Y-149936592D01*
X140347619Y-149936592D02*
X140395238Y-149746116D01*
X140395238Y-149746116D02*
X140490476Y-149650878D01*
X140490476Y-149650878D02*
X140585714Y-149603259D01*
X144361905Y-110653259D02*
X144361905Y-109653259D01*
X144361905Y-109653259D02*
X144933333Y-110653259D01*
X144933333Y-110653259D02*
X144933333Y-109653259D01*
X145409524Y-110129449D02*
X145742857Y-110129449D01*
X145885714Y-110653259D02*
X145409524Y-110653259D01*
X145409524Y-110653259D02*
X145409524Y-109653259D01*
X145409524Y-109653259D02*
X145885714Y-109653259D01*
X144361905Y-147205640D02*
X144504762Y-147253259D01*
X144504762Y-147253259D02*
X144742857Y-147253259D01*
X144742857Y-147253259D02*
X144838095Y-147205640D01*
X144838095Y-147205640D02*
X144885714Y-147158020D01*
X144885714Y-147158020D02*
X144933333Y-147062782D01*
X144933333Y-147062782D02*
X144933333Y-146967544D01*
X144933333Y-146967544D02*
X144885714Y-146872306D01*
X144885714Y-146872306D02*
X144838095Y-146824687D01*
X144838095Y-146824687D02*
X144742857Y-146777068D01*
X144742857Y-146777068D02*
X144552381Y-146729449D01*
X144552381Y-146729449D02*
X144457143Y-146681830D01*
X144457143Y-146681830D02*
X144409524Y-146634211D01*
X144409524Y-146634211D02*
X144361905Y-146538973D01*
X144361905Y-146538973D02*
X144361905Y-146443735D01*
X144361905Y-146443735D02*
X144409524Y-146348497D01*
X144409524Y-146348497D02*
X144457143Y-146300878D01*
X144457143Y-146300878D02*
X144552381Y-146253259D01*
X144552381Y-146253259D02*
X144790476Y-146253259D01*
X144790476Y-146253259D02*
X144933333Y-146300878D01*
X145361905Y-146729449D02*
X145695238Y-146729449D01*
X145838095Y-147253259D02*
X145361905Y-147253259D01*
X145361905Y-147253259D02*
X145361905Y-146253259D01*
X145361905Y-146253259D02*
X145838095Y-146253259D01*
X121385714Y-114545782D02*
X121385714Y-115517211D01*
X121385714Y-115517211D02*
X121442857Y-115631497D01*
X121442857Y-115631497D02*
X121500000Y-115688640D01*
X121500000Y-115688640D02*
X121614285Y-115745782D01*
X121614285Y-115745782D02*
X121842857Y-115745782D01*
X121842857Y-115745782D02*
X121957142Y-115688640D01*
X121957142Y-115688640D02*
X122014285Y-115631497D01*
X122014285Y-115631497D02*
X122071428Y-115517211D01*
X122071428Y-115517211D02*
X122071428Y-114545782D01*
X122585714Y-115688640D02*
X122757143Y-115745782D01*
X122757143Y-115745782D02*
X123042857Y-115745782D01*
X123042857Y-115745782D02*
X123157143Y-115688640D01*
X123157143Y-115688640D02*
X123214285Y-115631497D01*
X123214285Y-115631497D02*
X123271428Y-115517211D01*
X123271428Y-115517211D02*
X123271428Y-115402925D01*
X123271428Y-115402925D02*
X123214285Y-115288640D01*
X123214285Y-115288640D02*
X123157143Y-115231497D01*
X123157143Y-115231497D02*
X123042857Y-115174354D01*
X123042857Y-115174354D02*
X122814285Y-115117211D01*
X122814285Y-115117211D02*
X122700000Y-115060068D01*
X122700000Y-115060068D02*
X122642857Y-115002925D01*
X122642857Y-115002925D02*
X122585714Y-114888640D01*
X122585714Y-114888640D02*
X122585714Y-114774354D01*
X122585714Y-114774354D02*
X122642857Y-114660068D01*
X122642857Y-114660068D02*
X122700000Y-114602925D01*
X122700000Y-114602925D02*
X122814285Y-114545782D01*
X122814285Y-114545782D02*
X123100000Y-114545782D01*
X123100000Y-114545782D02*
X123271428Y-114602925D01*
X124185714Y-115117211D02*
X124357142Y-115174354D01*
X124357142Y-115174354D02*
X124414285Y-115231497D01*
X124414285Y-115231497D02*
X124471428Y-115345782D01*
X124471428Y-115345782D02*
X124471428Y-115517211D01*
X124471428Y-115517211D02*
X124414285Y-115631497D01*
X124414285Y-115631497D02*
X124357142Y-115688640D01*
X124357142Y-115688640D02*
X124242857Y-115745782D01*
X124242857Y-115745782D02*
X123785714Y-115745782D01*
X123785714Y-115745782D02*
X123785714Y-114545782D01*
X123785714Y-114545782D02*
X124185714Y-114545782D01*
X124185714Y-114545782D02*
X124300000Y-114602925D01*
X124300000Y-114602925D02*
X124357142Y-114660068D01*
X124357142Y-114660068D02*
X124414285Y-114774354D01*
X124414285Y-114774354D02*
X124414285Y-114888640D01*
X124414285Y-114888640D02*
X124357142Y-115002925D01*
X124357142Y-115002925D02*
X124300000Y-115060068D01*
X124300000Y-115060068D02*
X124185714Y-115117211D01*
X124185714Y-115117211D02*
X123785714Y-115117211D01*
X124985714Y-115288640D02*
X125900000Y-115288640D01*
X127157142Y-115631497D02*
X127099999Y-115688640D01*
X127099999Y-115688640D02*
X126928571Y-115745782D01*
X126928571Y-115745782D02*
X126814285Y-115745782D01*
X126814285Y-115745782D02*
X126642856Y-115688640D01*
X126642856Y-115688640D02*
X126528571Y-115574354D01*
X126528571Y-115574354D02*
X126471428Y-115460068D01*
X126471428Y-115460068D02*
X126414285Y-115231497D01*
X126414285Y-115231497D02*
X126414285Y-115060068D01*
X126414285Y-115060068D02*
X126471428Y-114831497D01*
X126471428Y-114831497D02*
X126528571Y-114717211D01*
X126528571Y-114717211D02*
X126642856Y-114602925D01*
X126642856Y-114602925D02*
X126814285Y-114545782D01*
X126814285Y-114545782D02*
X126928571Y-114545782D01*
X126928571Y-114545782D02*
X127099999Y-114602925D01*
X127099999Y-114602925D02*
X127157142Y-114660068D01*
X129157142Y-114545782D02*
X128585714Y-114545782D01*
X128585714Y-114545782D02*
X128528571Y-115117211D01*
X128528571Y-115117211D02*
X128585714Y-115060068D01*
X128585714Y-115060068D02*
X128700000Y-115002925D01*
X128700000Y-115002925D02*
X128985714Y-115002925D01*
X128985714Y-115002925D02*
X129100000Y-115060068D01*
X129100000Y-115060068D02*
X129157142Y-115117211D01*
X129157142Y-115117211D02*
X129214285Y-115231497D01*
X129214285Y-115231497D02*
X129214285Y-115517211D01*
X129214285Y-115517211D02*
X129157142Y-115631497D01*
X129157142Y-115631497D02*
X129100000Y-115688640D01*
X129100000Y-115688640D02*
X128985714Y-115745782D01*
X128985714Y-115745782D02*
X128700000Y-115745782D01*
X128700000Y-115745782D02*
X128585714Y-115688640D01*
X128585714Y-115688640D02*
X128528571Y-115631497D01*
X129557142Y-114545782D02*
X129957142Y-115745782D01*
X129957142Y-115745782D02*
X130357142Y-114545782D01*
X131899999Y-114545782D02*
X132128571Y-114545782D01*
X132128571Y-114545782D02*
X132242856Y-114602925D01*
X132242856Y-114602925D02*
X132357142Y-114717211D01*
X132357142Y-114717211D02*
X132414285Y-114945782D01*
X132414285Y-114945782D02*
X132414285Y-115345782D01*
X132414285Y-115345782D02*
X132357142Y-115574354D01*
X132357142Y-115574354D02*
X132242856Y-115688640D01*
X132242856Y-115688640D02*
X132128571Y-115745782D01*
X132128571Y-115745782D02*
X131899999Y-115745782D01*
X131899999Y-115745782D02*
X131785714Y-115688640D01*
X131785714Y-115688640D02*
X131671428Y-115574354D01*
X131671428Y-115574354D02*
X131614285Y-115345782D01*
X131614285Y-115345782D02*
X131614285Y-114945782D01*
X131614285Y-114945782D02*
X131671428Y-114717211D01*
X131671428Y-114717211D02*
X131785714Y-114602925D01*
X131785714Y-114602925D02*
X131899999Y-114545782D01*
X132928571Y-115745782D02*
X132928571Y-114545782D01*
X132928571Y-114545782D02*
X133614285Y-115745782D01*
X133614285Y-115745782D02*
X133614285Y-114545782D01*
X134757142Y-115745782D02*
X134185714Y-115745782D01*
X134185714Y-115745782D02*
X134185714Y-114545782D01*
X135385714Y-115174354D02*
X135385714Y-115745782D01*
X134985714Y-114545782D02*
X135385714Y-115174354D01*
X135385714Y-115174354D02*
X135785714Y-114545782D01*
X119299999Y-155460068D02*
X119185713Y-155402925D01*
X119185713Y-155402925D02*
X119071427Y-155288640D01*
X119071427Y-155288640D02*
X118899999Y-155117211D01*
X118899999Y-155117211D02*
X118785713Y-155060068D01*
X118785713Y-155060068D02*
X118671427Y-155060068D01*
X118728570Y-155345782D02*
X118614285Y-155288640D01*
X118614285Y-155288640D02*
X118499999Y-155174354D01*
X118499999Y-155174354D02*
X118442856Y-154945782D01*
X118442856Y-154945782D02*
X118442856Y-154545782D01*
X118442856Y-154545782D02*
X118499999Y-154317211D01*
X118499999Y-154317211D02*
X118614285Y-154202925D01*
X118614285Y-154202925D02*
X118728570Y-154145782D01*
X118728570Y-154145782D02*
X118957142Y-154145782D01*
X118957142Y-154145782D02*
X119071427Y-154202925D01*
X119071427Y-154202925D02*
X119185713Y-154317211D01*
X119185713Y-154317211D02*
X119242856Y-154545782D01*
X119242856Y-154545782D02*
X119242856Y-154945782D01*
X119242856Y-154945782D02*
X119185713Y-155174354D01*
X119185713Y-155174354D02*
X119071427Y-155288640D01*
X119071427Y-155288640D02*
X118957142Y-155345782D01*
X118957142Y-155345782D02*
X118728570Y-155345782D01*
X119757142Y-154145782D02*
X119757142Y-155117211D01*
X119757142Y-155117211D02*
X119814285Y-155231497D01*
X119814285Y-155231497D02*
X119871428Y-155288640D01*
X119871428Y-155288640D02*
X119985713Y-155345782D01*
X119985713Y-155345782D02*
X120214285Y-155345782D01*
X120214285Y-155345782D02*
X120328570Y-155288640D01*
X120328570Y-155288640D02*
X120385713Y-155231497D01*
X120385713Y-155231497D02*
X120442856Y-155117211D01*
X120442856Y-155117211D02*
X120442856Y-154145782D01*
X121014285Y-155345782D02*
X121014285Y-154145782D01*
X121585714Y-154717211D02*
X121985714Y-154717211D01*
X122157142Y-155345782D02*
X121585714Y-155345782D01*
X121585714Y-155345782D02*
X121585714Y-154145782D01*
X121585714Y-154145782D02*
X122157142Y-154145782D01*
X122499999Y-154145782D02*
X123185714Y-154145782D01*
X122842856Y-155345782D02*
X122842856Y-154145782D01*
X124728571Y-154145782D02*
X124957143Y-154145782D01*
X124957143Y-154145782D02*
X125071428Y-154202925D01*
X125071428Y-154202925D02*
X125185714Y-154317211D01*
X125185714Y-154317211D02*
X125242857Y-154545782D01*
X125242857Y-154545782D02*
X125242857Y-154945782D01*
X125242857Y-154945782D02*
X125185714Y-155174354D01*
X125185714Y-155174354D02*
X125071428Y-155288640D01*
X125071428Y-155288640D02*
X124957143Y-155345782D01*
X124957143Y-155345782D02*
X124728571Y-155345782D01*
X124728571Y-155345782D02*
X124614286Y-155288640D01*
X124614286Y-155288640D02*
X124500000Y-155174354D01*
X124500000Y-155174354D02*
X124442857Y-154945782D01*
X124442857Y-154945782D02*
X124442857Y-154545782D01*
X124442857Y-154545782D02*
X124500000Y-154317211D01*
X124500000Y-154317211D02*
X124614286Y-154202925D01*
X124614286Y-154202925D02*
X124728571Y-154145782D01*
X126442857Y-155345782D02*
X126042857Y-154774354D01*
X125757143Y-155345782D02*
X125757143Y-154145782D01*
X125757143Y-154145782D02*
X126214286Y-154145782D01*
X126214286Y-154145782D02*
X126328571Y-154202925D01*
X126328571Y-154202925D02*
X126385714Y-154260068D01*
X126385714Y-154260068D02*
X126442857Y-154374354D01*
X126442857Y-154374354D02*
X126442857Y-154545782D01*
X126442857Y-154545782D02*
X126385714Y-154660068D01*
X126385714Y-154660068D02*
X126328571Y-154717211D01*
X126328571Y-154717211D02*
X126214286Y-154774354D01*
X126214286Y-154774354D02*
X125757143Y-154774354D01*
X127357143Y-154717211D02*
X127528571Y-154774354D01*
X127528571Y-154774354D02*
X127585714Y-154831497D01*
X127585714Y-154831497D02*
X127642857Y-154945782D01*
X127642857Y-154945782D02*
X127642857Y-155117211D01*
X127642857Y-155117211D02*
X127585714Y-155231497D01*
X127585714Y-155231497D02*
X127528571Y-155288640D01*
X127528571Y-155288640D02*
X127414286Y-155345782D01*
X127414286Y-155345782D02*
X126957143Y-155345782D01*
X126957143Y-155345782D02*
X126957143Y-154145782D01*
X126957143Y-154145782D02*
X127357143Y-154145782D01*
X127357143Y-154145782D02*
X127471429Y-154202925D01*
X127471429Y-154202925D02*
X127528571Y-154260068D01*
X127528571Y-154260068D02*
X127585714Y-154374354D01*
X127585714Y-154374354D02*
X127585714Y-154488640D01*
X127585714Y-154488640D02*
X127528571Y-154602925D01*
X127528571Y-154602925D02*
X127471429Y-154660068D01*
X127471429Y-154660068D02*
X127357143Y-154717211D01*
X127357143Y-154717211D02*
X126957143Y-154717211D01*
X128157143Y-155345782D02*
X128157143Y-154145782D01*
X128557143Y-154145782D02*
X129242858Y-154145782D01*
X128900000Y-155345782D02*
X128900000Y-154145782D01*
X131414287Y-154088640D02*
X130385715Y-155631497D01*
X133528573Y-155460068D02*
X133414287Y-155402925D01*
X133414287Y-155402925D02*
X133300001Y-155288640D01*
X133300001Y-155288640D02*
X133128573Y-155117211D01*
X133128573Y-155117211D02*
X133014287Y-155060068D01*
X133014287Y-155060068D02*
X132900001Y-155060068D01*
X132957144Y-155345782D02*
X132842859Y-155288640D01*
X132842859Y-155288640D02*
X132728573Y-155174354D01*
X132728573Y-155174354D02*
X132671430Y-154945782D01*
X132671430Y-154945782D02*
X132671430Y-154545782D01*
X132671430Y-154545782D02*
X132728573Y-154317211D01*
X132728573Y-154317211D02*
X132842859Y-154202925D01*
X132842859Y-154202925D02*
X132957144Y-154145782D01*
X132957144Y-154145782D02*
X133185716Y-154145782D01*
X133185716Y-154145782D02*
X133300001Y-154202925D01*
X133300001Y-154202925D02*
X133414287Y-154317211D01*
X133414287Y-154317211D02*
X133471430Y-154545782D01*
X133471430Y-154545782D02*
X133471430Y-154945782D01*
X133471430Y-154945782D02*
X133414287Y-155174354D01*
X133414287Y-155174354D02*
X133300001Y-155288640D01*
X133300001Y-155288640D02*
X133185716Y-155345782D01*
X133185716Y-155345782D02*
X132957144Y-155345782D01*
X134214287Y-154145782D02*
X134442859Y-154145782D01*
X134442859Y-154145782D02*
X134557144Y-154202925D01*
X134557144Y-154202925D02*
X134671430Y-154317211D01*
X134671430Y-154317211D02*
X134728573Y-154545782D01*
X134728573Y-154545782D02*
X134728573Y-154945782D01*
X134728573Y-154945782D02*
X134671430Y-155174354D01*
X134671430Y-155174354D02*
X134557144Y-155288640D01*
X134557144Y-155288640D02*
X134442859Y-155345782D01*
X134442859Y-155345782D02*
X134214287Y-155345782D01*
X134214287Y-155345782D02*
X134100002Y-155288640D01*
X134100002Y-155288640D02*
X133985716Y-155174354D01*
X133985716Y-155174354D02*
X133928573Y-154945782D01*
X133928573Y-154945782D02*
X133928573Y-154545782D01*
X133928573Y-154545782D02*
X133985716Y-154317211D01*
X133985716Y-154317211D02*
X134100002Y-154202925D01*
X134100002Y-154202925D02*
X134214287Y-154145782D01*
X135242859Y-154888640D02*
X136157145Y-154888640D01*
X137414287Y-155345782D02*
X137014287Y-154774354D01*
X136728573Y-155345782D02*
X136728573Y-154145782D01*
X136728573Y-154145782D02*
X137185716Y-154145782D01*
X137185716Y-154145782D02*
X137300001Y-154202925D01*
X137300001Y-154202925D02*
X137357144Y-154260068D01*
X137357144Y-154260068D02*
X137414287Y-154374354D01*
X137414287Y-154374354D02*
X137414287Y-154545782D01*
X137414287Y-154545782D02*
X137357144Y-154660068D01*
X137357144Y-154660068D02*
X137300001Y-154717211D01*
X137300001Y-154717211D02*
X137185716Y-154774354D01*
X137185716Y-154774354D02*
X136728573Y-154774354D01*
X138557144Y-155345782D02*
X137871430Y-155345782D01*
X138214287Y-155345782D02*
X138214287Y-154145782D01*
X138214287Y-154145782D02*
X138100001Y-154317211D01*
X138100001Y-154317211D02*
X137985716Y-154431497D01*
X137985716Y-154431497D02*
X137871430Y-154488640D01*
D12*
X140161905Y-107854819D02*
X140161905Y-106854819D01*
X140161905Y-106854819D02*
X140400000Y-106854819D01*
X140400000Y-106854819D02*
X140542857Y-106902438D01*
X140542857Y-106902438D02*
X140638095Y-106997676D01*
X140638095Y-106997676D02*
X140685714Y-107092914D01*
X140685714Y-107092914D02*
X140733333Y-107283390D01*
X140733333Y-107283390D02*
X140733333Y-107426247D01*
X140733333Y-107426247D02*
X140685714Y-107616723D01*
X140685714Y-107616723D02*
X140638095Y-107711961D01*
X140638095Y-107711961D02*
X140542857Y-107807200D01*
X140542857Y-107807200D02*
X140400000Y-107854819D01*
X140400000Y-107854819D02*
X140161905Y-107854819D01*
X141685714Y-107854819D02*
X141114286Y-107854819D01*
X141400000Y-107854819D02*
X141400000Y-106854819D01*
X141400000Y-106854819D02*
X141304762Y-106997676D01*
X141304762Y-106997676D02*
X141209524Y-107092914D01*
X141209524Y-107092914D02*
X141114286Y-107140533D01*
X134489580Y-110366666D02*
X134537200Y-110414285D01*
X134537200Y-110414285D02*
X134584819Y-110557142D01*
X134584819Y-110557142D02*
X134584819Y-110652380D01*
X134584819Y-110652380D02*
X134537200Y-110795237D01*
X134537200Y-110795237D02*
X134441961Y-110890475D01*
X134441961Y-110890475D02*
X134346723Y-110938094D01*
X134346723Y-110938094D02*
X134156247Y-110985713D01*
X134156247Y-110985713D02*
X134013390Y-110985713D01*
X134013390Y-110985713D02*
X133822914Y-110938094D01*
X133822914Y-110938094D02*
X133727676Y-110890475D01*
X133727676Y-110890475D02*
X133632438Y-110795237D01*
X133632438Y-110795237D02*
X133584819Y-110652380D01*
X133584819Y-110652380D02*
X133584819Y-110557142D01*
X133584819Y-110557142D02*
X133632438Y-110414285D01*
X133632438Y-110414285D02*
X133680057Y-110366666D01*
X134584819Y-109414285D02*
X134584819Y-109985713D01*
X134584819Y-109699999D02*
X133584819Y-109699999D01*
X133584819Y-109699999D02*
X133727676Y-109795237D01*
X133727676Y-109795237D02*
X133822914Y-109890475D01*
X133822914Y-109890475D02*
X133870533Y-109985713D01*
X144933333Y-148924819D02*
X144600000Y-148448628D01*
X144361905Y-148924819D02*
X144361905Y-147924819D01*
X144361905Y-147924819D02*
X144742857Y-147924819D01*
X144742857Y-147924819D02*
X144838095Y-147972438D01*
X144838095Y-147972438D02*
X144885714Y-148020057D01*
X144885714Y-148020057D02*
X144933333Y-148115295D01*
X144933333Y-148115295D02*
X144933333Y-148258152D01*
X144933333Y-148258152D02*
X144885714Y-148353390D01*
X144885714Y-148353390D02*
X144838095Y-148401009D01*
X144838095Y-148401009D02*
X144742857Y-148448628D01*
X144742857Y-148448628D02*
X144361905Y-148448628D01*
X145790476Y-147924819D02*
X145600000Y-147924819D01*
X145600000Y-147924819D02*
X145504762Y-147972438D01*
X145504762Y-147972438D02*
X145457143Y-148020057D01*
X145457143Y-148020057D02*
X145361905Y-148162914D01*
X145361905Y-148162914D02*
X145314286Y-148353390D01*
X145314286Y-148353390D02*
X145314286Y-148734342D01*
X145314286Y-148734342D02*
X145361905Y-148829580D01*
X145361905Y-148829580D02*
X145409524Y-148877200D01*
X145409524Y-148877200D02*
X145504762Y-148924819D01*
X145504762Y-148924819D02*
X145695238Y-148924819D01*
X145695238Y-148924819D02*
X145790476Y-148877200D01*
X145790476Y-148877200D02*
X145838095Y-148829580D01*
X145838095Y-148829580D02*
X145885714Y-148734342D01*
X145885714Y-148734342D02*
X145885714Y-148496247D01*
X145885714Y-148496247D02*
X145838095Y-148401009D01*
X145838095Y-148401009D02*
X145790476Y-148353390D01*
X145790476Y-148353390D02*
X145695238Y-148305771D01*
X145695238Y-148305771D02*
X145504762Y-148305771D01*
X145504762Y-148305771D02*
X145409524Y-148353390D01*
X145409524Y-148353390D02*
X145361905Y-148401009D01*
X145361905Y-148401009D02*
X145314286Y-148496247D01*
X128833333Y-109720180D02*
X128833333Y-109005895D01*
X128833333Y-109005895D02*
X128880952Y-108863038D01*
X128880952Y-108863038D02*
X128976190Y-108767800D01*
X128976190Y-108767800D02*
X129119047Y-108720180D01*
X129119047Y-108720180D02*
X129214285Y-108720180D01*
X127833333Y-108720180D02*
X128404761Y-108720180D01*
X128119047Y-108720180D02*
X128119047Y-109720180D01*
X128119047Y-109720180D02*
X128214285Y-109577323D01*
X128214285Y-109577323D02*
X128309523Y-109482085D01*
X128309523Y-109482085D02*
X128404761Y-109434466D01*
X128634819Y-111966666D02*
X128158628Y-112299999D01*
X128634819Y-112538094D02*
X127634819Y-112538094D01*
X127634819Y-112538094D02*
X127634819Y-112157142D01*
X127634819Y-112157142D02*
X127682438Y-112061904D01*
X127682438Y-112061904D02*
X127730057Y-112014285D01*
X127730057Y-112014285D02*
X127825295Y-111966666D01*
X127825295Y-111966666D02*
X127968152Y-111966666D01*
X127968152Y-111966666D02*
X128063390Y-112014285D01*
X128063390Y-112014285D02*
X128111009Y-112061904D01*
X128111009Y-112061904D02*
X128158628Y-112157142D01*
X128158628Y-112157142D02*
X128158628Y-112538094D01*
X127730057Y-111585713D02*
X127682438Y-111538094D01*
X127682438Y-111538094D02*
X127634819Y-111442856D01*
X127634819Y-111442856D02*
X127634819Y-111204761D01*
X127634819Y-111204761D02*
X127682438Y-111109523D01*
X127682438Y-111109523D02*
X127730057Y-111061904D01*
X127730057Y-111061904D02*
X127825295Y-111014285D01*
X127825295Y-111014285D02*
X127920533Y-111014285D01*
X127920533Y-111014285D02*
X128063390Y-111061904D01*
X128063390Y-111061904D02*
X128634819Y-111633332D01*
X128634819Y-111633332D02*
X128634819Y-111014285D01*
X111733333Y-108984819D02*
X111400000Y-108508628D01*
X111161905Y-108984819D02*
X111161905Y-107984819D01*
X111161905Y-107984819D02*
X111542857Y-107984819D01*
X111542857Y-107984819D02*
X111638095Y-108032438D01*
X111638095Y-108032438D02*
X111685714Y-108080057D01*
X111685714Y-108080057D02*
X111733333Y-108175295D01*
X111733333Y-108175295D02*
X111733333Y-108318152D01*
X111733333Y-108318152D02*
X111685714Y-108413390D01*
X111685714Y-108413390D02*
X111638095Y-108461009D01*
X111638095Y-108461009D02*
X111542857Y-108508628D01*
X111542857Y-108508628D02*
X111161905Y-108508628D01*
X112590476Y-108318152D02*
X112590476Y-108984819D01*
X112352381Y-107937200D02*
X112114286Y-108651485D01*
X112114286Y-108651485D02*
X112733333Y-108651485D01*
X106354819Y-109238094D02*
X105354819Y-109238094D01*
X105354819Y-109238094D02*
X105354819Y-108999999D01*
X105354819Y-108999999D02*
X105402438Y-108857142D01*
X105402438Y-108857142D02*
X105497676Y-108761904D01*
X105497676Y-108761904D02*
X105592914Y-108714285D01*
X105592914Y-108714285D02*
X105783390Y-108666666D01*
X105783390Y-108666666D02*
X105926247Y-108666666D01*
X105926247Y-108666666D02*
X106116723Y-108714285D01*
X106116723Y-108714285D02*
X106211961Y-108761904D01*
X106211961Y-108761904D02*
X106307200Y-108857142D01*
X106307200Y-108857142D02*
X106354819Y-108999999D01*
X106354819Y-108999999D02*
X106354819Y-109238094D01*
X105450057Y-108285713D02*
X105402438Y-108238094D01*
X105402438Y-108238094D02*
X105354819Y-108142856D01*
X105354819Y-108142856D02*
X105354819Y-107904761D01*
X105354819Y-107904761D02*
X105402438Y-107809523D01*
X105402438Y-107809523D02*
X105450057Y-107761904D01*
X105450057Y-107761904D02*
X105545295Y-107714285D01*
X105545295Y-107714285D02*
X105640533Y-107714285D01*
X105640533Y-107714285D02*
X105783390Y-107761904D01*
X105783390Y-107761904D02*
X106354819Y-108333332D01*
X106354819Y-108333332D02*
X106354819Y-107714285D01*
X151554819Y-109238094D02*
X150554819Y-109238094D01*
X150554819Y-109238094D02*
X150554819Y-108999999D01*
X150554819Y-108999999D02*
X150602438Y-108857142D01*
X150602438Y-108857142D02*
X150697676Y-108761904D01*
X150697676Y-108761904D02*
X150792914Y-108714285D01*
X150792914Y-108714285D02*
X150983390Y-108666666D01*
X150983390Y-108666666D02*
X151126247Y-108666666D01*
X151126247Y-108666666D02*
X151316723Y-108714285D01*
X151316723Y-108714285D02*
X151411961Y-108761904D01*
X151411961Y-108761904D02*
X151507200Y-108857142D01*
X151507200Y-108857142D02*
X151554819Y-108999999D01*
X151554819Y-108999999D02*
X151554819Y-109238094D01*
X150554819Y-108333332D02*
X150554819Y-107714285D01*
X150554819Y-107714285D02*
X150935771Y-108047618D01*
X150935771Y-108047618D02*
X150935771Y-107904761D01*
X150935771Y-107904761D02*
X150983390Y-107809523D01*
X150983390Y-107809523D02*
X151031009Y-107761904D01*
X151031009Y-107761904D02*
X151126247Y-107714285D01*
X151126247Y-107714285D02*
X151364342Y-107714285D01*
X151364342Y-107714285D02*
X151459580Y-107761904D01*
X151459580Y-107761904D02*
X151507200Y-107809523D01*
X151507200Y-107809523D02*
X151554819Y-107904761D01*
X151554819Y-107904761D02*
X151554819Y-108190475D01*
X151554819Y-108190475D02*
X151507200Y-108285713D01*
X151507200Y-108285713D02*
X151459580Y-108333332D01*
X131634819Y-111966666D02*
X131158628Y-112299999D01*
X131634819Y-112538094D02*
X130634819Y-112538094D01*
X130634819Y-112538094D02*
X130634819Y-112157142D01*
X130634819Y-112157142D02*
X130682438Y-112061904D01*
X130682438Y-112061904D02*
X130730057Y-112014285D01*
X130730057Y-112014285D02*
X130825295Y-111966666D01*
X130825295Y-111966666D02*
X130968152Y-111966666D01*
X130968152Y-111966666D02*
X131063390Y-112014285D01*
X131063390Y-112014285D02*
X131111009Y-112061904D01*
X131111009Y-112061904D02*
X131158628Y-112157142D01*
X131158628Y-112157142D02*
X131158628Y-112538094D01*
X131634819Y-111014285D02*
X131634819Y-111585713D01*
X131634819Y-111299999D02*
X130634819Y-111299999D01*
X130634819Y-111299999D02*
X130777676Y-111395237D01*
X130777676Y-111395237D02*
X130872914Y-111490475D01*
X130872914Y-111490475D02*
X130920533Y-111585713D01*
X144933333Y-106124819D02*
X144600000Y-105648628D01*
X144361905Y-106124819D02*
X144361905Y-105124819D01*
X144361905Y-105124819D02*
X144742857Y-105124819D01*
X144742857Y-105124819D02*
X144838095Y-105172438D01*
X144838095Y-105172438D02*
X144885714Y-105220057D01*
X144885714Y-105220057D02*
X144933333Y-105315295D01*
X144933333Y-105315295D02*
X144933333Y-105458152D01*
X144933333Y-105458152D02*
X144885714Y-105553390D01*
X144885714Y-105553390D02*
X144838095Y-105601009D01*
X144838095Y-105601009D02*
X144742857Y-105648628D01*
X144742857Y-105648628D02*
X144361905Y-105648628D01*
X145838095Y-105124819D02*
X145361905Y-105124819D01*
X145361905Y-105124819D02*
X145314286Y-105601009D01*
X145314286Y-105601009D02*
X145361905Y-105553390D01*
X145361905Y-105553390D02*
X145457143Y-105505771D01*
X145457143Y-105505771D02*
X145695238Y-105505771D01*
X145695238Y-105505771D02*
X145790476Y-105553390D01*
X145790476Y-105553390D02*
X145838095Y-105601009D01*
X145838095Y-105601009D02*
X145885714Y-105696247D01*
X145885714Y-105696247D02*
X145885714Y-105934342D01*
X145885714Y-105934342D02*
X145838095Y-106029580D01*
X145838095Y-106029580D02*
X145790476Y-106077200D01*
X145790476Y-106077200D02*
X145695238Y-106124819D01*
X145695238Y-106124819D02*
X145457143Y-106124819D01*
X145457143Y-106124819D02*
X145361905Y-106077200D01*
X145361905Y-106077200D02*
X145314286Y-106029580D01*
X114238095Y-121306819D02*
X114809523Y-121306819D01*
X114523809Y-122306819D02*
X114523809Y-121306819D01*
X115142857Y-122306819D02*
X115142857Y-121306819D01*
X115142857Y-121306819D02*
X115523809Y-121306819D01*
X115523809Y-121306819D02*
X115619047Y-121354438D01*
X115619047Y-121354438D02*
X115666666Y-121402057D01*
X115666666Y-121402057D02*
X115714285Y-121497295D01*
X115714285Y-121497295D02*
X115714285Y-121640152D01*
X115714285Y-121640152D02*
X115666666Y-121735390D01*
X115666666Y-121735390D02*
X115619047Y-121783009D01*
X115619047Y-121783009D02*
X115523809Y-121830628D01*
X115523809Y-121830628D02*
X115142857Y-121830628D01*
X116095238Y-121402057D02*
X116142857Y-121354438D01*
X116142857Y-121354438D02*
X116238095Y-121306819D01*
X116238095Y-121306819D02*
X116476190Y-121306819D01*
X116476190Y-121306819D02*
X116571428Y-121354438D01*
X116571428Y-121354438D02*
X116619047Y-121402057D01*
X116619047Y-121402057D02*
X116666666Y-121497295D01*
X116666666Y-121497295D02*
X116666666Y-121592533D01*
X116666666Y-121592533D02*
X116619047Y-121735390D01*
X116619047Y-121735390D02*
X116047619Y-122306819D01*
X116047619Y-122306819D02*
X116666666Y-122306819D01*
X128333333Y-121929580D02*
X128285714Y-121977200D01*
X128285714Y-121977200D02*
X128142857Y-122024819D01*
X128142857Y-122024819D02*
X128047619Y-122024819D01*
X128047619Y-122024819D02*
X127904762Y-121977200D01*
X127904762Y-121977200D02*
X127809524Y-121881961D01*
X127809524Y-121881961D02*
X127761905Y-121786723D01*
X127761905Y-121786723D02*
X127714286Y-121596247D01*
X127714286Y-121596247D02*
X127714286Y-121453390D01*
X127714286Y-121453390D02*
X127761905Y-121262914D01*
X127761905Y-121262914D02*
X127809524Y-121167676D01*
X127809524Y-121167676D02*
X127904762Y-121072438D01*
X127904762Y-121072438D02*
X128047619Y-121024819D01*
X128047619Y-121024819D02*
X128142857Y-121024819D01*
X128142857Y-121024819D02*
X128285714Y-121072438D01*
X128285714Y-121072438D02*
X128333333Y-121120057D01*
X128666667Y-121024819D02*
X129285714Y-121024819D01*
X129285714Y-121024819D02*
X128952381Y-121405771D01*
X128952381Y-121405771D02*
X129095238Y-121405771D01*
X129095238Y-121405771D02*
X129190476Y-121453390D01*
X129190476Y-121453390D02*
X129238095Y-121501009D01*
X129238095Y-121501009D02*
X129285714Y-121596247D01*
X129285714Y-121596247D02*
X129285714Y-121834342D01*
X129285714Y-121834342D02*
X129238095Y-121929580D01*
X129238095Y-121929580D02*
X129190476Y-121977200D01*
X129190476Y-121977200D02*
X129095238Y-122024819D01*
X129095238Y-122024819D02*
X128809524Y-122024819D01*
X128809524Y-122024819D02*
X128714286Y-121977200D01*
X128714286Y-121977200D02*
X128666667Y-121929580D01*
X111733333Y-151784819D02*
X111400000Y-151308628D01*
X111161905Y-151784819D02*
X111161905Y-150784819D01*
X111161905Y-150784819D02*
X111542857Y-150784819D01*
X111542857Y-150784819D02*
X111638095Y-150832438D01*
X111638095Y-150832438D02*
X111685714Y-150880057D01*
X111685714Y-150880057D02*
X111733333Y-150975295D01*
X111733333Y-150975295D02*
X111733333Y-151118152D01*
X111733333Y-151118152D02*
X111685714Y-151213390D01*
X111685714Y-151213390D02*
X111638095Y-151261009D01*
X111638095Y-151261009D02*
X111542857Y-151308628D01*
X111542857Y-151308628D02*
X111161905Y-151308628D01*
X112066667Y-150784819D02*
X112733333Y-150784819D01*
X112733333Y-150784819D02*
X112304762Y-151784819D01*
X135566666Y-107901009D02*
X135233333Y-107901009D01*
X135233333Y-108424819D02*
X135233333Y-107424819D01*
X135233333Y-107424819D02*
X135709523Y-107424819D01*
X136614285Y-108424819D02*
X136042857Y-108424819D01*
X136328571Y-108424819D02*
X136328571Y-107424819D01*
X136328571Y-107424819D02*
X136233333Y-107567676D01*
X136233333Y-107567676D02*
X136138095Y-107662914D01*
X136138095Y-107662914D02*
X136042857Y-107710533D01*
X128166666Y-135474819D02*
X128166666Y-136189104D01*
X128166666Y-136189104D02*
X128119047Y-136331961D01*
X128119047Y-136331961D02*
X128023809Y-136427200D01*
X128023809Y-136427200D02*
X127880952Y-136474819D01*
X127880952Y-136474819D02*
X127785714Y-136474819D01*
X128595238Y-135570057D02*
X128642857Y-135522438D01*
X128642857Y-135522438D02*
X128738095Y-135474819D01*
X128738095Y-135474819D02*
X128976190Y-135474819D01*
X128976190Y-135474819D02*
X129071428Y-135522438D01*
X129071428Y-135522438D02*
X129119047Y-135570057D01*
X129119047Y-135570057D02*
X129166666Y-135665295D01*
X129166666Y-135665295D02*
X129166666Y-135760533D01*
X129166666Y-135760533D02*
X129119047Y-135903390D01*
X129119047Y-135903390D02*
X128547619Y-136474819D01*
X128547619Y-136474819D02*
X129166666Y-136474819D01*
X121554819Y-126166666D02*
X121078628Y-126499999D01*
X121554819Y-126738094D02*
X120554819Y-126738094D01*
X120554819Y-126738094D02*
X120554819Y-126357142D01*
X120554819Y-126357142D02*
X120602438Y-126261904D01*
X120602438Y-126261904D02*
X120650057Y-126214285D01*
X120650057Y-126214285D02*
X120745295Y-126166666D01*
X120745295Y-126166666D02*
X120888152Y-126166666D01*
X120888152Y-126166666D02*
X120983390Y-126214285D01*
X120983390Y-126214285D02*
X121031009Y-126261904D01*
X121031009Y-126261904D02*
X121078628Y-126357142D01*
X121078628Y-126357142D02*
X121078628Y-126738094D01*
X120554819Y-125833332D02*
X120554819Y-125214285D01*
X120554819Y-125214285D02*
X120935771Y-125547618D01*
X120935771Y-125547618D02*
X120935771Y-125404761D01*
X120935771Y-125404761D02*
X120983390Y-125309523D01*
X120983390Y-125309523D02*
X121031009Y-125261904D01*
X121031009Y-125261904D02*
X121126247Y-125214285D01*
X121126247Y-125214285D02*
X121364342Y-125214285D01*
X121364342Y-125214285D02*
X121459580Y-125261904D01*
X121459580Y-125261904D02*
X121507200Y-125309523D01*
X121507200Y-125309523D02*
X121554819Y-125404761D01*
X121554819Y-125404761D02*
X121554819Y-125690475D01*
X121554819Y-125690475D02*
X121507200Y-125785713D01*
X121507200Y-125785713D02*
X121459580Y-125833332D01*
X114238095Y-126306819D02*
X114809523Y-126306819D01*
X114523809Y-127306819D02*
X114523809Y-126306819D01*
X115142857Y-127306819D02*
X115142857Y-126306819D01*
X115142857Y-126306819D02*
X115523809Y-126306819D01*
X115523809Y-126306819D02*
X115619047Y-126354438D01*
X115619047Y-126354438D02*
X115666666Y-126402057D01*
X115666666Y-126402057D02*
X115714285Y-126497295D01*
X115714285Y-126497295D02*
X115714285Y-126640152D01*
X115714285Y-126640152D02*
X115666666Y-126735390D01*
X115666666Y-126735390D02*
X115619047Y-126783009D01*
X115619047Y-126783009D02*
X115523809Y-126830628D01*
X115523809Y-126830628D02*
X115142857Y-126830628D01*
X116571428Y-126640152D02*
X116571428Y-127306819D01*
X116333333Y-126259200D02*
X116095238Y-126973485D01*
X116095238Y-126973485D02*
X116714285Y-126973485D01*
X151554819Y-149238094D02*
X150554819Y-149238094D01*
X150554819Y-149238094D02*
X150554819Y-148999999D01*
X150554819Y-148999999D02*
X150602438Y-148857142D01*
X150602438Y-148857142D02*
X150697676Y-148761904D01*
X150697676Y-148761904D02*
X150792914Y-148714285D01*
X150792914Y-148714285D02*
X150983390Y-148666666D01*
X150983390Y-148666666D02*
X151126247Y-148666666D01*
X151126247Y-148666666D02*
X151316723Y-148714285D01*
X151316723Y-148714285D02*
X151411961Y-148761904D01*
X151411961Y-148761904D02*
X151507200Y-148857142D01*
X151507200Y-148857142D02*
X151554819Y-148999999D01*
X151554819Y-148999999D02*
X151554819Y-149238094D01*
X150888152Y-147809523D02*
X151554819Y-147809523D01*
X150507200Y-148047618D02*
X151221485Y-148285713D01*
X151221485Y-148285713D02*
X151221485Y-147666666D01*
X127738095Y-133654818D02*
X127738095Y-134464341D01*
X127738095Y-134464341D02*
X127785714Y-134559579D01*
X127785714Y-134559579D02*
X127833333Y-134607199D01*
X127833333Y-134607199D02*
X127928571Y-134654818D01*
X127928571Y-134654818D02*
X128119047Y-134654818D01*
X128119047Y-134654818D02*
X128214285Y-134607199D01*
X128214285Y-134607199D02*
X128261904Y-134559579D01*
X128261904Y-134559579D02*
X128309523Y-134464341D01*
X128309523Y-134464341D02*
X128309523Y-133654818D01*
X129309523Y-134654818D02*
X128738095Y-134654818D01*
X129023809Y-134654818D02*
X129023809Y-133654818D01*
X129023809Y-133654818D02*
X128928571Y-133797675D01*
X128928571Y-133797675D02*
X128833333Y-133892913D01*
X128833333Y-133892913D02*
X128738095Y-133940532D01*
X106354819Y-149238094D02*
X105354819Y-149238094D01*
X105354819Y-149238094D02*
X105354819Y-148999999D01*
X105354819Y-148999999D02*
X105402438Y-148857142D01*
X105402438Y-148857142D02*
X105497676Y-148761904D01*
X105497676Y-148761904D02*
X105592914Y-148714285D01*
X105592914Y-148714285D02*
X105783390Y-148666666D01*
X105783390Y-148666666D02*
X105926247Y-148666666D01*
X105926247Y-148666666D02*
X106116723Y-148714285D01*
X106116723Y-148714285D02*
X106211961Y-148761904D01*
X106211961Y-148761904D02*
X106307200Y-148857142D01*
X106307200Y-148857142D02*
X106354819Y-148999999D01*
X106354819Y-148999999D02*
X106354819Y-149238094D01*
X105354819Y-147761904D02*
X105354819Y-148238094D01*
X105354819Y-148238094D02*
X105831009Y-148285713D01*
X105831009Y-148285713D02*
X105783390Y-148238094D01*
X105783390Y-148238094D02*
X105735771Y-148142856D01*
X105735771Y-148142856D02*
X105735771Y-147904761D01*
X105735771Y-147904761D02*
X105783390Y-147809523D01*
X105783390Y-147809523D02*
X105831009Y-147761904D01*
X105831009Y-147761904D02*
X105926247Y-147714285D01*
X105926247Y-147714285D02*
X106164342Y-147714285D01*
X106164342Y-147714285D02*
X106259580Y-147761904D01*
X106259580Y-147761904D02*
X106307200Y-147809523D01*
X106307200Y-147809523D02*
X106354819Y-147904761D01*
X106354819Y-147904761D02*
X106354819Y-148142856D01*
X106354819Y-148142856D02*
X106307200Y-148238094D01*
X106307200Y-148238094D02*
X106259580Y-148285713D01*
X114238095Y-131306819D02*
X114809523Y-131306819D01*
X114523809Y-132306819D02*
X114523809Y-131306819D01*
X115142857Y-132306819D02*
X115142857Y-131306819D01*
X115142857Y-131306819D02*
X115523809Y-131306819D01*
X115523809Y-131306819D02*
X115619047Y-131354438D01*
X115619047Y-131354438D02*
X115666666Y-131402057D01*
X115666666Y-131402057D02*
X115714285Y-131497295D01*
X115714285Y-131497295D02*
X115714285Y-131640152D01*
X115714285Y-131640152D02*
X115666666Y-131735390D01*
X115666666Y-131735390D02*
X115619047Y-131783009D01*
X115619047Y-131783009D02*
X115523809Y-131830628D01*
X115523809Y-131830628D02*
X115142857Y-131830628D01*
X116047619Y-131306819D02*
X116666666Y-131306819D01*
X116666666Y-131306819D02*
X116333333Y-131687771D01*
X116333333Y-131687771D02*
X116476190Y-131687771D01*
X116476190Y-131687771D02*
X116571428Y-131735390D01*
X116571428Y-131735390D02*
X116619047Y-131783009D01*
X116619047Y-131783009D02*
X116666666Y-131878247D01*
X116666666Y-131878247D02*
X116666666Y-132116342D01*
X116666666Y-132116342D02*
X116619047Y-132211580D01*
X116619047Y-132211580D02*
X116571428Y-132259200D01*
X116571428Y-132259200D02*
X116476190Y-132306819D01*
X116476190Y-132306819D02*
X116190476Y-132306819D01*
X116190476Y-132306819D02*
X116095238Y-132259200D01*
X116095238Y-132259200D02*
X116047619Y-132211580D01*
X119238095Y-102806819D02*
X119809523Y-102806819D01*
X119523809Y-103806819D02*
X119523809Y-102806819D01*
X120142857Y-103806819D02*
X120142857Y-102806819D01*
X120142857Y-102806819D02*
X120523809Y-102806819D01*
X120523809Y-102806819D02*
X120619047Y-102854438D01*
X120619047Y-102854438D02*
X120666666Y-102902057D01*
X120666666Y-102902057D02*
X120714285Y-102997295D01*
X120714285Y-102997295D02*
X120714285Y-103140152D01*
X120714285Y-103140152D02*
X120666666Y-103235390D01*
X120666666Y-103235390D02*
X120619047Y-103283009D01*
X120619047Y-103283009D02*
X120523809Y-103330628D01*
X120523809Y-103330628D02*
X120142857Y-103330628D01*
X121666666Y-103806819D02*
X121095238Y-103806819D01*
X121380952Y-103806819D02*
X121380952Y-102806819D01*
X121380952Y-102806819D02*
X121285714Y-102949676D01*
X121285714Y-102949676D02*
X121190476Y-103044914D01*
X121190476Y-103044914D02*
X121095238Y-103092533D01*
X141533333Y-114659580D02*
X141485714Y-114707200D01*
X141485714Y-114707200D02*
X141342857Y-114754819D01*
X141342857Y-114754819D02*
X141247619Y-114754819D01*
X141247619Y-114754819D02*
X141104762Y-114707200D01*
X141104762Y-114707200D02*
X141009524Y-114611961D01*
X141009524Y-114611961D02*
X140961905Y-114516723D01*
X140961905Y-114516723D02*
X140914286Y-114326247D01*
X140914286Y-114326247D02*
X140914286Y-114183390D01*
X140914286Y-114183390D02*
X140961905Y-113992914D01*
X140961905Y-113992914D02*
X141009524Y-113897676D01*
X141009524Y-113897676D02*
X141104762Y-113802438D01*
X141104762Y-113802438D02*
X141247619Y-113754819D01*
X141247619Y-113754819D02*
X141342857Y-113754819D01*
X141342857Y-113754819D02*
X141485714Y-113802438D01*
X141485714Y-113802438D02*
X141533333Y-113850057D01*
X141914286Y-113850057D02*
X141961905Y-113802438D01*
X141961905Y-113802438D02*
X142057143Y-113754819D01*
X142057143Y-113754819D02*
X142295238Y-113754819D01*
X142295238Y-113754819D02*
X142390476Y-113802438D01*
X142390476Y-113802438D02*
X142438095Y-113850057D01*
X142438095Y-113850057D02*
X142485714Y-113945295D01*
X142485714Y-113945295D02*
X142485714Y-114040533D01*
X142485714Y-114040533D02*
X142438095Y-114183390D01*
X142438095Y-114183390D02*
X141866667Y-114754819D01*
X141866667Y-114754819D02*
X142485714Y-114754819D01*
D13*
X143260000Y-108400000D02*
X139250000Y-108400000D01*
X143260000Y-110400000D02*
X139250000Y-110400000D01*
X143260000Y-110400000D02*
X143260000Y-108400000D01*
X132190000Y-110059420D02*
X132190000Y-110340580D01*
X133210000Y-110059420D02*
X133210000Y-110340580D01*
X144862742Y-149377500D02*
X145337258Y-149377500D01*
X144862742Y-150422500D02*
X145337258Y-150422500D01*
X123830000Y-103775000D02*
X123830000Y-105475000D01*
X133170000Y-103775000D02*
X133170000Y-105475000D01*
X126227500Y-111562742D02*
X126227500Y-112037258D01*
X127272500Y-111562742D02*
X127272500Y-112037258D01*
X112137258Y-106577500D02*
X111662742Y-106577500D01*
X112137258Y-107622500D02*
X111662742Y-107622500D01*
X107365000Y-106900000D02*
X107365000Y-110785000D01*
X107365000Y-110785000D02*
X109635000Y-110785000D01*
X109635000Y-110785000D02*
X109635000Y-106900000D01*
X147365000Y-106900000D02*
X147365000Y-110785000D01*
X147365000Y-110785000D02*
X149635000Y-110785000D01*
X149635000Y-110785000D02*
X149635000Y-106900000D01*
X129227500Y-111562742D02*
X129227500Y-112037258D01*
X130272500Y-111562742D02*
X130272500Y-112037258D01*
X144862742Y-106577500D02*
X145337258Y-106577500D01*
X144862742Y-107622500D02*
X145337258Y-107622500D01*
X116450000Y-123500000D02*
G75*
G02*
X114550000Y-123500000I-950000J0D01*
G01*
X114550000Y-123500000D02*
G75*
G02*
X116450000Y-123500000I950000J0D01*
G01*
X128359420Y-122490000D02*
X128640580Y-122490000D01*
X128359420Y-123510000D02*
X128640580Y-123510000D01*
X112137258Y-149377500D02*
X111662742Y-149377500D01*
X112137258Y-150422500D02*
X111662742Y-150422500D01*
X135737221Y-108890000D02*
X136062779Y-108890000D01*
X135737221Y-109910000D02*
X136062779Y-109910000D01*
X123940000Y-137560000D02*
X133060000Y-137560000D01*
X123940000Y-153060000D02*
X123940000Y-137560000D01*
X125250000Y-138860000D02*
X131750000Y-138860000D01*
X125250000Y-151760000D02*
X125250000Y-138860000D01*
X131750000Y-138860000D02*
X131750000Y-143260000D01*
X131750000Y-143260000D02*
X133060000Y-143260000D01*
X131750000Y-147360000D02*
X131750000Y-151760000D01*
X131750000Y-151760000D02*
X125250000Y-151760000D01*
X133060000Y-137560000D02*
X133060000Y-153060000D01*
X133060000Y-147360000D02*
X131750000Y-147360000D01*
X133060000Y-153060000D02*
X123940000Y-153060000D01*
X133450000Y-147850000D02*
X134450000Y-148350000D01*
X134450000Y-147350000D02*
X133450000Y-147850000D01*
X134450000Y-148350000D02*
X134450000Y-147350000D01*
X122577500Y-125762742D02*
X122577500Y-126237258D01*
X123622500Y-125762742D02*
X123622500Y-126237258D01*
X116450000Y-128500000D02*
G75*
G02*
X114550000Y-128500000I-950000J0D01*
G01*
X114550000Y-128500000D02*
G75*
G02*
X116450000Y-128500000I950000J0D01*
G01*
X147365000Y-146215000D02*
X147365000Y-150100000D01*
X149635000Y-146215000D02*
X147365000Y-146215000D01*
X149635000Y-150100000D02*
X149635000Y-146215000D01*
X126440000Y-124065000D02*
X130560000Y-124065000D01*
X126440000Y-124130000D02*
X126440000Y-124065000D01*
X126440000Y-132935000D02*
X126440000Y-132870000D01*
X130560000Y-124065000D02*
X130560000Y-124130000D01*
X130560000Y-132870000D02*
X130560000Y-132935000D01*
X130560000Y-132935000D02*
X126440000Y-132935000D01*
X125900000Y-124130000D02*
X125660000Y-123800000D01*
X126140000Y-123800000D01*
X125900000Y-124130000D01*
G36*
X125900000Y-124130000D02*
G01*
X125660000Y-123800000D01*
X126140000Y-123800000D01*
X125900000Y-124130000D01*
G37*
X107365000Y-146215000D02*
X107365000Y-150100000D01*
X109635000Y-146215000D02*
X107365000Y-146215000D01*
X109635000Y-150100000D02*
X109635000Y-146215000D01*
X116450000Y-133500000D02*
G75*
G02*
X114550000Y-133500000I-950000J0D01*
G01*
X114550000Y-133500000D02*
G75*
G02*
X116450000Y-133500000I950000J0D01*
G01*
X121450000Y-105000000D02*
G75*
G02*
X119550000Y-105000000I-950000J0D01*
G01*
X119550000Y-105000000D02*
G75*
G02*
X121450000Y-105000000I950000J0D01*
G01*
X141438748Y-111665000D02*
X141961252Y-111665000D01*
X141438748Y-113135000D02*
X141961252Y-113135000D01*
%LPC*%
D14*
X142550000Y-109400000D03*
X139250000Y-109400000D03*
D15*
X132700000Y-109425000D03*
X132700000Y-110975000D03*
D16*
X104000000Y-153000000D03*
D17*
X144275000Y-149900000D03*
X145925000Y-149900000D03*
D18*
X131390000Y-106280000D03*
X125610000Y-106280000D03*
D19*
X131700000Y-107355000D03*
X130900000Y-107355000D03*
D20*
X129750000Y-107355000D03*
X128750000Y-107355000D03*
X128250000Y-107355000D03*
X127250000Y-107355000D03*
D19*
X126100000Y-107355000D03*
X125300000Y-107355000D03*
X125300000Y-107355000D03*
X126100000Y-107355000D03*
D20*
X126750000Y-107355000D03*
X127750000Y-107355000D03*
X129250000Y-107355000D03*
X130250000Y-107355000D03*
D19*
X130900000Y-107355000D03*
X131700000Y-107355000D03*
D21*
X132820000Y-106780000D03*
D22*
X132820000Y-102600000D03*
D21*
X124180000Y-106780000D03*
D22*
X124180000Y-102600000D03*
D23*
X126750000Y-110975000D03*
X126750000Y-112625000D03*
D24*
X112725000Y-107100000D03*
X111075000Y-107100000D03*
D25*
X108500000Y-109900000D03*
X108500000Y-107100000D03*
D16*
X104000000Y-104000000D03*
X153000000Y-104000000D03*
D25*
X148500000Y-109900000D03*
X148500000Y-107100000D03*
D23*
X129750000Y-110975000D03*
X129750000Y-112625000D03*
D17*
X144275000Y-107100000D03*
X145925000Y-107100000D03*
D26*
X115500000Y-123500000D03*
D27*
X127725000Y-123000000D03*
X129275000Y-123000000D03*
D24*
X112725000Y-149900000D03*
X111075000Y-149900000D03*
D28*
X135112500Y-109400000D03*
X136687500Y-109400000D03*
D29*
X129770000Y-147850000D03*
D30*
X127230000Y-147850000D03*
X129770000Y-145310000D03*
X127230000Y-145310000D03*
X129770000Y-142770000D03*
X127230000Y-142770000D03*
D23*
X123100000Y-125175000D03*
X123100000Y-126825000D03*
D16*
X153000000Y-153000000D03*
D26*
X115500000Y-128500000D03*
D31*
X148500000Y-147100000D03*
X148500000Y-149900000D03*
D32*
X126025000Y-124690000D03*
X126025000Y-125960000D03*
X126025000Y-127230000D03*
X126025000Y-128500000D03*
X126025000Y-129770000D03*
X126025000Y-131040000D03*
X126025000Y-132310000D03*
X130975000Y-132310000D03*
X130975000Y-131040000D03*
X130975000Y-129770000D03*
X130975000Y-128500000D03*
X130975000Y-127230000D03*
X130975000Y-125960000D03*
X130975000Y-124690000D03*
D31*
X108500000Y-147100000D03*
X108500000Y-149900000D03*
D26*
X115500000Y-133500000D03*
X120500000Y-105000000D03*
D33*
X140750000Y-112400000D03*
X142650000Y-112400000D03*
%LPD*%
M02*
