G04 #@! TF.GenerationSoftware,KiCad,Pcbnew,10.0.4-10.0.4~ubuntu22.04.1*
G04 #@! TF.CreationDate,2026-09-21T21:24:43+05:30*
G04 #@! TF.ProjectId,quiet-orbit-qo-r1-usb-c-four-light-ambient-lamp-board,71756965-742d-46f7-9262-69742d716f2d,rev?*
G04 #@! TF.SameCoordinates,Original*
G04 #@! TF.FileFunction,Soldermask,Top*
G04 #@! TF.FilePolarity,Negative*
%FSLAX46Y46*%
G04 Gerber Fmt 4.6, Leading zero omitted, Abs format (unit mm)*
G04 Created by KiCad (PCBNEW 10.0.4-10.0.4~ubuntu22.04.1) date 2026-09-21 21:24:43*
%MOMM*%
%LPD*%
G01*
G04 APERTURE LIST*
G04 Aperture macros list*
%AMRoundRect*
0 Rectangle with rounded corners*
0 $1 Rounding radius*
0 $2 $3 $4 $5 $6 $7 $8 $9 X,Y pos of 4 corners*
0 Add a 4 corners polygon primitive as box body*
4,1,4,$2,$3,$4,$5,$6,$7,$8,$9,$2,$3,0*
0 Add four circle primitives for the rounded corners*
1,1,$1+$1,$2,$3*
1,1,$1+$1,$4,$5*
1,1,$1+$1,$6,$7*
1,1,$1+$1,$8,$9*
0 Add four rect primitives between the rounded corners*
20,1,$1+$1,$2,$3,$4,$5,0*
20,1,$1+$1,$4,$5,$6,$7,0*
20,1,$1+$1,$6,$7,$8,$9,0*
20,1,$1+$1,$8,$9,$2,$3,0*%
G04 Aperture macros list end*
%ADD10RoundRect,0.225000X0.225000X0.375000X-0.225000X0.375000X-0.225000X-0.375000X0.225000X-0.375000X0*%
%ADD11RoundRect,0.225000X-0.250000X0.225000X-0.250000X-0.225000X0.250000X-0.225000X0.250000X0.225000X0*%
%ADD12C,3.200000*%
%ADD13RoundRect,0.200000X-0.200000X-0.275000X0.200000X-0.275000X0.200000X0.275000X-0.200000X0.275000X0*%
%ADD14C,0.650000*%
%ADD15RoundRect,0.150000X0.150000X0.425000X-0.150000X0.425000X-0.150000X-0.425000X0.150000X-0.425000X0*%
%ADD16RoundRect,0.075000X0.075000X0.500000X-0.075000X0.500000X-0.075000X-0.500000X0.075000X-0.500000X0*%
%ADD17O,1.000000X2.100000*%
%ADD18O,1.000000X1.800000*%
%ADD19RoundRect,0.200000X-0.275000X0.200000X-0.275000X-0.200000X0.275000X-0.200000X0.275000X0.200000X0*%
%ADD20RoundRect,0.200000X0.200000X0.275000X-0.200000X0.275000X-0.200000X-0.275000X0.200000X-0.275000X0*%
%ADD21RoundRect,0.250000X0.625000X-0.375000X0.625000X0.375000X-0.625000X0.375000X-0.625000X-0.375000X0*%
%ADD22C,1.500000*%
%ADD23RoundRect,0.225000X-0.225000X-0.250000X0.225000X-0.250000X0.225000X0.250000X-0.225000X0.250000X0*%
%ADD24RoundRect,0.218750X-0.218750X-0.256250X0.218750X-0.256250X0.218750X0.256250X-0.218750X0.256250X0*%
%ADD25RoundRect,0.250000X0.600000X0.600000X-0.600000X0.600000X-0.600000X-0.600000X0.600000X-0.600000X0*%
%ADD26C,1.700000*%
%ADD27RoundRect,0.250000X-0.625000X0.375000X-0.625000X-0.375000X0.625000X-0.375000X0.625000X0.375000X0*%
%ADD28RoundRect,0.150000X-0.825000X-0.150000X0.825000X-0.150000X0.825000X0.150000X-0.825000X0.150000X0*%
%ADD29RoundRect,0.250000X-0.250000X-0.475000X0.250000X-0.475000X0.250000X0.475000X-0.250000X0.475000X0*%
G04 APERTURE END LIST*
D10*
X142550000Y-109400000D03*
X139250000Y-109400000D03*
D11*
X132700000Y-109425000D03*
X132700000Y-110975000D03*
D12*
X104000000Y-153000000D03*
D13*
X144275000Y-149900000D03*
X145925000Y-149900000D03*
D14*
X131390000Y-106280000D03*
X125610000Y-106280000D03*
D15*
X131700000Y-107355000D03*
X130900000Y-107355000D03*
D16*
X129750000Y-107355000D03*
X128750000Y-107355000D03*
X128250000Y-107355000D03*
X127250000Y-107355000D03*
D15*
X126100000Y-107355000D03*
X125300000Y-107355000D03*
X125300000Y-107355000D03*
X126100000Y-107355000D03*
D16*
X126750000Y-107355000D03*
X127750000Y-107355000D03*
X129250000Y-107355000D03*
X130250000Y-107355000D03*
D15*
X130900000Y-107355000D03*
X131700000Y-107355000D03*
D17*
X132820000Y-106780000D03*
D18*
X132820000Y-102600000D03*
D17*
X124180000Y-106780000D03*
D18*
X124180000Y-102600000D03*
D19*
X126750000Y-110975000D03*
X126750000Y-112625000D03*
D20*
X112725000Y-107100000D03*
X111075000Y-107100000D03*
D21*
X108500000Y-109900000D03*
X108500000Y-107100000D03*
D12*
X104000000Y-104000000D03*
X153000000Y-104000000D03*
D21*
X148500000Y-109900000D03*
X148500000Y-107100000D03*
D19*
X129750000Y-110975000D03*
X129750000Y-112625000D03*
D13*
X144275000Y-107100000D03*
X145925000Y-107100000D03*
D22*
X115500000Y-123500000D03*
D23*
X127725000Y-123000000D03*
X129275000Y-123000000D03*
D20*
X112725000Y-149900000D03*
X111075000Y-149900000D03*
D24*
X135112500Y-109400000D03*
X136687500Y-109400000D03*
D25*
X129770000Y-147850000D03*
D26*
X127230000Y-147850000D03*
X129770000Y-145310000D03*
X127230000Y-145310000D03*
X129770000Y-142770000D03*
X127230000Y-142770000D03*
D19*
X123100000Y-125175000D03*
X123100000Y-126825000D03*
D12*
X153000000Y-153000000D03*
D22*
X115500000Y-128500000D03*
D27*
X148500000Y-147100000D03*
X148500000Y-149900000D03*
D28*
X126025000Y-124690000D03*
X126025000Y-125960000D03*
X126025000Y-127230000D03*
X126025000Y-128500000D03*
X126025000Y-129770000D03*
X126025000Y-131040000D03*
X126025000Y-132310000D03*
X130975000Y-132310000D03*
X130975000Y-131040000D03*
X130975000Y-129770000D03*
X130975000Y-128500000D03*
X130975000Y-127230000D03*
X130975000Y-125960000D03*
X130975000Y-124690000D03*
D27*
X108500000Y-147100000D03*
X108500000Y-149900000D03*
D22*
X115500000Y-133500000D03*
X120500000Y-105000000D03*
D29*
X140750000Y-112400000D03*
X142650000Y-112400000D03*
M02*
